<svg xmlns="http://www.w3.org/2000/svg" width="1400.27" height="631.19" viewBox="0 0 1400.27 631.19">
  <defs>
    <style>
      .cls-1, .cls-2, .cls-3 {
        fill: #fff;
      }

      .cls-2 {
        opacity: 0.5;
      }

      .cls-2, .cls-3 {
        isolation: isolate;
      }

      .cls-3 {
        opacity: 0.8;
      }
    </style>
  </defs>
  <title>Clouds</title>
  <g id="Layer_1" data-name="Layer 1">
    <path class="cls-1" d="M1383.66,324.83a42.79,42.79,0,0,0-38,62.41,61.24,61.24,0,0,0-27.88,33.25,41.86,41.86,0,0,0-52.25,19.42,53,53,0,0,0-82.9,22c-2.28-.19-4.58-.31-6.9-.31-1.1,0-2.19,0-3.28.07a81.33,81.33,0,0,0-49.93,19.66c-.56.47-1.11,1-1.66,1.46-.1-.37-.2-.73-.32-1.09a27.7,27.7,0,0,0-52-2.36c-.81-.16-1.63-.3-2.46-.43a59.28,59.28,0,0,0-62.11,32.51,56.58,56.58,0,0,0-2.48,5.88,57.32,57.32,0,0,0-2.25,7.87,25.73,25.73,0,0,0-38.63,26.39,45.84,45.84,0,0,0-68.76-3.72,42.35,42.35,0,0,0-64.36-20.23,38.88,38.88,0,0,0-3.29,2.58A25.47,25.47,0,0,0,777,511.72a22.89,22.89,0,0,0-30.88-8.14A21.26,21.26,0,0,0,717.7,474.1h-.05a.12.12,0,0,1,0-.07,30.44,30.44,0,0,0-15.79-4.39,30.85,30.85,0,0,0-26,14.36c-.44.85-.88,1.7-1.34,2.53l-.11,0a20.73,20.73,0,0,0-7.37-1.35,21,21,0,0,0-21,21c0,.51,0,1,.08,1.49a30.26,30.26,0,0,0-32.37,9.14,23.61,23.61,0,0,0-46.24,6.77,24.71,24.71,0,0,0,.22,3.24,38.29,38.29,0,0,0-5.26-3.08,39,39,0,0,0-54.92,25.89,27.45,27.45,0,0,0-41.13-4.21,36,36,0,0,0-66.89,2.6,23.46,23.46,0,0,0-36-1.71A64.45,64.45,0,0,0,254.46,505a42.32,42.32,0,0,0-77.05-22.87,56.71,56.71,0,0,0-63-28.66c.06-1.21.11-2.42.11-3.65A63.65,63.65,0,0,0,93,402.1a27.72,27.72,0,0,0-45.33-31.24A52.64,52.64,0,0,0-.62,335.6V626h1400V327.82A42.56,42.56,0,0,0,1383.66,324.83Z" transform="translate(0.62 -324.83)"/>
    <g>
      <path class="cls-2" d="M830,642.07a31.28,31.28,0,0,0,43.27,24.57,17.34,17.34,0,0,0-.2,2.51,17.15,17.15,0,0,0,31.62,9.22,54,54,0,0,0,64.48,11.18,63.2,63.2,0,0,0,73.47,36.1h0a63,63,0,0,0,13.92-5.35,43.31,43.31,0,0,0,47.6,17.73A63.77,63.77,0,0,0,1201,783.92a55.62,55.62,0,0,0,48.87,29l1.12,0v0a54.51,54.51,0,0,0,42.9,53.25,65.63,65.63,0,0,0,105.8,31.61V798.22a65.38,65.38,0,0,0-42.74-15.83c-2.08,0-4.13.11-6.15.3a54.44,54.44,0,0,0-45.32-24.23h0c0-.37,0-.74,0-1.12a55.6,55.6,0,0,0-78.56-50.65A63.78,63.78,0,0,0,1131.4,677a43.32,43.32,0,0,0-38.8-24c-1.12,0-2.22,0-3.32.14a63.17,63.17,0,0,0-99.1-40,54,54,0,0,0-98.84,17.42,31.26,31.26,0,0,0-61.64,7.33A30.25,30.25,0,0,0,830,642.07Z" transform="translate(0.62 -324.83)"/>
      <path class="cls-2" d="M-.35,956V795.36a72,72,0,0,1,122.9,21.88,34.32,34.32,0,0,1,8.07-2.89A67.65,67.65,0,1,1,236,729.73a58.79,58.79,0,0,1,98.62-8.84,42.71,42.71,0,0,1,75.32-38.41c.63-.48,1.29-.94,2-1.37a58.78,58.78,0,1,1,94.94-56.34,29.13,29.13,0,0,1,3.26-.19,27.52,27.52,0,0,1,4,.29,33.19,33.19,0,0,1,65.87,5.77,34.17,34.17,0,0,1-.37,5,33.21,33.21,0,0,1-42.7,26.7,28.37,28.37,0,0,1-44.4,12.86A58.65,58.65,0,0,1,449,694.35c-.39,0-.77,0-1.16,0a24.3,24.3,0,0,1-33.5,29.39A42.69,42.69,0,0,1,342.68,735a58.26,58.26,0,0,1,4.07,17.54c.11,1.43.16,2.89.16,4.35a58.79,58.79,0,0,1-103.32,38.42,67.67,67.67,0,0,1-73.35,40.79,34.23,34.23,0,0,1-52,39.58,72,72,0,0,1-75.83,36.86A48.35,48.35,0,0,1-.35,956Z" transform="translate(0.62 -324.83)"/>
      <path class="cls-3" d="M7.28,913.64a95,95,0,0,0,94.52-85.33,70.75,70.75,0,0,0,82.48-69.85c0-.32,0-.63,0-1a61.44,61.44,0,0,0,57.36-.11,59.5,59.5,0,0,0,98.17-5.61,33.2,33.2,0,0,0,7,.77h.16a33.37,33.37,0,0,0,28.37-50.94,61.53,61.53,0,0,0,79.62-51.83,47.24,47.24,0,0,0,74.52-8.11,36.74,36.74,0,0,0,50.12-6c.73-.88,1.42-1.79,2.07-2.74a52.38,52.38,0,0,0,14.86-.06,47.8,47.8,0,0,0,73.13-22.64A127.53,127.53,0,0,0,739,613.41a54.51,54.51,0,0,0,77.47,18.05A39.49,39.49,0,0,0,830,642.07a39.38,39.38,0,0,0,39.94-3.61A50,50,0,0,0,935.12,663a72,72,0,0,0,92.87-7.24,63.3,63.3,0,0,0,6,22.52,32.22,32.22,0,0,0,8.67,47.38h0a32.21,32.21,0,0,0,44.43-11.18c1.48.1,3,.17,4.47.17a63.47,63.47,0,0,0,41.08-15,50.32,50.32,0,0,0,37.11,35.16,25.39,25.39,0,0,0-.46,4.81,25,25,0,0,0,48.94,6.9A66.34,66.34,0,0,0,1242,760.92a30.74,30.74,0,0,0,32.71,50.84,51.74,51.74,0,0,0,26.5,16c0,.5,0,1,0,1.5a58.73,58.73,0,0,0,98.45,43.26V552.09H-.35V913.33Q3.43,913.65,7.28,913.64Z" transform="translate(0.62 -324.83)"/>
    </g>
    <path class="cls-1" d="M15.1,853.24a42.79,42.79,0,0,0,38-62.41A61.44,61.44,0,0,0,75.07,770a61.13,61.13,0,0,0,6-12.38,41.86,41.86,0,0,0,52.25-19.42,53,53,0,0,0,82.9-22c2.28.19,4.58.31,6.9.31,1.1,0,2.19,0,3.28-.07a81.33,81.33,0,0,0,49.93-19.66c.56-.47,1.11-1,1.66-1.46.1.37.2.73.32,1.09a27.7,27.7,0,0,0,52,2.36c.81.16,1.63.3,2.46.43a59.28,59.28,0,0,0,62.11-32.51,56.58,56.58,0,0,0,2.48-5.88,57.32,57.32,0,0,0,2.25-7.87,25.72,25.72,0,0,0,38.63-26.38,45.84,45.84,0,0,0,68.76,3.72,42.35,42.35,0,0,0,64.36,20.23,38.88,38.88,0,0,0,3.29-2.58,25.47,25.47,0,0,0,47.17,18.45,22.89,22.89,0,0,0,30.88,8.14A21.26,21.26,0,0,0,681.06,704l.05,0a.19.19,0,0,1,0,.07,30.44,30.44,0,0,0,15.79,4.39,30.85,30.85,0,0,0,26-14.36c.44-.85.88-1.7,1.34-2.53l.11,0a20.73,20.73,0,0,0,7.37,1.35,21,21,0,0,0,21-21c0-.51,0-1-.08-1.49A30.26,30.26,0,0,0,785,661.33a23.61,23.61,0,0,0,46.24-6.77,24.71,24.71,0,0,0-.22-3.24,38.29,38.29,0,0,0,5.26,3.08,39,39,0,0,0,54.92-25.89,27.45,27.45,0,0,0,41.13,4.21,36,36,0,0,0,66.89-2.6,23.46,23.46,0,0,0,36,1.71,64.45,64.45,0,0,0,109.13,41.24,42.32,42.32,0,0,0,77,22.87,56.71,56.71,0,0,0,63,28.66c-.06,1.21-.11,2.42-.11,3.65A63.65,63.65,0,0,0,1305.72,776a27.72,27.72,0,0,0,45.33,31.24,52.66,52.66,0,0,0,48.33,35.27V552.09H-.62V850.26A42.76,42.76,0,0,0,15.1,853.24Z" transform="translate(0.62 -324.83)"/>
  </g>
</svg>
