<svg xmlns="http://www.w3.org/2000/svg" xmlns:xlink="http://www.w3.org/1999/xlink" width="2332" height="452.99" viewBox="0 0 2332 452.99">
  <defs>
    <style>
      .cls-1 {
        fill: url(#Áåçûìÿííûé_ãðàäèåíò_4);
      }

      .cls-2 {
        fill: url(#Áåçûìÿííûé_ãðàäèåíò_2);
      }

      .cls-3 {
        fill: url(#Áåçûìÿííûé_ãðàäèåíò_2-2);
      }

      .cls-4 {
        fill: url(#Áåçûìÿííûé_ãðàäèåíò_2-3);
      }

      .cls-5 {
        fill: url(#Áåçûìÿííûé_ãðàäèåíò_2-4);
      }

      .cls-6 {
        fill: url(#Áåçûìÿííûé_ãðàäèåíò_2-5);
      }

      .cls-7 {
        fill: #6100ca;
      }

      .cls-8 {
        fill: #5000c4;
      }

      .cls-9 {
        fill: #5300c5;
      }

      .cls-10 {
        fill: #4800c0;
      }

      .cls-11 {
        fill: #4200be;
      }

      .cls-12 {
        fill: #4700c0;
      }

      .cls-13 {
        fill: #6800cd;
      }

      .cls-14 {
        fill: #4000bd;
      }

      .cls-15 {
        fill: #3900ba;
      }

      .cls-16 {
        fill: #4a00c1;
      }

      .cls-17 {
        fill: #4500bf;
      }

      .cls-18 {
        fill: #5a00c8;
      }

      .cls-19 {
        fill: #5b00c8;
      }

      .cls-20 {
        fill: #5500c6;
      }

      .cls-21 {
        fill: #7300d2;
      }
    </style>
    <linearGradient id="Áåçûìÿííûé_ãðàäèåíò_4" data-name="Áåçûìÿííûé ãðàäèåíò 4" x1="582.78" y1="71.64" x2="785.65" y2="71.64" gradientUnits="userSpaceOnUse">
      <stop offset="0" stop-color="#3a00bb"/>
      <stop offset="0.69" stop-color="#60c"/>
      <stop offset="0.97" stop-color="#7900d4"/>
    </linearGradient>
    <linearGradient id="Áåçûìÿííûé_ãðàäèåíò_2" data-name="Áåçûìÿííûé ãðàäèåíò 2" x1="1358.62" y1="7.74" x2="1487.14" y2="55.17" gradientUnits="userSpaceOnUse">
      <stop offset="0" stop-color="#7900d4"/>
      <stop offset="0.18" stop-color="#6a00ce"/>
      <stop offset="0.72" stop-color="#4200be"/>
      <stop offset="1" stop-color="#3300b8"/>
    </linearGradient>
    <linearGradient id="Áåçûìÿííûé_ãðàäèåíò_2-2" x1="1675.58" y1="64.43" x2="1750.89" y2="144.86" gradientTransform="matrix(1.39, 0.13, -0.04, 1, -574.94, -195.17)" xlink:href="#Áåçûìÿííûé_ãðàäèåíò_2"/>
    <linearGradient id="Áåçûìÿííûé_ãðàäèåíò_2-3" x1="1166" y1="13.16" x2="1166" y2="354.38" xlink:href="#Áåçûìÿííûé_ãðàäèåíò_2"/>
    <linearGradient id="Áåçûìÿííûé_ãðàäèåíò_2-4" x1="1061.19" y1="-13.34" x2="1061.19" y2="490.89" xlink:href="#Áåçûìÿííûé_ãðàäèåíò_2"/>
    <linearGradient id="Áåçûìÿííûé_ãðàäèåíò_2-5" x1="1053.08" y1="-13.34" x2="1053.08" y2="490.89" xlink:href="#Áåçûìÿííûé_ãðàäèåíò_2"/>
  </defs>
  <title>Asset 1</title>
  <g id="Layer_2" data-name="Layer 2">
    <g id="Layer_1-2" data-name="Layer 1">
      <g>
        <g>
          <path class="cls-1" d="M582.78,101S610,87.91,621.55,80a17.22,17.22,0,0,1,5.13-2.36c15.27-4.28,84-23.62,112-32.69a17.25,17.25,0,0,1,6.1-.83,245.32,245.32,0,0,0,40.89-1.8Z"/>
          <path class="cls-2" d="M1281.11,4.24s23.24-1.58,32.07-3.12a23.19,23.19,0,0,1,5.52-.25c13,1,63.74,5.16,127,15.45a24.57,24.57,0,0,1,3.78.94l38,13Z"/>
          <path class="cls-3" d="M1694.11,85.07s22.62,4.59,36.7,3.81a22.2,22.2,0,0,1,5.19.25c6.54,1.15,24.65,5,58.48,16.81,31.56,11,46.42,19.53,52.3,23.45,2,1.31,3,2.89,3,4.41a11.66,11.66,0,0,0,4.24,9.19S1710.66,90.43,1694.11,85.07Z"/>
        </g>
        <path class="cls-4" d="M2332,453C2027.5,172.13,1617.28,0,1166,0S304.5,172.13,0,453Z"/>
        <path class="cls-5" d="M376.08,257.58c16.86.23,34.14,3,50.88,5.19,32.08,4.21,66,3.54,98.31-.49,5.86-.73,11.7-1.55,17.55-2.32,4.49-.6.39,0-.44.07,4-.51,8-1,11.94-1.73,8-1.54,15.85-3.68,23.68-5.77,15.7-4.19,31.23-9,46.7-13.94,30.35-9.67,60.58-19.88,91.69-27q11.22-2.55,22.55-4.52c3.89-.68,7.81-1.19,11.7-1.87l.94-.17q3.27-.42,6.56-.79c17-1.93,34.12-3.13,51.23-4.05,68.52-3.68,137.14-5.64,204.68-18.73,32.21-6.25,64.72-12.51,96.36-21.16s63.45-17.47,95.29-26c15.57-4.16,31.18-8.3,46.73-12.46s31.75-6.38,47.53-9.21c32.24-5.78,64.54-10.84,97.16-14,64-6.14,129.46-8.16,192.56,5.69,31.61,6.94,61.13,19.27,91.67,29.5,31.21,10.45,63.46,15.48,96.37,16.57,30,1,60-.47,90-2.52q-32-14.21-64.62-27.16c-31.57.15-63-1.61-93.64-10-31.7-8.61-61.55-22.6-93.25-31.24s-64.39-13.15-97.1-15.08c-66.36-3.91-133.19,2.28-199,10-33.28,3.9-66.34,8.66-99.64,12.06S1154.07,93.8,1121,97.05q-11.47,1.13-23,2.22c-2.34.22-17.75,2.07-13.39,1.51-7.41,1-7.19,1-13.39,1.76q-24.88,3.19-49.81,6-11.52,1.26-23,2.39c-4.48.44-9,.81-13.45,1.27-3,.31-5.92.64-8.9,1l-3.85.51-.71.09c-16.7,2-33.39,4-50.14,5.53-70.11,6.42-141.09,4-210.47,17.33-32,6.14-63,16.13-94,26.07-31.09,10-62.29,19-94,26.69-18.44,4.46-34.26,6.37-49,9.94-16.18,3.93-33.09,5.53-48.83,8.85s-31.79,7.61-47.79,9.31c-17.05,1.81-34.44,2.22-51.58,3.17l-7,.37q-32.54,18.33-64.13,38c23.7-.46,47.39-.93,71.09-1.24C342.52,257.63,359.31,257.36,376.08,257.58Z"/>
        <path class="cls-6" d="M252.16,446.41c63.17-11.85,126.91-20.43,190.46-30s126.87-20.34,189-36.38c63.09-16.29,123.5-39.87,184.18-63.1,61.27-23.46,122.86-47.93,186.86-63.31,66.65-16,135.08-21.2,202.79-31.31,135.14-20.18,271.06-49.83,408.39-48.17,67.91.82,134.31,11.81,200.88,24,33.14,6.07,66.68,10.91,99.6,17.9,31.19,6.61,63,12.31,94.86,14.73,7.44.57,15,.88,22.61.9q-16-9.28-32.23-18.25c-46.74.4-93.66-6.55-138.66-17.49-63.13-15.34-125.27-31.39-190.36-36.41-133.62-10.3-266.5,11.79-397.77,33.4-66.67,11-133.79,22.64-201.18,28.42-65,5.58-129.31,13.21-192,31.74-61.3,18.13-119.92,44.44-180.47,64.85-59.79,20.15-121.3,34.2-183.5,45.06s-124.82,18.9-187.26,28.19c-61.78,9.2-125,18.13-184.8,36.24-14.69,4.45-29.38,9-43.67,14.62-8.6,3.36-17,7.23-25.54,10.95H219.6C230.42,450.68,241.27,448.46,252.16,446.41Z"/>
        <g>
          <g>
            <ellipse class="cls-7" cx="1494.33" cy="95.36" rx="23.58" ry="90.05" transform="translate(1161.03 1555.16) rotate(-80.79)"/>
            <path class="cls-8" d="M1407.75,85.39c2.17-12.84,43.73-16.77,92.82-8.79,40.59,6.61,73.6,19.29,82.58,30.75-2.59-12.46-38.88-27.76-84.88-35.24-49.08-8-90.64-4-92.82,8.79-.37,2.22.48,4.56,2.36,7A6.43,6.43,0,0,1,1407.75,85.39Z"/>
          </g>
          <g>
            <ellipse class="cls-9" cx="915.24" cy="175.25" rx="145.38" ry="48.69" transform="translate(-14.1 106.6) rotate(-6.62)"/>
            <path class="cls-10" d="M1059.68,158.74C1057,132,990.11,117.68,910.34,126.79S768.1,165,770.8,191.75a17.92,17.92,0,0,0,.39,2.19c21.6-19,70.1-35.91,127.58-42.48,77.57-8.87,142.91,4.42,149,29.76C1056.09,173.87,1060.43,166.21,1059.68,158.74Z"/>
            <path class="cls-11" d="M907.79,134.29c79.77-9.11,146.63,5.19,149.33,32a16.44,16.44,0,0,1-.1,3.9,19.54,19.54,0,0,0,2.66-11.4C1057,132,990.11,117.68,910.34,126.79c-75.9,8.68-136.1,35.43-139.43,61.06C783.57,164.68,839.28,142.13,907.79,134.29Z"/>
          </g>
          <g>
            <ellipse class="cls-12" cx="550.02" cy="167.76" rx="68.73" ry="18.85" transform="translate(-24.9 156.43) rotate(-15.83)"/>
            <path class="cls-13" d="M488.76,186.37c-3-10,24.24-26.49,60.75-36.88,15.63-4.45,30.42-7.05,42.47-7.79-12.81.25-29.52,2.92-47.32,8-36.51,10.39-63.71,26.9-60.75,36.88,1.69,5.71,12.89,8,29,7C499.43,193.88,490.28,191.48,488.76,186.37Z"/>
          </g>
          <g>
            <ellipse class="cls-14" cx="1398.77" cy="242.97" rx="67.16" ry="165.37" transform="translate(1075.92 1625.49) rotate(-86.71)"/>
            <path class="cls-15" d="M1402.82,185.75c85.74,5,154.6,35.6,160.64,70a28.78,28.78,0,0,0,.4-3.23c2.24-37-69.86-71.32-161-76.61s-166.91,20.45-169.15,57.47a28.45,28.45,0,0,0,.4,6.58C1240.39,204.71,1314.32,180.62,1402.82,185.75Z"/>
            <path class="cls-16" d="M1394.71,310c76.4,4.43,141.92-12.93,162.49-40.44-22.69-26.24-81.23-47.26-151-51.31-76.4-4.43-141.92,12.93-162.48,40.44C1266.42,284.93,1325,306,1394.71,310Z"/>
          </g>
          <g>
            <ellipse class="cls-16" cx="1822.29" cy="217.58" rx="45.55" ry="136.81" transform="translate(1045.75 1880.42) rotate(-71.78)"/>
            <path class="cls-17" d="M1699.15,185.3c8.68-23.62,73.83-23.4,145.5.5,50.07,16.69,90,40.52,106.66,61.43-9.1-23-54.17-52.72-113.3-72.43-71.67-23.9-136.81-24.12-145.5-.5-2.62,7.12.23,15.6,7.4,24.62C1698,194,1697.63,189.44,1699.15,185.3Z"/>
          </g>
          <g>
            <ellipse class="cls-7" cx="1082.07" cy="36.47" rx="124.6" ry="18.89" transform="translate(-0.49 52.84) rotate(-2.8)"/>
            <path class="cls-18" d="M959.77,45.8c10.75-9.23,60.82-18.24,121.33-21.2,61.21-3,112.4,1.22,123.26,9.54,1.46-1.25,2.22-2.51,2.15-3.76C1206,20,1149.83,14.24,1081.1,17.6s-124,14.53-123.48,24.95A4.67,4.67,0,0,0,959.77,45.8Z"/>
          </g>
          <g>
            <ellipse class="cls-19" cx="1246.83" cy="103.09" rx="12.38" ry="36.62" transform="translate(1089.59 1344.25) rotate(-87.51)"/>
            <path class="cls-20" d="M1210.54,103.27c4.14-5.48,19.58-8.92,37.35-7.93,18,1,32.24,6.2,34.43,12.13a5.33,5.33,0,0,0,1-2.34c1-6.79-14.51-13.21-34.69-14.33s-37.37,3.46-38.39,10.26A4.31,4.31,0,0,0,1210.54,103.27Z"/>
          </g>
          <g>
            <ellipse class="cls-7" cx="801.91" cy="76.66" rx="25.34" ry="7.97" transform="translate(-2.17 125.54) rotate(-8.94)"/>
            <path class="cls-21" d="M778.62,80.69C778.16,76.31,789,71.05,802.83,69a65.42,65.42,0,0,1,15.83-.65,62.1,62.1,0,0,0-17.6.43c-13.83,2.11-24.67,7.37-24.2,11.75.27,2.5,4.18,4.18,10.06,4.76C782,84.52,778.86,82.94,778.62,80.69Z"/>
          </g>
        </g>
      </g>
    </g>
  </g>
</svg>
