<?xml version="1.0" encoding="utf-8"?>
<!-- Generator: Adobe Illustrator 24.0.1, SVG Export Plug-In . SVG Version: 6.00 Build 0)  -->
<svg version="1.1" id="Layer_1" xmlns="http://www.w3.org/2000/svg" xmlns:xlink="http://www.w3.org/1999/xlink" x="0px" y="0px"
	 viewBox="0 0 1400 978.82" style="enable-background:new 0 0 1400 978.82;" xml:space="preserve">
<style type="text/css">
	.st0{filter:url(#Adobe_OpacityMaskFilter);}
	.st1{filter:url(#Adobe_OpacityMaskFilter_1_);}
	.st2{mask:url(#SVGID_1_);fill:url(#SVGID_2_);}
	.st3{fill:url(#SVGID_3_);}
	.st4{fill:#FFFFFF;}
	.st5{display:none;fill:#3EB7ED;}
	.st6{display:none;opacity:0.2;fill:#2B2F3C;}
	.st7{display:none;opacity:0.4;fill:#FFFFFF;}
	.st8{display:none;fill:#EFEBE6;}
	.st9{display:none;opacity:0.5;fill:#FFFFFF;}
	.st10{display:none;fill:#2B2F3C;}
	.st11{filter:url(#Adobe_OpacityMaskFilter_2_);}
	.st12{filter:url(#Adobe_OpacityMaskFilter_3_);}
	.st13{mask:url(#SVGID_4_);fill:url(#SVGID_5_);}
	.st14{fill:url(#SVGID_6_);}
	.st15{filter:url(#Adobe_OpacityMaskFilter_4_);}
	.st16{filter:url(#Adobe_OpacityMaskFilter_5_);}
	.st17{mask:url(#SVGID_7_);fill:url(#SVGID_8_);}
	.st18{fill:url(#SVGID_9_);}
	.st19{filter:url(#Adobe_OpacityMaskFilter_6_);}
	.st20{filter:url(#Adobe_OpacityMaskFilter_7_);}
	.st21{mask:url(#SVGID_10_);fill:url(#SVGID_11_);}
	.st22{fill:url(#SVGID_12_);}
	.st23{display:none;}
	.st24{display:inline;fill:#3EB7ED;}
	.st25{display:inline;opacity:0.4;fill:#FFFFFF;}
	.st26{display:inline;opacity:0.1;fill:#2B2F3C;}
	.st27{display:inline;opacity:0.2;fill:#2B2F3C;}
	.st28{display:inline;opacity:0.2;fill:#FFFFFF;}
	.st29{opacity:0.2;fill:#FFFFFF;}
	.st30{display:none;opacity:0.1;fill:#FFFFFF;}
	.st31{fill:url(#SVGID_13_);}
	.st32{fill:url(#SVGID_14_);}
	.st33{fill:url(#SVGID_15_);}
	.st34{fill:url(#SVGID_16_);}
	.st35{fill:url(#SVGID_17_);}
	.st36{fill:#A399E8;}
	.st37{fill:url(#SVGID_18_);}
	.st38{fill:#988EE0;}
	.st39{opacity:0.35;}
	.st40{fill:url(#SVGID_19_);}
	.st41{fill:url(#SVGID_20_);}
	.st42{fill:#5540B5;}
	.st43{fill:url(#SVGID_21_);}
	.st44{fill:url(#SVGID_22_);}
	.st45{opacity:0.54;fill:#FFFFFF;enable-background:new    ;}
	.st46{opacity:0.5;fill:#FFFFFF;}
	.st47{opacity:0.8;fill:#FFFFFF;}
</style>
<defs>
	<filter id="Adobe_OpacityMaskFilter" filterUnits="userSpaceOnUse" x="657.67" y="274.26" width="84.67" height="217">
		<feColorMatrix  type="matrix" values="1 0 0 0 0  0 1 0 0 0  0 0 1 0 0  0 0 0 1 0"/>
	</filter>
</defs>
<mask maskUnits="userSpaceOnUse" x="657.67" y="274.26" width="84.67" height="217" id="SVGID_1_">
	<g class="st0">
		<defs>
			<filter id="Adobe_OpacityMaskFilter_1_" filterUnits="userSpaceOnUse" x="657.67" y="274.26" width="84.67" height="217">
				<feFlood  style="flood-color:white;flood-opacity:1" result="back"/>
				<feBlend  in="SourceGraphic" in2="back" mode="normal"/>
			</filter>
		</defs>
		<mask maskUnits="userSpaceOnUse" x="657.67" y="274.26" width="84.67" height="217" id="SVGID_1_">
			<g class="st1">
			</g>
		</mask>
		<linearGradient id="SVGID_2_" gradientUnits="userSpaceOnUse" x1="700" y1="491.2616" x2="700" y2="274.2626">
			<stop  offset="0.2903" style="stop-color:#FFFFFF"/>
			<stop  offset="0.3682" style="stop-color:#DEDEDE"/>
			<stop  offset="0.6567" style="stop-color:#686868"/>
			<stop  offset="0.8551" style="stop-color:#1D1D1D"/>
			<stop  offset="0.9462" style="stop-color:#000000"/>
		</linearGradient>
		<path class="st2" d="M742.33,491.26c-23-26.67-29.4-57.55-33.06-79.83c-3.66-22.28-9.27-137.17-9.27-137.17
			s-5.61,114.88-9.27,137.17c-3.66,22.28-10.06,53.16-33.06,79.83H742.33z"/>
	</g>
</mask>
<linearGradient id="SVGID_3_" gradientUnits="userSpaceOnUse" x1="700" y1="491.2616" x2="700" y2="274.2626">
	<stop  offset="0.2903" style="stop-color:#FFFFFF"/>
	<stop  offset="0.9462" style="stop-color:#FFFFFF"/>
</linearGradient>
<path class="st3" d="M742.33,491.26c-23-26.67-29.4-57.55-33.06-79.83c-3.66-22.28-9.27-137.17-9.27-137.17
	s-5.61,114.88-9.27,137.17c-3.66,22.28-10.06,53.16-33.06,79.83H742.33z"/>
<path class="st4" d="M1384.28,317.19c-23.64,0-42.8,19.16-42.8,42.8c0,7.07,1.73,13.73,4.76,19.61
	c-8.94,5.02-16.49,12.21-21.93,20.87c-2.42,3.86-4.43,8.01-5.95,12.38c-4.72-1.84-9.85-2.87-15.23-2.87
	c-6.49,0-12.63,1.48-18.11,4.11c-8.08,3.88-14.72,10.28-18.91,18.18c-9.12-7.44-20.77-11.9-33.45-11.9
	c-22.54,0-41.78,14.06-49.45,33.88c-2.28-0.19-4.58-0.31-6.9-0.31c-1.1,0-2.19,0.02-3.28,0.07c-6.89,0.27-13.56,1.39-19.91,3.28
	c-11.2,3.3-21.39,8.95-30.02,16.38c-0.56,0.47-1.11,0.96-1.66,1.46c-0.1-0.37-0.2-0.73-0.32-1.09c-3.52-11.24-14.02-19.4-26.42-19.4
	c-7.58,0-14.45,3.05-19.45,7.98c-2.6,2.57-4.69,5.64-6.12,9.06c-0.81-0.16-1.63-0.3-2.46-0.43c-2.91-0.44-5.89-0.67-8.92-0.67
	c-23.36,0-43.56,13.53-53.19,33.18c-0.93,1.9-1.76,3.86-2.48,5.88c-0.93,2.54-1.68,5.17-2.25,7.87c-3.87-2.33-8.4-3.67-13.25-3.67
	c-14.22,0-25.75,11.53-25.75,25.75c0,1.47,0.13,2.9,0.37,4.3c-8.4-10.64-21.41-17.48-36.01-17.48c-12.83,0-24.42,5.28-32.75,13.76
	c-2.76-7.68-7.68-14.35-14.03-19.24c-7.15-5.52-16.12-8.8-25.85-8.8c-9.13,0-17.57,2.89-24.48,7.81c-1.14,0.8-2.24,1.66-3.29,2.58
	c0.57-2.12,0.88-4.35,0.88-6.65c0-14.07-11.4-25.48-25.47-25.48c-9.81,0-18.32,5.55-22.58,13.68c-4-6.65-11.29-11.1-19.62-11.1
	c-4.09,0-7.93,1.08-11.26,2.96c1.86-3.16,2.95-6.83,2.95-10.76c0-11.75-9.52-21.27-21.27-21.27c-3.66,0-7.09,0.92-10.1,2.55
	c-0.02,0-0.03,0.01-0.05,0.02c-0.01-0.02-0.02-0.05-0.02-0.07c-4.62-2.79-10.02-4.39-15.79-4.39c-10.89,0-20.46,5.71-26,14.36
	c-0.44,0.85-0.88,1.7-1.34,2.53c-0.04-0.01-0.07-0.03-0.11-0.04c-2.3-0.87-4.77-1.35-7.37-1.35c-11.58,0-20.97,9.39-20.97,20.96
	c0,0.51,0.04,1,0.08,1.49c-2.95-0.96-6.1-1.48-9.36-1.48c-9.22,0-17.47,4.12-23.01,10.62c-2.91-9.74-11.94-16.85-22.63-16.85
	c-13.04,0-23.61,10.58-23.61,23.62c0,1.1,0.08,2.18,0.22,3.24c-1.66-1.16-3.42-2.19-5.26-3.08c-5.13-2.5-10.9-3.9-17-3.9
	c-9.76,0-18.68,3.58-25.52,9.51c-6.04,5.23-10.45,12.27-12.4,20.28c-4.98-7.01-13.15-11.59-22.41-11.59
	c-7.24,0-13.82,2.8-18.72,7.38c-5.61-12.6-18.24-21.4-32.93-21.4c-15.67,0-29.01,10.02-33.96,24c-4.29-5.64-11.06-9.28-18.69-9.28
	c-6.83,0-12.97,2.92-17.26,7.57c-2.58-33.25-30.35-59.43-64.26-59.43c-17.44,0-33.26,6.94-44.87,18.19
	c-0.69-22.78-19.36-41.03-42.3-41.03c-14.4,0-27.1,7.19-34.75,18.16c-9.53-17.93-28.39-30.15-50.12-30.15
	c-4.44,0-8.76,0.53-12.9,1.49c0.06-1.21,0.11-2.42,0.11-3.65c0-18.99-8.3-36.03-21.46-47.72c2.03-3.86,3.18-8.24,3.18-12.9
	c0-15.31-12.41-27.72-27.72-27.72c-8.28,0-15.71,3.63-20.79,9.38C41.3,343.09,22.39,328.52,0,327.95v290.39h1400V320.17
	C1395.13,318.25,1389.83,317.19,1384.28,317.19z"/>
<g>
	<path class="st5" d="M744.88,232.05c-0.67,4.21-1.97,8.13-3.76,11.66c-0.03,0.06-0.06,0.12-0.09,0.17
		c-0.39,0.66-1.12,1.04-1.88,0.89c-0.63-0.12-1.13-0.57-1.36-1.16c-0.03-0.06-0.05-0.12-0.07-0.18
		c-4.34-11.54-13.87-20.48-25.99-22.77l5.12-31.99C735.59,192.23,748.14,211.65,744.88,232.05z"/>
	<path class="st6" d="M744.88,232.05c-0.67,4.21-1.97,8.13-3.76,11.66c-0.03,0.06-0.06,0.12-0.09,0.17
		c-0.39,0.66-1.12,1.04-1.88,0.89c-0.63-0.12-1.13-0.57-1.36-1.16c-0.03-0.06-0.05-0.12-0.07-0.18
		c-4.34-11.54-13.87-20.48-25.99-22.77l5.12-31.99C735.59,192.23,748.14,211.65,744.88,232.05z"/>
	<path class="st5" d="M655.13,232.05c0.67,4.21,1.96,8.13,3.76,11.66c0.03,0.06,0.06,0.12,0.09,0.17c0.4,0.66,1.12,1.04,1.88,0.89
		c0.63-0.12,1.13-0.57,1.36-1.16c0.03-0.06,0.05-0.12,0.07-0.18c4.34-11.54,13.87-20.48,25.99-22.77l-5.12-31.99
		C664.41,192.23,651.86,211.65,655.13,232.05z"/>
	<path class="st7" d="M657.05,233.99c0.63,3.88,1.77,7.51,3.36,10.82c-0.59-0.04-1.12-0.39-1.44-0.92
		c-0.03-0.05-0.06-0.11-0.09-0.17c-1.79-3.53-3.09-7.45-3.76-11.65c-3.26-20.41,9.28-39.83,28.03-43.38l0.37,2.27
		C665.64,195.25,653.88,214.15,657.05,233.99z"/>
	<path class="st6" d="M742.95,233.99c-0.63,3.88-1.77,7.51-3.36,10.82c0.59-0.04,1.12-0.39,1.44-0.92c0.03-0.05,0.06-0.11,0.09-0.17
		c1.79-3.53,3.09-7.45,3.76-11.65c3.26-20.41-9.28-39.83-28.03-43.38l-0.37,2.27C734.36,195.25,746.12,214.15,742.95,233.99z"/>
	<path class="st8" d="M737.22,155.68c0,30.38-7.69,56.86-19.06,70.72l-0.03,0.03c-5.11,5.08-11.85,4.48-18.14,4.48
		c-6.28,0-12.98,0.66-18.15-4.5c-11.38-13.86-19.06-40.34-19.06-70.72c0-34.4,22.02-63.79,32.18-75.54c0.24-0.28,0.47-0.55,0.7-0.8
		c1.12-1.08,2.65-1.75,4.33-1.75c1.68,0,3.21,0.67,4.34,1.75c0.21,0.24,0.43,0.49,0.66,0.75c0.01,0.01,0.02,0.03,0.03,0.04
		C715.19,91.86,737.22,121.26,737.22,155.68z"/>
	<path class="st6" d="M679.7,223.57c-0.7,0.36-1.39,0.73-2.06,1.14c-4.95-6.62-9.13-15.68-12.17-26.41l2.28-2.13l0.02-0.02
		C670.69,207.2,674.8,216.61,679.7,223.57z"/>
	<path class="st6" d="M720.3,223.57c0.7,0.36,1.39,0.73,2.06,1.14c4.95-6.62,9.13-15.68,12.17-26.41l-2.28-2.13l-0.02-0.02
		C729.31,207.2,725.2,216.61,720.3,223.57z"/>
	<path class="st5" d="M720.78,101.95c-0.86,0.29-1.73,0.54-2.61,0.79c-5.78,1.62-11.87,2.48-18.17,2.48
		c-6.28,0-12.37-0.86-18.15-2.48c-0.89-0.25-1.76-0.51-2.64-0.79c1.14-1.92,2.3-3.76,3.45-5.5c4.58-6.97,9.05-12.55,12.31-16.31
		c0.24-0.28,0.47-0.55,0.7-0.8c1.12-1.08,2.65-1.75,4.33-1.75c1.68,0,3.21,0.67,4.34,1.75c0.21,0.24,0.43,0.49,0.66,0.75
		c0.01,0.01,0.02,0.03,0.03,0.04c3.26,3.76,7.74,9.34,12.31,16.32C718.48,98.19,719.64,100.03,720.78,101.95z"/>
	<path class="st5" d="M683.77,146.12c0-8.96,7.27-16.23,16.23-16.23c8.96,0,16.23,7.27,16.23,16.23c0,8.96-7.26,16.23-16.23,16.23
		C691.04,162.34,683.77,155.08,683.77,146.12z"/>
	<path class="st5" d="M688.19,157.24c-6-6.36-5.89-16.38,0.33-22.6c6.22-6.22,16.24-6.34,22.6-0.33c6,6.36,5.89,16.38-0.33,22.6
		C704.56,163.13,694.55,163.24,688.19,157.24z"/>
	<path class="st9" d="M711.47,134.64c0.12,0.12,0.22,0.22,0.33,0.35c-6.36-6-16.38-5.89-22.6,0.33c-6.22,6.22-6.34,16.24-0.33,22.6
		c-0.12-0.11-0.23-0.22-0.35-0.33c-6.34-6.34-6.34-16.61,0-22.95C694.86,128.3,705.13,128.3,711.47,134.64z"/>
	<path class="st6" d="M688.52,157.59c-0.12-0.12-0.23-0.23-0.33-0.35c6.36,6,16.38,5.89,22.6-0.33c6.22-6.22,6.34-16.24,0.33-22.6
		c0.12,0.11,0.23,0.22,0.35,0.33c6.34,6.34,6.34,16.61,0,22.95C705.13,163.93,694.86,163.93,688.52,157.59z"/>
	<path class="st10" d="M692.92,155.92c-5.56-3.95-6.86-11.69-2.91-17.25c3.95-5.56,11.69-6.86,17.25-2.91
		c5.56,3.95,6.86,11.69,2.91,17.25C706.21,158.57,698.48,159.87,692.92,155.92z"/>
	<path class="st7" d="M710.95,153.56c-3.95,5.56-11.69,6.86-17.25,2.91c-0.13-0.1-0.26-0.18-0.38-0.3
		c5.52,3.63,12.98,2.25,16.84-3.17c3.86-5.42,2.71-12.93-2.53-16.95c0.14,0.08,0.27,0.17,0.4,0.26
		C713.6,140.27,714.91,148,710.95,153.56z"/>
	<g>
		<defs>
			<filter id="Adobe_OpacityMaskFilter_2_" filterUnits="userSpaceOnUse" x="683.99" y="233.37" width="32.01" height="39.16">
				<feColorMatrix  type="matrix" values="1 0 0 0 0  0 1 0 0 0  0 0 1 0 0  0 0 0 1 0"/>
			</filter>
		</defs>
		<mask maskUnits="userSpaceOnUse" x="683.99" y="233.37" width="32.01" height="39.16" id="SVGID_4_">
			<g class="st11">
				<defs>
					<filter id="Adobe_OpacityMaskFilter_3_" filterUnits="userSpaceOnUse" x="683.99" y="233.37" width="32.01" height="39.16">
						<feFlood  style="flood-color:white;flood-opacity:1" result="back"/>
						<feBlend  in="SourceGraphic" in2="back" mode="normal"/>
					</filter>
				</defs>
				<mask maskUnits="userSpaceOnUse" x="683.99" y="233.37" width="32.01" height="39.16" id="SVGID_4_">
					<g class="st12">
					</g>
				</mask>
				<linearGradient id="SVGID_5_" gradientUnits="userSpaceOnUse" x1="699.9995" y1="272.5341" x2="699.9995" y2="233.3729">
					<stop  offset="0.1882" style="stop-color:#FFFFFF"/>
					<stop  offset="0.2659" style="stop-color:#EEEEEE"/>
					<stop  offset="0.4204" style="stop-color:#C1C1C1"/>
					<stop  offset="0.6372" style="stop-color:#787878"/>
					<stop  offset="0.9056" style="stop-color:#161616"/>
					<stop  offset="0.9624" style="stop-color:#000000"/>
				</linearGradient>
				<path class="st13" d="M716.01,247.64c0,13.18-12.44,24.89-16.01,24.89c-3.28,0-16.01-11.71-16.01-24.89
					c0-13.18,7.17-14.27,16.01-14.27C708.84,233.37,716.01,234.47,716.01,247.64z"/>
			</g>
		</mask>
		<linearGradient id="SVGID_6_" gradientUnits="userSpaceOnUse" x1="699.9995" y1="272.5341" x2="699.9995" y2="233.3729">
			<stop  offset="0.1882" style="stop-color:#F76D31"/>
			<stop  offset="0.9624" style="stop-color:#F76D31"/>
		</linearGradient>
		<path class="st14" d="M716.01,247.64c0,13.18-12.44,24.89-16.01,24.89c-3.28,0-16.01-11.71-16.01-24.89
			c0-13.18,7.17-14.27,16.01-14.27C708.84,233.37,716.01,234.47,716.01,247.64z"/>
		<defs>
			<filter id="Adobe_OpacityMaskFilter_4_" filterUnits="userSpaceOnUse" x="686.96" y="234.34" width="26.09" height="31.91">
				<feColorMatrix  type="matrix" values="1 0 0 0 0  0 1 0 0 0  0 0 1 0 0  0 0 0 1 0"/>
			</filter>
		</defs>
		<mask maskUnits="userSpaceOnUse" x="686.96" y="234.34" width="26.09" height="31.91" id="SVGID_7_">
			<g class="st15">
				<defs>
					<filter id="Adobe_OpacityMaskFilter_5_" filterUnits="userSpaceOnUse" x="686.96" y="234.34" width="26.09" height="31.91">
						<feFlood  style="flood-color:white;flood-opacity:1" result="back"/>
						<feBlend  in="SourceGraphic" in2="back" mode="normal"/>
					</filter>
				</defs>
				<mask maskUnits="userSpaceOnUse" x="686.96" y="234.34" width="26.09" height="31.91" id="SVGID_7_">
					<g class="st16">
					</g>
				</mask>
				<linearGradient id="SVGID_8_" gradientUnits="userSpaceOnUse" x1="700" y1="266.2518" x2="700" y2="234.3383">
					<stop  offset="0.1882" style="stop-color:#FFFFFF"/>
					<stop  offset="0.3486" style="stop-color:#BBBBBB"/>
					<stop  offset="0.5193" style="stop-color:#797979"/>
					<stop  offset="0.6745" style="stop-color:#454545"/>
					<stop  offset="0.8085" style="stop-color:#1F1F1F"/>
					<stop  offset="0.9161" style="stop-color:#080808"/>
					<stop  offset="0.9839" style="stop-color:#000000"/>
				</linearGradient>
				<path class="st17" d="M713.04,245.97c0,10.74-10.14,20.28-13.04,20.28c-2.68,0-13.04-9.55-13.04-20.28
					c0-10.74,5.84-11.63,13.04-11.63C707.2,234.34,713.04,235.23,713.04,245.97z"/>
			</g>
		</mask>
		<linearGradient id="SVGID_9_" gradientUnits="userSpaceOnUse" x1="700" y1="266.2518" x2="700" y2="234.3383">
			<stop  offset="0.1882" style="stop-color:#FFA200"/>
			<stop  offset="0.4259" style="stop-color:#FF9E14"/>
			<stop  offset="0.7677" style="stop-color:#FF9A2B"/>
			<stop  offset="0.9839" style="stop-color:#FF9933"/>
		</linearGradient>
		<path class="st18" d="M713.04,245.97c0,10.74-10.14,20.28-13.04,20.28c-2.68,0-13.04-9.55-13.04-20.28
			c0-10.74,5.84-11.63,13.04-11.63C707.2,234.34,713.04,235.23,713.04,245.97z"/>
		<defs>
			<filter id="Adobe_OpacityMaskFilter_6_" filterUnits="userSpaceOnUse" x="690.31" y="235.3" width="19.39" height="23.71">
				<feColorMatrix  type="matrix" values="1 0 0 0 0  0 1 0 0 0  0 0 1 0 0  0 0 0 1 0"/>
			</filter>
		</defs>
		<mask maskUnits="userSpaceOnUse" x="690.31" y="235.3" width="19.39" height="23.71" id="SVGID_10_">
			<g class="st19">
				<defs>
					<filter id="Adobe_OpacityMaskFilter_7_" filterUnits="userSpaceOnUse" x="690.31" y="235.3" width="19.39" height="23.71">
						<feFlood  style="flood-color:white;flood-opacity:1" result="back"/>
						<feBlend  in="SourceGraphic" in2="back" mode="normal"/>
					</filter>
				</defs>
				<mask maskUnits="userSpaceOnUse" x="690.31" y="235.3" width="19.39" height="23.71" id="SVGID_10_">
					<g class="st20">
					</g>
				</mask>
				<linearGradient id="SVGID_11_" gradientUnits="userSpaceOnUse" x1="699.9998" y1="259.0155" x2="699.9998" y2="235.3036">
					<stop  offset="0.1129" style="stop-color:#FFFFFF"/>
					<stop  offset="0.1581" style="stop-color:#ECECEC"/>
					<stop  offset="0.3404" style="stop-color:#A6A6A6"/>
					<stop  offset="0.5125" style="stop-color:#6B6B6B"/>
					<stop  offset="0.6692" style="stop-color:#3D3D3D"/>
					<stop  offset="0.8077" style="stop-color:#1B1B1B"/>
					<stop  offset="0.9226" style="stop-color:#070707"/>
					<stop  offset="1" style="stop-color:#000000"/>
				</linearGradient>
				<path class="st21" d="M709.69,243.94c0,7.98-7.54,15.07-9.69,15.07c-1.99,0-9.69-7.09-9.69-15.07c0-7.98,4.34-8.64,9.69-8.64
					C705.35,235.3,709.69,235.96,709.69,243.94z"/>
			</g>
		</mask>
		<linearGradient id="SVGID_12_" gradientUnits="userSpaceOnUse" x1="699.9998" y1="259.0155" x2="699.9998" y2="235.3036">
			<stop  offset="0.1129" style="stop-color:#FFDE52"/>
			<stop  offset="1" style="stop-color:#FFDE52"/>
		</linearGradient>
		<path class="st22" d="M709.69,243.94c0,7.98-7.54,15.07-9.69,15.07c-1.99,0-9.69-7.09-9.69-15.07c0-7.98,4.34-8.64,9.69-8.64
			C705.35,235.3,709.69,235.96,709.69,243.94z"/>
	</g>
	<g class="st23">
		<path class="st24" d="M705.09,206.73c0,3.06-2.28,38.08-5.09,38.08c-2.81,0-5.09-35.02-5.09-38.08c0-3.06,0-10.84,5.09-10.84
			C705.09,195.89,705.09,203.67,705.09,206.73z"/>
		<path class="st25" d="M700,239.52c-1.65-8.81-3.16-29.2-3.16-32.79c0-3.83,0.33-8.91,3.16-8.91c2.83,0,3.16,5.09,3.16,8.91
			C703.16,210.32,701.65,230.71,700,239.52z"/>
		<path class="st25" d="M700,223.99c-0.73-7.69-1.23-15.23-1.23-17.26c0-6.57,1.22-6.98,1.23-6.98c0.01,0,1.22,0.41,1.22,6.98
			C701.22,208.75,700.73,216.29,700,223.99z"/>
	</g>
	<g class="st23">
		<path class="st26" d="M737.22,155.68c0,30.39-7.69,56.86-19.05,70.73l-0.03,0.02c-1.84,1.83-3.91,2.93-6.08,3.58
			c7.79-17.69,14.91-44.44,14.91-75.74c0-25.24-14.64-57.98-24.61-76.21c0.94,0.37,1.62,0.94,1.97,1.29
			c0.21,0.23,0.43,0.49,0.66,0.75c0.01,0.01,0.02,0.02,0.03,0.04C715.18,91.86,737.22,121.26,737.22,155.68z"/>
		<path class="st27" d="M737.22,155.68c0,25.55-5.43,48.33-13.92,63.17c-1.6,2.82-3.32,5.35-5.13,7.56l-0.03,0.02
			c-0.09,0.09-0.17,0.16-0.26,0.24c10.24-21.94,14.89-46.71,14.89-72.64c0-20.73-13.99-53.39-26.36-72.27
			c1.66,1.97,3.55,4.33,5.57,7.03C722.85,103.37,737.22,127.89,737.22,155.68z"/>
	</g>
	<g class="st23">
		<path class="st28" d="M662.79,155.68c0,30.39,7.69,56.86,19.06,70.73l0.03,0.02c1.84,1.83,3.91,2.93,6.08,3.58
			c-7.79-17.69-14.91-44.44-14.91-75.74c0-25.24,14.64-57.98,24.61-76.21c-0.94,0.37-1.62,0.94-1.97,1.29
			c-0.21,0.23-0.44,0.49-0.66,0.75c-0.01,0.01-0.02,0.02-0.03,0.04C684.83,91.86,662.79,121.26,662.79,155.68z"/>
		<path class="st25" d="M662.79,155.68c0,25.55,5.43,48.33,13.92,63.17c1.6,2.82,3.32,5.35,5.13,7.56l0.03,0.02
			c0.09,0.09,0.17,0.16,0.26,0.24c-10.24-21.94-14.89-46.71-14.89-72.64c0-20.73,13.99-53.39,26.36-72.27
			c-1.66,1.97-3.55,4.33-5.57,7.03C677.16,103.37,662.79,127.89,662.79,155.68z"/>
	</g>
	<path class="st29" d="M706.23,135.12l-16.88,16.87c-0.32-0.56-0.59-1.14-0.82-1.74l15.96-15.96
		C705.09,134.51,705.67,134.78,706.23,135.12z"/>
	<path class="st30" d="M710.78,139.6L710.78,139.6l-16.92,16.92c-0.32-0.18-0.64-0.39-0.94-0.61c-1.01-0.71-1.88-1.56-2.61-2.5
		l17.36-17.36C708.96,137.05,710,138.27,710.78,139.6z"/>
</g>
<title>Rocketnotail</title>
<g>
	<g>
		
			<linearGradient id="SVGID_13_" gradientUnits="userSpaceOnUse" x1="2061.9172" y1="832.0968" x2="2061.9172" y2="721.2067" gradientTransform="matrix(1 0 0 -1 -1434.86 970.8137)">
			<stop  offset="0" style="stop-color:#8059DC"/>
			<stop  offset="1" style="stop-color:#6D56CE"/>
		</linearGradient>
		<path class="st31" d="M641.68,138.72c-5.74,4.78-30.63,52.86-33.62,69.27c-1.51,8.31-1.38,31.44-0.24,40.19
			c1.22,9.36,16.18-30.29,39.34-30.29L641.68,138.72z"/>
		
			<linearGradient id="SVGID_14_" gradientUnits="userSpaceOnUse" x1="2075.5115" y1="833.0668" x2="2075.5115" y2="750.3868" gradientTransform="matrix(1 0 0 -1 -1434.86 970.8137)">
			<stop  offset="0" style="stop-color:#714EC2"/>
			<stop  offset="1" style="stop-color:#604CB5"/>
		</linearGradient>
		<path class="st32" d="M641.68,138.72c-1.43,1.19-4.06,5.09-7.25,10.52c-1.27,11,1.6,38.59,7.61,69.3
			c1.67-0.43,3.39-0.65,5.12-0.65L641.68,138.72z"/>
	</g>
	<g>
		
			<linearGradient id="SVGID_15_" gradientUnits="userSpaceOnUse" x1="618.0649" y1="-191.5876" x2="618.0649" y2="-231.7918" gradientTransform="matrix(6.123234e-17 -1 -1 -6.123234e-17 561.2568 812.2269)">
			<stop  offset="0" style="stop-color:#643FB3"/>
			<stop  offset="1" style="stop-color:#553FAF"/>
		</linearGradient>
		<path class="st33" d="M758.31,138.72c5.74,4.78,30.64,52.86,33.62,69.27c1.51,8.31,1.38,31.44,0.24,40.19
			c-1.22,9.36-16.18-30.29-39.33-30.29L758.31,138.72z"/>
		
			<linearGradient id="SVGID_16_" gradientUnits="userSpaceOnUse" x1="8798.0576" y1="833.0668" x2="8798.0576" y2="750.3868" gradientTransform="matrix(-1 0 0 -1 9557.4102 970.8137)">
			<stop  offset="0" style="stop-color:#57379C"/>
			<stop  offset="1" style="stop-color:#4A3798"/>
		</linearGradient>
		<path class="st34" d="M758.31,138.72c1.43,1.19,4.06,5.09,7.25,10.52c1.27,11-1.6,38.59-7.61,69.3c-1.67-0.43-3.39-0.65-5.11-0.65
			L758.31,138.72z"/>
	</g>
	<g>
		
			<linearGradient id="SVGID_17_" gradientUnits="userSpaceOnUse" x1="1971.8845" y1="1005.5417" x2="2097.5344" y2="1005.5417" gradientTransform="matrix(1 0 0 -1 -1334.7001 1120.2336)">
			<stop  offset="0.04" style="stop-color:#FDFCFF"/>
			<stop  offset="0.23" style="stop-color:#F3F1FD"/>
			<stop  offset="0.56" style="stop-color:#D7D4F9"/>
			<stop  offset="0.96" style="stop-color:#AEA9F2"/>
		</linearGradient>
		<path class="st35" d="M700,11.52c-26.51,0-62.82,58.82-62.82,132.35c0,37.83,10,74,10,74h105.65c0,0,10-36.19,10-74
			C762.8,70.34,726.5,11.52,700,11.52z"/>
		<path class="st36" d="M711.75,14.99c17.78,25.53,29.3,63.16,27.36,114.87c-1.69,45-17.19,88-17.19,88h30.91c0,0,10-36.19,10-74
			C762.8,80.79,736.08,28.57,711.75,14.99z"/>
		<g>
			
				<linearGradient id="SVGID_18_" gradientUnits="userSpaceOnUse" x1="565.5855" y1="314.9919" x2="686.4555" y2="314.9919" gradientTransform="matrix(-1 0 0 1 1311.99 -87.84)">
				<stop  offset="0.04" style="stop-color:#AEA9F2"/>
				<stop  offset="0.37" style="stop-color:#D0CDF7"/>
				<stop  offset="0.75" style="stop-color:#F2F1FD"/>
				<stop  offset="0.96" style="stop-color:#FFFFFF"/>
			</linearGradient>
			<path class="st37" d="M742.62,217.89h-85.24c1.45,6.47,3,12.66,4.53,18.53h76.17C739.65,230.55,741.18,224.4,742.62,217.89z"/>
			<path class="st38" d="M742.62,217.89h-31.67c-0.95,6.25-2.29,12.44-4,18.53h31.13C739.65,230.55,741.18,224.4,742.62,217.89z"/>
		</g>
		<g class="st39">
			
				<linearGradient id="SVGID_19_" gradientUnits="userSpaceOnUse" x1="1992.0845" y1="900.3467" x2="2077.3245" y2="900.3467" gradientTransform="matrix(1 0 0 -1 -1334.7001 1120.2336)">
				<stop  offset="0.04" style="stop-color:#C6BFEC"/>
				<stop  offset="0.2" style="stop-color:#BCB4E7"/>
				<stop  offset="0.47" style="stop-color:#A197DB"/>
				<stop  offset="0.82" style="stop-color:#7568C8"/>
				<stop  offset="0.96" style="stop-color:#6254BF"/>
			</linearGradient>
			<path class="st40" d="M742.62,217.89h-85.24c0.3,1.36,0.62,2.66,0.93,4h83.37C741.99,220.55,742.31,219.25,742.62,217.89z"/>
		</g>
	</g>
	<g>
		
			<linearGradient id="SVGID_20_" gradientUnits="userSpaceOnUse" x1="1940.8928" y1="630.6552" x2="1978.9734" y2="592.5745" gradientTransform="matrix(0 -1 -1 0 1311.54 2049.5469)">
			<stop  offset="0" style="stop-color:#6D56CE"/>
			<stop  offset="1" style="stop-color:#7A59DC"/>
		</linearGradient>
		<circle class="st41" cx="700.01" cy="89.53" r="26.92"/>
		<path class="st42" d="M706.35,110.09c-14.85,0.02-26.9-12.01-26.92-26.86c-0.01-5.6,1.74-11.07,4.99-15.63
			c-12.12,8.59-14.99,25.38-6.4,37.5s25.38,14.99,37.5,6.4c2.48-1.76,4.64-3.92,6.4-6.4C717.38,108.35,711.94,110.09,706.35,110.09z
			"/>
		
			<linearGradient id="SVGID_21_" gradientUnits="userSpaceOnUse" x1="1906.0665" y1="-245.5124" x2="1906.0665" y2="-304.5525" gradientTransform="matrix(0.71 -0.71 -0.71 -0.71 -846.6909 1249.446)">
			<stop  offset="0" style="stop-color:#EDEBFF"/>
			<stop  offset="1" style="stop-color:#FAF7FF"/>
		</linearGradient>
		<path class="st43" d="M700,119.06c-16.31,0.01-29.54-13.22-29.55-29.53c-0.01-16.31,13.22-29.54,29.53-29.55
			c16.31-0.01,29.54,13.22,29.55,29.53c0,0.01,0,0.01,0,0.02C729.51,105.83,716.3,119.03,700,119.06z M700,65.22
			c-13.43-0.01-24.31,10.87-24.32,24.3c-0.01,13.43,10.87,24.31,24.3,24.32c13.43,0.01,24.31-10.87,24.32-24.3c0,0,0-0.01,0-0.01
			C724.29,76.11,713.42,65.24,700,65.22z"/>
		
			<linearGradient id="SVGID_22_" gradientUnits="userSpaceOnUse" x1="1882.5981" y1="-272.3706" x2="1941.6382" y2="-272.3706" gradientTransform="matrix(0.71 -0.71 -0.71 -0.71 -846.6909 1249.446)">
			<stop  offset="0" style="stop-color:#9B93DB"/>
			<stop  offset="1" style="stop-color:#ECE3FF"/>
		</linearGradient>
		<path class="st44" d="M700,119.06c16.31,0,29.54-13.23,29.54-29.54S716.32,59.98,700,59.98c-16.31,0-29.54,13.23-29.54,29.54
			c0,0,0,0.01,0,0.01C670.49,105.83,683.7,119.04,700,119.06z M700,61.06c15.75,0,28.51,12.76,28.51,28.51s-12.76,28.51-28.51,28.51
			c-15.75,0-28.51-12.76-28.51-28.51c-0.01-15.76,12.75-28.54,28.51-28.55c0,0,0,0,0,0V61.06z"/>
		<path class="st45" d="M710.78,102.09c2.65,0,4.8-2.15,4.8-4.8s-2.15-4.8-4.8-4.8c-2.65,0-4.8,2.15-4.8,4.8
			C705.98,99.94,708.13,102.09,710.78,102.09L710.78,102.09z"/>
		<path class="st45" d="M701.65,104.05c1.1,0,2-0.9,2-2s-0.9-2-2-2s-2,0.9-2,2S700.55,104.05,701.65,104.05z"/>
	</g>
</g>
<g>
	<path class="st46" d="M829.98,642.07c2.04,15.29,15.13,27.08,30.98,27.08c4.36,0,8.52-0.9,12.29-2.51c-0.12,0.82-0.2,1.66-0.2,2.51
		c0,9.48,7.68,17.16,17.16,17.16c6.08,0,11.41-3.17,14.46-7.94c9.87,10.62,23.94,17.27,39.58,17.27c8.98,0,17.45-2.21,24.9-6.09
		c9.73,22.38,32.01,38.03,57.97,38.03c5.35,0,10.54-0.67,15.5-1.93c0.01,0,0.01,0,0.01,0c4.88-1.23,9.55-3.05,13.92-5.35
		c2.38,3.57,5.28,6.77,8.59,9.48c7.48,6.14,17.04,9.82,27.46,9.82c4,0,7.87-0.55,11.55-1.57c4.09,31.29,30.83,55.45,63.23,55.45
		c12.33,0,23.83-3.51,33.58-9.56c9.43,17.29,27.78,29.03,48.87,29.03c0.37,0,0.74-0.02,1.12-0.03v0.03
		c0,26.12,18.38,47.94,42.9,53.25c7.89,27.39,33.12,47.44,63.06,47.44c16.33,0,31.26-5.97,42.74-15.83v-99.59
		c-11.48-9.86-26.41-15.83-42.74-15.83c-2.08,0-4.13,0.11-6.15,0.3c-9.78-14.61-26.42-24.23-45.32-24.23h-0.03
		c0.01-0.37,0.03-0.74,0.03-1.12c0-30.71-24.9-55.61-55.61-55.61c-8.19,0-15.95,1.78-22.95,4.96c-9.23-23.87-32.38-40.8-59.5-40.8
		c-13.35,0-25.74,4.11-35.98,11.12c-7.09-14.25-21.8-24.05-38.8-24.05c-1.12,0-2.22,0.05-3.32,0.14
		c-5.33-29.51-31.12-51.89-62.16-51.89c-13.8,0-26.55,4.43-36.94,11.93c-9.53-15.35-26.54-25.57-45.93-25.57
		c-26.06,0-47.81,18.45-52.91,42.99c-3.29-13.72-15.64-23.93-30.38-23.93c-17.27,0-31.26,14-31.26,31.26
		C829.7,639.31,829.79,640.71,829.98,642.07z"/>
	<path class="st46" d="M-0.35,956.02V795.36c13.2-15.72,33.01-25.72,55.15-25.72c31.2,0,57.75,19.85,67.75,47.6
		c2.53-1.28,5.23-2.26,8.07-2.89c-10.67-11.96-17.16-27.72-17.16-45.01c0-37.37,30.29-67.66,67.65-67.66
		c22.57,0,42.54,11.06,54.84,28.05c9.81-18.79,29.47-31.63,52.15-31.63c18.9,0,35.71,8.93,46.47,22.79
		c-1.48-4.33-2.29-8.96-2.29-13.78c0-23.59,19.13-42.72,42.72-42.72c14.41,0,27.15,7.15,34.89,18.09c0.63-0.48,1.29-0.94,1.97-1.37
		c-13.2-10.78-21.63-27.18-21.63-45.55c0-32.47,26.32-58.78,58.79-58.78c28.78,0,52.71,20.68,57.78,47.99
		c1.07-0.12,2.15-0.19,3.26-0.19c1.35,0,2.68,0.1,3.98,0.29c2.74-15.58,16.32-27.41,32.68-27.41c18.33,0,33.19,14.85,33.19,33.18
		c0,1.7-0.13,3.36-0.37,4.99c-2.41,15.96-16.18,28.2-32.82,28.2c-3.44,0-6.76-0.52-9.88-1.5c-3.88,11.07-14.4,19-26.78,19
		c-6.66,0-12.78-2.3-17.62-6.14c-10.75,11.77-26.23,19.16-43.42,19.16c-0.39,0-0.77-0.02-1.16-0.03c0.75,2.34,1.16,4.82,1.16,7.41
		c0,13.42-10.88,24.3-24.3,24.3c-3.71,0-7.22-0.83-10.36-2.32c-6.48,15.34-21.67,26.11-39.36,26.11c-4.03,0-7.94-0.56-11.63-1.6
		c-8.15-2.31-15.3-6.97-20.69-13.2c2.21,5.49,3.62,11.38,4.07,17.54c0.11,1.43,0.16,2.89,0.16,4.35c0,32.49-26.33,58.82-58.81,58.82
		c-17.79,0-33.73-7.91-44.51-20.4C233.4,819.8,209.27,837,181.11,837c-3.7,0-7.33-0.31-10.87-0.88c1.32,3.64,2.04,7.56,2.04,11.66
		c0,18.91-15.33,34.24-34.24,34.24c-7.38,0-14.21-2.35-19.8-6.32c-12.15,22.59-36,37.94-63.44,37.94c-4.23,0-8.36-0.38-12.39-1.08
		C40.27,935.33,22.33,953.52-0.35,956.02z"/>
	<path class="st47" d="M7.28,913.64c49.2,0,89.67-37.4,94.52-85.33c3.79,0.63,7.68,0.98,11.66,0.98c39.11,0,70.82-31.71,70.82-70.83
		c0-0.32-0.02-0.63-0.02-0.95c8.53,4.49,18.25,7.05,28.57,7.05c10.4,0,20.2-2.6,28.79-7.16c10.87,14.13,27.95,23.24,47.16,23.24
		c21.65,0,40.6-11.56,51.01-28.85c2.24,0.49,4.57,0.76,6.96,0.77h0.16c5.99,0,11.61-1.57,16.46-4.34
		c10.1-5.73,16.91-16.59,16.91-29.04c0-6.44-1.83-12.46-5-17.56c5.84,1.84,12.06,2.84,18.5,2.84c31.66,0,57.71-23.92,61.12-54.67
		c8.6,8.99,20.71,14.6,34.13,14.6c17.11,0,32.1-9.09,40.39-22.71c6.11,4.53,13.67,7.21,21.86,7.21c11.37,0,21.52-5.16,28.26-13.26
		c0.73-0.88,1.42-1.79,2.07-2.74c2.35,0.32,4.74,0.5,7.17,0.5c2.61,0,5.18-0.19,7.69-0.56c7.89,5.73,17.59,9.13,28.09,9.13
		c20.77,0,38.45-13.26,45.04-31.77c12.68,4.25,26.25,6.56,40.36,6.56c9.98,0,19.7-1.16,29.01-3.34
		c9.43,16.28,27.02,27.23,47.18,27.23c11.21,0,21.63-3.38,30.29-9.18c3.66,4.46,8.27,8.1,13.54,10.61
		c5.13,2.46,10.87,3.82,16.93,3.82c8.59,0,16.54-2.76,23.01-7.43c8.01,16.95,25.25,28.68,45.24,28.68c7.1,0,13.84-1.49,19.96-4.15
		c11.85,8.58,26.41,13.65,42.16,13.65c19.78,0,37.69-7.98,50.71-20.89c0.6,8.01,2.67,15.61,5.96,22.52
		c-4.28,5.47-6.83,12.35-6.83,19.83c0,11.67,6.21,21.9,15.5,27.55c0.01,0,0.01,0,0.01,0c4.87,2.96,10.59,4.66,16.7,4.66
		c1.98,0,3.93-0.18,5.81-0.53c9.33-1.7,17.25-7.42,21.92-15.31c1.48,0.1,2.97,0.17,4.47,0.17c15.66,0,29.99-5.65,41.08-15.01
		c5,17.5,19.24,31.09,37.11,35.16c-0.3,1.56-0.46,3.16-0.46,4.81c0,13.78,11.17,24.96,24.95,24.96c11.39,0,20.99-7.63,23.99-18.06
		c6.76,6.37,14.86,11.32,23.83,14.42c-5.96,5.61-9.68,13.56-9.68,22.38c0,16.99,13.76,30.75,30.74,30.75
		c4.13,0,8.06-0.81,11.65-2.29c6.89,7.79,16.07,13.49,26.5,16.03c-0.01,0.5-0.04,1-0.04,1.5c0,32.43,26.3,58.73,58.73,58.73
		c15.32,0,29.27-5.86,39.72-15.47V552.09h-1400v361.24C2.17,913.54,4.71,913.64,7.28,913.64z"/>
</g>
<path class="st4" d="M15.1,853.24c23.64,0,42.8-19.16,42.8-42.8c0-7.07-1.73-13.73-4.76-19.61c8.94-5.02,16.49-12.21,21.93-20.87
	c2.42-3.86,4.43-8.01,5.95-12.38c4.72,1.84,9.85,2.87,15.23,2.87c6.49,0,12.63-1.48,18.11-4.11c8.08-3.88,14.72-10.28,18.91-18.18
	c9.12,7.44,20.77,11.9,33.45,11.9c22.54,0,41.78-14.06,49.45-33.88c2.28,0.19,4.58,0.31,6.9,0.31c1.1,0,2.19-0.02,3.28-0.07
	c6.89-0.27,13.56-1.39,19.91-3.28c11.2-3.3,21.39-8.95,30.02-16.38c0.56-0.47,1.11-0.96,1.66-1.46c0.1,0.37,0.2,0.73,0.32,1.09
	c3.52,11.24,14.02,19.4,26.42,19.4c7.58,0,14.45-3.05,19.45-7.98c2.6-2.57,4.69-5.64,6.12-9.06c0.81,0.16,1.63,0.3,2.46,0.43
	c2.91,0.44,5.89,0.67,8.92,0.67c23.36,0,43.56-13.53,53.19-33.18c0.93-1.9,1.76-3.86,2.48-5.88c0.93-2.54,1.68-5.17,2.25-7.87
	c3.87,2.33,8.4,3.67,13.25,3.67c14.22,0,25.75-11.53,25.75-25.75c0-1.47-0.13-2.9-0.37-4.3c8.4,10.64,21.41,17.48,36.01,17.48
	c12.83,0,24.42-5.28,32.75-13.76c2.76,7.68,7.68,14.35,14.03,19.24c7.15,5.52,16.12,8.8,25.85,8.8c9.13,0,17.57-2.89,24.48-7.81
	c1.14-0.8,2.24-1.66,3.29-2.58c-0.57,2.12-0.88,4.35-0.88,6.65c0,14.07,11.4,25.48,25.47,25.48c9.81,0,18.32-5.55,22.58-13.68
	c4,6.65,11.29,11.1,19.62,11.1c4.09,0,7.93-1.08,11.26-2.96c-1.86,3.16-2.95,6.83-2.95,10.76c0,11.75,9.52,21.27,21.27,21.27
	c3.66,0,7.09-0.92,10.1-2.55c0.02,0,0.03-0.01,0.05-0.02c0.01,0.02,0.02,0.05,0.02,0.07c4.62,2.79,10.02,4.39,15.79,4.39
	c10.89,0,20.46-5.71,26-14.36c0.44-0.85,0.88-1.7,1.34-2.53c0.04,0.01,0.07,0.03,0.11,0.04c2.3,0.87,4.77,1.35,7.37,1.35
	c11.58,0,20.97-9.39,20.97-20.96c0-0.51-0.04-1-0.08-1.49c2.95,0.96,6.1,1.48,9.36,1.48c9.22,0,17.47-4.12,23.01-10.62
	c2.91,9.74,11.94,16.85,22.63,16.85c13.04,0,23.61-10.58,23.61-23.62c0-1.1-0.08-2.18-0.22-3.24c1.66,1.16,3.42,2.19,5.26,3.08
	c5.13,2.5,10.9,3.9,17,3.9c9.76,0,18.68-3.58,25.52-9.51c6.04-5.23,10.45-12.27,12.4-20.28c4.98,7.01,13.15,11.59,22.41,11.59
	c7.24,0,13.82-2.8,18.72-7.38c5.61,12.6,18.24,21.4,32.93,21.4c15.67,0,29.01-10.02,33.96-24c4.29,5.64,11.06,9.28,18.69,9.28
	c6.83,0,12.97-2.92,17.26-7.57c2.58,33.25,30.35,59.43,64.26,59.43c17.44,0,33.26-6.94,44.87-18.19
	c0.69,22.78,19.36,41.03,42.3,41.03c14.4,0,27.1-7.19,34.75-18.16c9.53,17.93,28.39,30.15,50.12,30.15c4.44,0,8.76-0.53,12.9-1.49
	c-0.06,1.21-0.11,2.42-0.11,3.65c0,18.99,8.3,36.03,21.46,47.72c-2.03,3.86-3.18,8.24-3.18,12.9c0,15.31,12.41,27.72,27.72,27.72
	c8.28,0,15.71-3.63,20.79-9.38c7.03,20.13,25.94,34.7,48.33,35.27V552.09h-1400v298.17C4.25,852.18,9.55,853.24,15.1,853.24z"/>
</svg>
