<?xml version="1.0" encoding="utf-8"?>
<!-- Generator: Adobe Illustrator 24.0.1, SVG Export Plug-In . SVG Version: 6.00 Build 0)  -->
<svg version="1.1" id="Layer_1" xmlns="http://www.w3.org/2000/svg" xmlns:xlink="http://www.w3.org/1999/xlink" x="0px" y="0px"
	 viewBox="0 0 1400 750" style="enable-background:new 0 0 1400 750;" xml:space="preserve">
<style type="text/css">
	.st0{opacity:0.5;fill:#FFFFFF;}
	.st1{opacity:0.8;fill:#FFFFFF;}
	.st2{filter:url(#Adobe_OpacityMaskFilter);}
	.st3{filter:url(#Adobe_OpacityMaskFilter_1_);}
	.st4{mask:url(#SVGID_1_);fill:url(#SVGID_2_);}
	.st5{fill:url(#SVGID_3_);}
	.st6{fill:#FFFFFF;}
	.st7{display:none;fill:#3EB7ED;}
	.st8{display:none;opacity:0.2;fill:#2B2F3C;}
	.st9{display:none;opacity:0.4;fill:#FFFFFF;}
	.st10{display:none;fill:#EFEBE6;}
	.st11{display:none;opacity:0.5;fill:#FFFFFF;}
	.st12{display:none;fill:#2B2F3C;}
	.st13{filter:url(#Adobe_OpacityMaskFilter_2_);}
	.st14{filter:url(#Adobe_OpacityMaskFilter_3_);}
	.st15{mask:url(#SVGID_4_);fill:url(#SVGID_5_);}
	.st16{fill:url(#SVGID_6_);}
	.st17{filter:url(#Adobe_OpacityMaskFilter_4_);}
	.st18{filter:url(#Adobe_OpacityMaskFilter_5_);}
	.st19{mask:url(#SVGID_7_);fill:url(#SVGID_8_);}
	.st20{fill:url(#SVGID_9_);}
	.st21{filter:url(#Adobe_OpacityMaskFilter_6_);}
	.st22{filter:url(#Adobe_OpacityMaskFilter_7_);}
	.st23{mask:url(#SVGID_10_);fill:url(#SVGID_11_);}
	.st24{fill:url(#SVGID_12_);}
	.st25{display:none;}
	.st26{display:inline;fill:#3EB7ED;}
	.st27{display:inline;opacity:0.4;fill:#FFFFFF;}
	.st28{display:inline;opacity:0.1;fill:#2B2F3C;}
	.st29{display:inline;opacity:0.2;fill:#2B2F3C;}
	.st30{display:inline;opacity:0.2;fill:#FFFFFF;}
	.st31{opacity:0.2;fill:#FFFFFF;}
	.st32{display:none;opacity:0.1;fill:#FFFFFF;}
	.st33{fill:url(#SVGID_13_);}
	.st34{fill:url(#SVGID_14_);}
	.st35{fill:url(#SVGID_15_);}
	.st36{fill:url(#SVGID_16_);}
	.st37{fill:url(#SVGID_17_);}
	.st38{fill:#A399E8;}
	.st39{fill:url(#SVGID_18_);}
	.st40{fill:#988EE0;}
	.st41{opacity:0.35;}
	.st42{fill:url(#SVGID_19_);}
	.st43{fill:url(#SVGID_20_);}
	.st44{fill:#5540B5;}
	.st45{fill:url(#SVGID_21_);}
	.st46{fill:url(#SVGID_22_);}
	.st47{opacity:0.54;fill:#FFFFFF;enable-background:new    ;}
</style>
<g>
	<path class="st0" d="M569.67,660.02c-2.04-15.29-15.13-27.08-30.98-27.08c-4.36,0-8.52,0.9-12.29,2.51c0.12-0.82,0.2-1.66,0.2-2.51
		c0-9.48-7.68-17.16-17.16-17.16c-6.08,0-11.41,3.17-14.46,7.94c-9.87-10.62-23.94-17.27-39.58-17.27c-8.98,0-17.45,2.21-24.9,6.09
		c-9.73-22.38-32.01-38.03-57.97-38.03c-5.35,0-10.54,0.67-15.5,1.93c-0.01,0-0.01,0-0.01,0c-4.88,1.23-9.55,3.05-13.92,5.35
		c-2.38-3.57-5.28-6.77-8.59-9.48c-7.48-6.14-17.04-9.82-27.46-9.82c-4,0-7.87,0.55-11.55,1.57c-4.09-31.29-30.83-55.45-63.23-55.45
		c-12.33,0-23.83,3.51-33.58,9.56c-9.43-17.29-27.78-29.03-48.87-29.03c-0.37,0-0.74,0.02-1.12,0.03v-0.03
		c0-26.12-18.38-47.94-42.9-53.25c-7.89-27.39-33.12-47.44-63.06-47.44c-16.33,0-31.26,5.97-42.74,15.83v99.59
		c11.48,9.86,26.41,15.83,42.74,15.83c2.08,0,4.13-0.11,6.15-0.3c9.78,14.61,26.42,24.23,45.32,24.23h0.03
		c-0.01,0.37-0.03,0.74-0.03,1.12c0,30.71,24.9,55.61,55.61,55.61c8.19,0,15.95-1.78,22.95-4.96c9.23,23.87,32.38,40.8,59.5,40.8
		c13.35,0,25.74-4.11,35.98-11.12c7.09,14.25,21.8,24.05,38.8,24.05c1.12,0,2.22-0.05,3.32-0.14c5.33,29.51,31.12,51.89,62.16,51.89
		c13.8,0,26.55-4.43,36.94-11.93c9.53,15.35,26.54,25.57,45.93,25.57c26.06,0,47.81-18.45,52.91-42.99
		c3.29,13.72,15.64,23.93,30.38,23.93c17.27,0,31.26-14,31.26-31.26C569.95,662.78,569.86,661.38,569.67,660.02z"/>
	<path class="st0" d="M1400,346.07v160.66c-13.2,15.72-33.01,25.72-55.15,25.72c-31.2,0-57.75-19.85-67.75-47.6
		c-2.53,1.28-5.23,2.26-8.07,2.89c10.67,11.96,17.16,27.72,17.16,45.01c0,37.37-30.29,67.66-67.65,67.66
		c-22.57,0-42.54-11.06-54.84-28.05c-9.81,18.79-29.47,31.63-52.15,31.63c-18.9,0-35.71-8.93-46.47-22.79
		c1.48,4.33,2.29,8.96,2.29,13.78c0,23.59-19.13,42.72-42.72,42.72c-14.41,0-27.15-7.15-34.89-18.09c-0.63,0.48-1.29,0.94-1.97,1.37
		c13.2,10.78,21.63,27.18,21.63,45.55c0,32.47-26.32,58.78-58.79,58.78c-28.78,0-52.71-20.68-57.78-47.99
		c-1.07,0.12-2.15,0.19-3.26,0.19c-1.35,0-2.68-0.1-3.98-0.29c-2.74,15.58-16.32,27.41-32.68,27.41
		c-18.33,0-33.19-14.85-33.19-33.18c0-1.7,0.13-3.36,0.37-4.99c2.41-15.96,16.18-28.2,32.82-28.2c3.44,0,6.76,0.52,9.88,1.5
		c3.88-11.07,14.4-19,26.78-19c6.66,0,12.78,2.3,17.62,6.14c10.75-11.77,26.23-19.16,43.42-19.16c0.39,0,0.77,0.02,1.16,0.03
		c-0.75-2.34-1.16-4.82-1.16-7.41c0-13.42,10.88-24.3,24.3-24.3c3.71,0,7.22,0.83,10.36,2.32c6.48-15.34,21.67-26.11,39.36-26.11
		c4.03,0,7.94,0.56,11.63,1.6c8.15,2.31,15.3,6.97,20.69,13.2c-2.21-5.49-3.62-11.38-4.07-17.54c-0.11-1.43-0.16-2.89-0.16-4.35
		c0-32.49,26.33-58.82,58.81-58.82c17.79,0,33.73,7.91,44.51,20.4c10.19-24.47,34.32-41.67,62.48-41.67c3.7,0,7.33,0.31,10.87,0.88
		c-1.32-3.64-2.04-7.56-2.04-11.66c0-18.91,15.33-34.24,34.24-34.24c7.38,0,14.21,2.35,19.8,6.32c12.15-22.59,36-37.94,63.44-37.94
		c4.23,0,8.36,0.38,12.39,1.08C1359.38,366.76,1377.32,348.57,1400,346.07z"/>
	<path class="st1" d="M1392.37,388.45c-49.2,0-89.67,37.4-94.52,85.33c-3.79-0.63-7.68-0.98-11.66-0.98
		c-39.11,0-70.82,31.71-70.82,70.83c0,0.32,0.02,0.63,0.02,0.95c-8.53-4.49-18.25-7.05-28.57-7.05c-10.4,0-20.2,2.6-28.79,7.16
		c-10.87-14.13-27.95-23.24-47.16-23.24c-21.65,0-40.6,11.56-51.01,28.85c-2.24-0.49-4.57-0.76-6.96-0.77h-0.16
		c-5.99,0-11.61,1.57-16.46,4.34c-10.1,5.73-16.91,16.59-16.91,29.04c0,6.44,1.83,12.46,5,17.56c-5.84-1.84-12.06-2.84-18.5-2.84
		c-31.66,0-57.71,23.92-61.12,54.67c-8.6-8.99-20.71-14.6-34.13-14.6c-17.11,0-32.1,9.09-40.39,22.71
		c-6.11-4.53-13.67-7.21-21.86-7.21c-11.37,0-21.52,5.16-28.26,13.26c-0.73,0.88-1.42,1.79-2.07,2.74c-2.35-0.32-4.74-0.5-7.17-0.5
		c-2.61,0-5.18,0.19-7.69,0.56c-7.89-5.73-17.59-9.13-28.09-9.13c-20.77,0-38.45,13.26-45.04,31.77
		c-12.68-4.25-26.25-6.56-40.36-6.56c-9.98,0-19.7,1.16-29.01,3.34c-9.43-16.28-27.02-27.23-47.18-27.23
		c-11.21,0-21.63,3.38-30.29,9.18c-3.66-4.46-8.27-8.1-13.54-10.61c-5.13-2.46-10.87-3.82-16.93-3.82c-8.59,0-16.54,2.76-23.01,7.43
		c-8.01-16.95-25.25-28.68-45.24-28.68c-7.1,0-13.84,1.49-19.96,4.15c-11.85-8.58-26.41-13.65-42.16-13.65
		c-19.78,0-37.69,7.98-50.71,20.89c-0.6-8.01-2.67-15.61-5.96-22.52c4.28-5.47,6.83-12.35,6.83-19.83c0-11.67-6.21-21.9-15.5-27.55
		c-0.01,0-0.01,0-0.01,0c-4.87-2.96-10.59-4.66-16.7-4.66c-1.98,0-3.93,0.18-5.81,0.53c-9.33,1.7-17.25,7.42-21.92,15.31
		c-1.48-0.1-2.97-0.17-4.47-0.17c-15.66,0-29.99,5.65-41.08,15.01c-5-17.5-19.24-31.09-37.11-35.16c0.3-1.56,0.46-3.16,0.46-4.81
		c0-13.78-11.17-24.96-24.95-24.96c-11.39,0-20.99,7.63-23.99,18.06c-6.76-6.37-14.86-11.32-23.83-14.42
		c5.96-5.61,9.68-13.56,9.68-22.38c0-16.99-13.76-30.75-30.74-30.75c-4.13,0-8.06,0.81-11.65,2.29
		c-6.89-7.79-16.07-13.49-26.5-16.03c0.01-0.5,0.04-1,0.04-1.5c0-32.43-26.3-58.73-58.73-58.73c-15.32,0-29.27,5.86-39.72,15.47V750
		h1400V388.76C1397.48,388.55,1394.94,388.45,1392.37,388.45z"/>
</g>
<defs>
	<filter id="Adobe_OpacityMaskFilter" filterUnits="userSpaceOnUse" x="657.67" y="405.93" width="84.67" height="217">
		<feColorMatrix  type="matrix" values="1 0 0 0 0  0 1 0 0 0  0 0 1 0 0  0 0 0 1 0"/>
	</filter>
</defs>
<mask maskUnits="userSpaceOnUse" x="657.67" y="405.93" width="84.67" height="217" id="SVGID_1_">
	<g class="st2">
		<defs>
			<filter id="Adobe_OpacityMaskFilter_1_" filterUnits="userSpaceOnUse" x="657.67" y="405.93" width="84.67" height="217">
				<feFlood  style="flood-color:white;flood-opacity:1" result="back"/>
				<feBlend  in="SourceGraphic" in2="back" mode="normal"/>
			</filter>
		</defs>
		<mask maskUnits="userSpaceOnUse" x="657.67" y="405.93" width="84.67" height="217" id="SVGID_1_">
			<g class="st3">
			</g>
		</mask>
		<linearGradient id="SVGID_2_" gradientUnits="userSpaceOnUse" x1="700" y1="622.9248" x2="700" y2="405.9258">
			<stop  offset="0.2903" style="stop-color:#FFFFFF"/>
			<stop  offset="0.3682" style="stop-color:#DEDEDE"/>
			<stop  offset="0.6567" style="stop-color:#686868"/>
			<stop  offset="0.8551" style="stop-color:#1D1D1D"/>
			<stop  offset="0.9462" style="stop-color:#000000"/>
		</linearGradient>
		<path class="st4" d="M742.33,622.92c-23-26.67-29.4-57.55-33.06-79.83c-3.66-22.28-9.27-137.17-9.27-137.17
			s-5.61,114.88-9.27,137.17c-3.66,22.28-10.06,53.16-33.06,79.83H742.33z"/>
	</g>
</mask>
<linearGradient id="SVGID_3_" gradientUnits="userSpaceOnUse" x1="700" y1="622.9248" x2="700" y2="405.9258">
	<stop  offset="0.2903" style="stop-color:#FFFFFF"/>
	<stop  offset="0.9462" style="stop-color:#FFFFFF"/>
</linearGradient>
<path class="st5" d="M742.33,622.92c-23-26.67-29.4-57.55-33.06-79.83c-3.66-22.28-9.27-137.17-9.27-137.17
	s-5.61,114.88-9.27,137.17c-3.66,22.28-10.06,53.16-33.06,79.83H742.33z"/>
<path class="st6" d="M1384.28,448.85c-23.64,0-42.8,19.16-42.8,42.8c0,7.07,1.73,13.73,4.76,19.61
	c-8.94,5.02-16.49,12.21-21.93,20.87c-2.42,3.86-4.43,8.01-5.95,12.38c-4.72-1.84-9.85-2.87-15.23-2.87
	c-6.49,0-12.63,1.48-18.11,4.11c-8.08,3.88-14.72,10.28-18.91,18.18c-9.12-7.44-20.77-11.9-33.45-11.9
	c-22.54,0-41.78,14.06-49.45,33.88c-2.28-0.19-4.58-0.31-6.9-0.31c-1.1,0-2.19,0.02-3.28,0.07c-6.89,0.27-13.56,1.39-19.91,3.28
	c-11.2,3.3-21.39,8.95-30.02,16.38c-0.56,0.47-1.11,0.96-1.66,1.46c-0.1-0.37-0.2-0.73-0.32-1.09c-3.52-11.24-14.02-19.4-26.42-19.4
	c-7.58,0-14.45,3.05-19.45,7.98c-2.6,2.57-4.69,5.64-6.12,9.06c-0.81-0.16-1.63-0.3-2.46-0.43c-2.91-0.44-5.89-0.67-8.92-0.67
	c-23.36,0-43.56,13.53-53.19,33.18c-0.93,1.9-1.76,3.86-2.48,5.88c-0.93,2.54-1.68,5.17-2.25,7.87c-3.87-2.33-8.4-3.67-13.25-3.67
	c-14.22,0-25.75,11.53-25.75,25.75c0,1.47,0.13,2.9,0.37,4.3c-8.4-10.64-21.41-17.48-36.01-17.48c-12.83,0-24.42,5.28-32.75,13.76
	c-2.76-7.68-7.68-14.35-14.03-19.24c-7.15-5.52-16.12-8.8-25.85-8.8c-9.13,0-17.57,2.89-24.48,7.81c-1.14,0.8-2.24,1.66-3.29,2.58
	c0.57-2.12,0.88-4.35,0.88-6.65c0-14.07-11.4-25.48-25.47-25.48c-9.81,0-18.32,5.55-22.58,13.68c-4-6.65-11.29-11.1-19.62-11.1
	c-4.09,0-7.93,1.08-11.26,2.96c1.86-3.16,2.95-6.83,2.95-10.76c0-11.75-9.52-21.27-21.27-21.27c-3.66,0-7.09,0.92-10.1,2.55
	c-0.02,0-0.03,0.01-0.05,0.02c-0.01-0.02-0.02-0.05-0.02-0.07c-4.62-2.79-10.02-4.39-15.79-4.39c-10.89,0-20.46,5.71-26,14.36
	c-0.44,0.85-0.88,1.7-1.34,2.53c-0.04-0.01-0.07-0.03-0.11-0.04c-2.3-0.87-4.77-1.35-7.37-1.35c-11.58,0-20.97,9.39-20.97,20.96
	c0,0.51,0.04,1,0.08,1.49c-2.95-0.96-6.1-1.48-9.36-1.48c-9.22,0-17.47,4.12-23.01,10.62c-2.91-9.74-11.94-16.85-22.63-16.85
	c-13.04,0-23.61,10.58-23.61,23.62c0,1.1,0.08,2.18,0.22,3.24c-1.66-1.16-3.42-2.19-5.26-3.08c-5.13-2.5-10.9-3.9-17-3.9
	c-9.76,0-18.68,3.58-25.52,9.51c-6.04,5.23-10.45,12.27-12.4,20.28c-4.98-7.01-13.15-11.59-22.41-11.59
	c-7.24,0-13.82,2.8-18.72,7.38c-5.61-12.6-18.24-21.4-32.93-21.4c-15.67,0-29.01,10.02-33.96,24c-4.29-5.64-11.06-9.28-18.69-9.28
	c-6.83,0-12.97,2.92-17.26,7.57c-2.58-33.25-30.35-59.43-64.26-59.43c-17.44,0-33.26,6.94-44.87,18.19
	c-0.69-22.78-19.36-41.03-42.3-41.03c-14.4,0-27.1,7.19-34.75,18.16C168.5,588.22,149.64,576,127.91,576
	c-4.44,0-8.76,0.53-12.9,1.49c0.06-1.21,0.11-2.42,0.11-3.65c0-18.99-8.3-36.03-21.46-47.72c2.03-3.86,3.18-8.24,3.18-12.9
	c0-15.31-12.41-27.72-27.72-27.72c-8.28,0-15.71,3.63-20.79,9.38C41.3,474.75,22.39,460.18,0,459.61V750h1400V451.83
	C1395.13,449.91,1389.83,448.85,1384.28,448.85z"/>
<g>
	<path class="st7" d="M744.88,363.72c-0.67,4.21-1.97,8.13-3.76,11.66c-0.03,0.06-0.06,0.12-0.09,0.17
		c-0.39,0.66-1.12,1.04-1.88,0.89c-0.63-0.12-1.13-0.57-1.36-1.16c-0.03-0.06-0.05-0.12-0.07-0.18
		c-4.34-11.54-13.87-20.48-25.99-22.77l5.12-31.99C735.59,323.89,748.14,343.31,744.88,363.72z"/>
	<path class="st8" d="M744.88,363.72c-0.67,4.21-1.97,8.13-3.76,11.66c-0.03,0.06-0.06,0.12-0.09,0.17
		c-0.39,0.66-1.12,1.04-1.88,0.89c-0.63-0.12-1.13-0.57-1.36-1.16c-0.03-0.06-0.05-0.12-0.07-0.18
		c-4.34-11.54-13.87-20.48-25.99-22.77l5.12-31.99C735.59,323.89,748.14,343.31,744.88,363.72z"/>
	<path class="st7" d="M655.13,363.72c0.67,4.21,1.96,8.13,3.76,11.66c0.03,0.06,0.06,0.12,0.09,0.17c0.4,0.66,1.12,1.04,1.88,0.89
		c0.63-0.12,1.13-0.57,1.36-1.16c0.03-0.06,0.05-0.12,0.07-0.18c4.34-11.54,13.87-20.48,25.99-22.77l-5.12-31.99
		C664.41,323.89,651.86,343.31,655.13,363.72z"/>
	<path class="st9" d="M657.05,365.65c0.63,3.88,1.77,7.51,3.36,10.82c-0.59-0.04-1.12-0.39-1.44-0.92
		c-0.03-0.05-0.06-0.11-0.09-0.17c-1.79-3.53-3.09-7.45-3.76-11.65c-3.26-20.41,9.28-39.83,28.03-43.38l0.37,2.27
		C665.64,326.91,653.88,345.81,657.05,365.65z"/>
	<path class="st8" d="M742.95,365.65c-0.63,3.88-1.77,7.51-3.36,10.82c0.59-0.04,1.12-0.39,1.44-0.92c0.03-0.05,0.06-0.11,0.09-0.17
		c1.79-3.53,3.09-7.45,3.76-11.65c3.26-20.41-9.28-39.83-28.03-43.38l-0.37,2.27C734.36,326.91,746.12,345.81,742.95,365.65z"/>
	<path class="st10" d="M737.22,287.34c0,30.38-7.69,56.86-19.06,70.72l-0.03,0.03c-5.11,5.08-11.85,4.48-18.14,4.48
		c-6.28,0-12.98,0.66-18.15-4.5c-11.38-13.86-19.06-40.34-19.06-70.72c0-34.4,22.02-63.79,32.18-75.54c0.24-0.28,0.47-0.55,0.7-0.8
		c1.12-1.08,2.65-1.75,4.33-1.75c1.68,0,3.21,0.67,4.34,1.75c0.21,0.24,0.43,0.49,0.66,0.75c0.01,0.01,0.02,0.03,0.03,0.04
		C715.19,223.52,737.22,252.93,737.22,287.34z"/>
	<path class="st8" d="M679.7,355.23c-0.7,0.36-1.39,0.73-2.06,1.14c-4.95-6.62-9.13-15.68-12.17-26.41l2.28-2.13l0.02-0.02
		C670.69,338.87,674.8,348.27,679.7,355.23z"/>
	<path class="st8" d="M720.3,355.23c0.7,0.36,1.39,0.73,2.06,1.14c4.95-6.62,9.13-15.68,12.17-26.41l-2.28-2.13l-0.02-0.02
		C729.31,338.87,725.2,348.27,720.3,355.23z"/>
	<path class="st7" d="M720.78,233.62c-0.86,0.29-1.73,0.54-2.61,0.79c-5.78,1.62-11.87,2.48-18.17,2.48
		c-6.28,0-12.37-0.86-18.15-2.48c-0.89-0.25-1.76-0.51-2.64-0.79c1.14-1.92,2.3-3.76,3.45-5.5c4.58-6.97,9.05-12.55,12.31-16.31
		c0.24-0.28,0.47-0.55,0.7-0.8c1.12-1.08,2.65-1.75,4.33-1.75c1.68,0,3.21,0.67,4.34,1.75c0.21,0.24,0.43,0.49,0.66,0.75
		c0.01,0.01,0.02,0.03,0.03,0.04c3.26,3.76,7.74,9.34,12.31,16.32C718.48,229.86,719.64,231.69,720.78,233.62z"/>
	<path class="st7" d="M683.77,277.78c0-8.96,7.27-16.23,16.23-16.23c8.96,0,16.23,7.27,16.23,16.23c0,8.96-7.26,16.23-16.23,16.23
		C691.04,294.01,683.77,286.74,683.77,277.78z"/>
	<path class="st7" d="M688.19,288.9c-6-6.36-5.89-16.38,0.33-22.6c6.22-6.22,16.24-6.34,22.6-0.33c6,6.36,5.89,16.38-0.33,22.6
		C704.56,294.79,694.55,294.91,688.19,288.9z"/>
	<path class="st11" d="M711.47,266.3c0.12,0.12,0.22,0.22,0.33,0.35c-6.36-6-16.38-5.89-22.6,0.33c-6.22,6.22-6.34,16.24-0.33,22.6
		c-0.12-0.11-0.23-0.22-0.35-0.33c-6.34-6.34-6.34-16.61,0-22.95C694.86,259.97,705.13,259.96,711.47,266.3z"/>
	<path class="st8" d="M688.52,289.25c-0.12-0.12-0.23-0.23-0.33-0.35c6.36,6,16.38,5.89,22.6-0.33c6.22-6.22,6.34-16.24,0.33-22.6
		c0.12,0.11,0.23,0.22,0.35,0.33c6.34,6.34,6.34,16.61,0,22.95C705.13,295.59,694.86,295.59,688.52,289.25z"/>
	<path class="st12" d="M692.92,287.58c-5.56-3.95-6.86-11.69-2.91-17.25c3.95-5.56,11.69-6.86,17.25-2.91
		c5.56,3.95,6.86,11.69,2.91,17.25C706.21,290.23,698.48,291.53,692.92,287.58z"/>
	<path class="st9" d="M710.95,285.23c-3.95,5.56-11.69,6.86-17.25,2.91c-0.13-0.1-0.26-0.18-0.38-0.3
		c5.52,3.63,12.98,2.25,16.84-3.17c3.86-5.42,2.71-12.93-2.53-16.95c0.14,0.08,0.27,0.17,0.4,0.26
		C713.6,271.93,714.91,279.67,710.95,285.23z"/>
	<g>
		<defs>
			<filter id="Adobe_OpacityMaskFilter_2_" filterUnits="userSpaceOnUse" x="683.99" y="365.04" width="32.01" height="39.16">
				<feColorMatrix  type="matrix" values="1 0 0 0 0  0 1 0 0 0  0 0 1 0 0  0 0 0 1 0"/>
			</filter>
		</defs>
		<mask maskUnits="userSpaceOnUse" x="683.99" y="365.04" width="32.01" height="39.16" id="SVGID_4_">
			<g class="st13">
				<defs>
					<filter id="Adobe_OpacityMaskFilter_3_" filterUnits="userSpaceOnUse" x="683.99" y="365.04" width="32.01" height="39.16">
						<feFlood  style="flood-color:white;flood-opacity:1" result="back"/>
						<feBlend  in="SourceGraphic" in2="back" mode="normal"/>
					</filter>
				</defs>
				<mask maskUnits="userSpaceOnUse" x="683.99" y="365.04" width="32.01" height="39.16" id="SVGID_4_">
					<g class="st14">
					</g>
				</mask>
				<linearGradient id="SVGID_5_" gradientUnits="userSpaceOnUse" x1="699.9995" y1="404.1973" x2="699.9995" y2="365.0361">
					<stop  offset="0.1882" style="stop-color:#FFFFFF"/>
					<stop  offset="0.2659" style="stop-color:#EEEEEE"/>
					<stop  offset="0.4204" style="stop-color:#C1C1C1"/>
					<stop  offset="0.6372" style="stop-color:#787878"/>
					<stop  offset="0.9056" style="stop-color:#161616"/>
					<stop  offset="0.9624" style="stop-color:#000000"/>
				</linearGradient>
				<path class="st15" d="M716.01,379.31c0,13.18-12.44,24.89-16.01,24.89c-3.28,0-16.01-11.71-16.01-24.89
					c0-13.18,7.17-14.27,16.01-14.27C708.84,365.04,716.01,366.13,716.01,379.31z"/>
			</g>
		</mask>
		<linearGradient id="SVGID_6_" gradientUnits="userSpaceOnUse" x1="699.9995" y1="404.1973" x2="699.9995" y2="365.0361">
			<stop  offset="0.1882" style="stop-color:#F76D31"/>
			<stop  offset="0.9624" style="stop-color:#F76D31"/>
		</linearGradient>
		<path class="st16" d="M716.01,379.31c0,13.18-12.44,24.89-16.01,24.89c-3.28,0-16.01-11.71-16.01-24.89
			c0-13.18,7.17-14.27,16.01-14.27C708.84,365.04,716.01,366.13,716.01,379.31z"/>
		<defs>
			<filter id="Adobe_OpacityMaskFilter_4_" filterUnits="userSpaceOnUse" x="686.96" y="366" width="26.09" height="31.91">
				<feColorMatrix  type="matrix" values="1 0 0 0 0  0 1 0 0 0  0 0 1 0 0  0 0 0 1 0"/>
			</filter>
		</defs>
		<mask maskUnits="userSpaceOnUse" x="686.96" y="366" width="26.09" height="31.91" id="SVGID_7_">
			<g class="st17">
				<defs>
					<filter id="Adobe_OpacityMaskFilter_5_" filterUnits="userSpaceOnUse" x="686.96" y="366" width="26.09" height="31.91">
						<feFlood  style="flood-color:white;flood-opacity:1" result="back"/>
						<feBlend  in="SourceGraphic" in2="back" mode="normal"/>
					</filter>
				</defs>
				<mask maskUnits="userSpaceOnUse" x="686.96" y="366" width="26.09" height="31.91" id="SVGID_7_">
					<g class="st18">
					</g>
				</mask>
				<linearGradient id="SVGID_8_" gradientUnits="userSpaceOnUse" x1="700" y1="397.915" x2="700" y2="366.0015">
					<stop  offset="0.1882" style="stop-color:#FFFFFF"/>
					<stop  offset="0.3486" style="stop-color:#BBBBBB"/>
					<stop  offset="0.5193" style="stop-color:#797979"/>
					<stop  offset="0.6745" style="stop-color:#454545"/>
					<stop  offset="0.8085" style="stop-color:#1F1F1F"/>
					<stop  offset="0.9161" style="stop-color:#080808"/>
					<stop  offset="0.9839" style="stop-color:#000000"/>
				</linearGradient>
				<path class="st19" d="M713.04,377.63c0,10.74-10.14,20.28-13.04,20.28c-2.68,0-13.04-9.55-13.04-20.28
					c0-10.74,5.84-11.63,13.04-11.63C707.2,366,713.04,366.89,713.04,377.63z"/>
			</g>
		</mask>
		<linearGradient id="SVGID_9_" gradientUnits="userSpaceOnUse" x1="700" y1="397.915" x2="700" y2="366.0015">
			<stop  offset="0.1882" style="stop-color:#FFA200"/>
			<stop  offset="0.4259" style="stop-color:#FF9E14"/>
			<stop  offset="0.7677" style="stop-color:#FF9A2B"/>
			<stop  offset="0.9839" style="stop-color:#FF9933"/>
		</linearGradient>
		<path class="st20" d="M713.04,377.63c0,10.74-10.14,20.28-13.04,20.28c-2.68,0-13.04-9.55-13.04-20.28
			c0-10.74,5.84-11.63,13.04-11.63C707.2,366,713.04,366.89,713.04,377.63z"/>
		<defs>
			<filter id="Adobe_OpacityMaskFilter_6_" filterUnits="userSpaceOnUse" x="690.31" y="366.97" width="19.39" height="23.71">
				<feColorMatrix  type="matrix" values="1 0 0 0 0  0 1 0 0 0  0 0 1 0 0  0 0 0 1 0"/>
			</filter>
		</defs>
		<mask maskUnits="userSpaceOnUse" x="690.31" y="366.97" width="19.39" height="23.71" id="SVGID_10_">
			<g class="st21">
				<defs>
					<filter id="Adobe_OpacityMaskFilter_7_" filterUnits="userSpaceOnUse" x="690.31" y="366.97" width="19.39" height="23.71">
						<feFlood  style="flood-color:white;flood-opacity:1" result="back"/>
						<feBlend  in="SourceGraphic" in2="back" mode="normal"/>
					</filter>
				</defs>
				<mask maskUnits="userSpaceOnUse" x="690.31" y="366.97" width="19.39" height="23.71" id="SVGID_10_">
					<g class="st22">
					</g>
				</mask>
				<linearGradient id="SVGID_11_" gradientUnits="userSpaceOnUse" x1="699.9998" y1="390.6787" x2="699.9998" y2="366.9668">
					<stop  offset="0.1129" style="stop-color:#FFFFFF"/>
					<stop  offset="0.1581" style="stop-color:#ECECEC"/>
					<stop  offset="0.3404" style="stop-color:#A6A6A6"/>
					<stop  offset="0.5125" style="stop-color:#6B6B6B"/>
					<stop  offset="0.6692" style="stop-color:#3D3D3D"/>
					<stop  offset="0.8077" style="stop-color:#1B1B1B"/>
					<stop  offset="0.9226" style="stop-color:#070707"/>
					<stop  offset="1" style="stop-color:#000000"/>
				</linearGradient>
				<path class="st23" d="M709.69,375.61c0,7.98-7.54,15.07-9.69,15.07c-1.99,0-9.69-7.09-9.69-15.07c0-7.98,4.34-8.64,9.69-8.64
					C705.35,366.97,709.69,367.63,709.69,375.61z"/>
			</g>
		</mask>
		<linearGradient id="SVGID_12_" gradientUnits="userSpaceOnUse" x1="699.9998" y1="390.6787" x2="699.9998" y2="366.9668">
			<stop  offset="0.1129" style="stop-color:#FFDE52"/>
			<stop  offset="1" style="stop-color:#FFDE52"/>
		</linearGradient>
		<path class="st24" d="M709.69,375.61c0,7.98-7.54,15.07-9.69,15.07c-1.99,0-9.69-7.09-9.69-15.07c0-7.98,4.34-8.64,9.69-8.64
			C705.35,366.97,709.69,367.63,709.69,375.61z"/>
	</g>
	<g class="st25">
		<path class="st26" d="M705.09,338.39c0,3.06-2.28,38.08-5.09,38.08c-2.81,0-5.09-35.02-5.09-38.08c0-3.06,0-10.84,5.09-10.84
			C705.09,327.55,705.09,335.33,705.09,338.39z"/>
		<path class="st27" d="M700,371.18c-1.65-8.81-3.16-29.2-3.16-32.79c0-3.83,0.33-8.91,3.16-8.91c2.83,0,3.16,5.09,3.16,8.91
			C703.16,341.99,701.65,362.37,700,371.18z"/>
		<path class="st27" d="M700,355.65c-0.73-7.69-1.23-15.23-1.23-17.26c0-6.57,1.22-6.98,1.23-6.98c0.01,0,1.22,0.41,1.22,6.98
			C701.22,340.41,700.73,347.96,700,355.65z"/>
	</g>
	<g class="st25">
		<path class="st28" d="M737.22,287.34c0,30.39-7.69,56.86-19.05,70.73l-0.03,0.02c-1.84,1.83-3.91,2.93-6.08,3.58
			c7.79-17.69,14.91-44.44,14.91-75.74c0-25.24-14.64-57.98-24.61-76.21c0.94,0.37,1.62,0.94,1.97,1.29
			c0.21,0.23,0.43,0.49,0.66,0.75c0.01,0.01,0.02,0.02,0.03,0.04C715.18,223.52,737.22,252.92,737.22,287.34z"/>
		<path class="st29" d="M737.22,287.34c0,25.55-5.43,48.33-13.92,63.17c-1.6,2.82-3.32,5.35-5.13,7.56l-0.03,0.02
			c-0.09,0.09-0.17,0.16-0.26,0.24c10.24-21.94,14.89-46.7,14.89-72.64c0-20.73-13.99-53.39-26.36-72.27
			c1.66,1.97,3.55,4.33,5.57,7.03C722.85,235.04,737.22,259.55,737.22,287.34z"/>
	</g>
	<g class="st25">
		<path class="st30" d="M662.79,287.34c0,30.39,7.69,56.86,19.06,70.73l0.03,0.02c1.84,1.83,3.91,2.93,6.08,3.58
			c-7.79-17.69-14.91-44.44-14.91-75.74c0-25.24,14.64-57.98,24.61-76.21c-0.94,0.37-1.62,0.94-1.97,1.29
			c-0.21,0.23-0.44,0.49-0.66,0.75c-0.01,0.01-0.02,0.02-0.03,0.04C684.83,223.52,662.79,252.92,662.79,287.34z"/>
		<path class="st27" d="M662.79,287.34c0,25.55,5.43,48.33,13.92,63.17c1.6,2.82,3.32,5.35,5.13,7.56l0.03,0.02
			c0.09,0.09,0.17,0.16,0.26,0.24c-10.24-21.94-14.89-46.7-14.89-72.64c0-20.73,13.99-53.39,26.36-72.27
			c-1.66,1.97-3.55,4.33-5.57,7.03C677.16,235.04,662.79,259.55,662.79,287.34z"/>
	</g>
	<path class="st31" d="M706.23,266.78l-16.88,16.87c-0.32-0.56-0.59-1.14-0.82-1.74l15.96-15.96
		C705.09,266.17,705.67,266.44,706.23,266.78z"/>
	<path class="st32" d="M710.78,271.27L710.78,271.27l-16.92,16.92c-0.32-0.18-0.64-0.39-0.94-0.61c-1.01-0.71-1.88-1.56-2.61-2.5
		l17.36-17.36C708.96,268.72,710,269.93,710.78,271.27z"/>
</g>
<title>Rocketnotail</title>
<g>
	<g>
		
			<linearGradient id="SVGID_13_" gradientUnits="userSpaceOnUse" x1="2061.9172" y1="963.7599" x2="2061.9172" y2="852.8699" gradientTransform="matrix(1 0 0 -1 -1434.86 1234.14)">
			<stop  offset="0" style="stop-color:#8059DC"/>
			<stop  offset="1" style="stop-color:#6D56CE"/>
		</linearGradient>
		<path class="st33" d="M641.68,270.38c-5.74,4.78-30.63,52.86-33.62,69.27c-1.51,8.31-1.38,31.44-0.24,40.19
			c1.22,9.36,16.18-30.29,39.34-30.29L641.68,270.38z"/>
		
			<linearGradient id="SVGID_14_" gradientUnits="userSpaceOnUse" x1="2075.5115" y1="964.7299" x2="2075.5115" y2="882.0499" gradientTransform="matrix(1 0 0 -1 -1434.86 1234.14)">
			<stop  offset="0" style="stop-color:#714EC2"/>
			<stop  offset="1" style="stop-color:#604CB5"/>
		</linearGradient>
		<path class="st34" d="M641.68,270.38c-1.43,1.19-4.06,5.09-7.25,10.52c-1.27,11,1.6,38.59,7.61,69.3
			c1.67-0.43,3.39-0.65,5.12-0.65L641.68,270.38z"/>
	</g>
	<g>
		
			<linearGradient id="SVGID_15_" gradientUnits="userSpaceOnUse" x1="618.0649" y1="-59.9245" x2="618.0649" y2="-100.1287" gradientTransform="matrix(6.123234e-17 -1 -1 -6.123234e-17 692.92 943.89)">
			<stop  offset="0" style="stop-color:#643FB3"/>
			<stop  offset="1" style="stop-color:#553FAF"/>
		</linearGradient>
		<path class="st35" d="M758.31,270.38c5.74,4.78,30.64,52.86,33.62,69.27c1.51,8.31,1.38,31.44,0.24,40.19
			c-1.22,9.36-16.18-30.29-39.33-30.29L758.31,270.38z"/>
		
			<linearGradient id="SVGID_16_" gradientUnits="userSpaceOnUse" x1="8798.0576" y1="964.7299" x2="8798.0576" y2="882.0499" gradientTransform="matrix(-1 0 0 -1 9557.4102 1234.14)">
			<stop  offset="0" style="stop-color:#57379C"/>
			<stop  offset="1" style="stop-color:#4A3798"/>
		</linearGradient>
		<path class="st36" d="M758.31,270.38c1.43,1.19,4.06,5.09,7.25,10.52c1.27,11-1.6,38.59-7.61,69.3c-1.67-0.43-3.39-0.65-5.11-0.65
			L758.31,270.38z"/>
	</g>
	<g>
		
			<linearGradient id="SVGID_17_" gradientUnits="userSpaceOnUse" x1="1971.8845" y1="1137.205" x2="2097.5344" y2="1137.205" gradientTransform="matrix(1 0 0 -1 -1334.7001 1383.5599)">
			<stop  offset="0.04" style="stop-color:#FDFCFF"/>
			<stop  offset="0.23" style="stop-color:#F3F1FD"/>
			<stop  offset="0.56" style="stop-color:#D7D4F9"/>
			<stop  offset="0.96" style="stop-color:#AEA9F2"/>
		</linearGradient>
		<path class="st37" d="M700,143.18c-26.51,0-62.82,58.82-62.82,132.35c0,37.83,10,74,10,74h105.65c0,0,10-36.19,10-74
			C762.8,202,726.5,143.18,700,143.18z"/>
		<path class="st38" d="M711.75,146.65c17.78,25.53,29.3,63.16,27.36,114.87c-1.69,45-17.19,88-17.19,88h30.91c0,0,10-36.19,10-74
			C762.8,212.45,736.08,160.23,711.75,146.65z"/>
		<g>
			
				<linearGradient id="SVGID_18_" gradientUnits="userSpaceOnUse" x1="565.5855" y1="446.655" x2="686.4555" y2="446.655" gradientTransform="matrix(-1 0 0 1 1311.99 -87.84)">
				<stop  offset="0.04" style="stop-color:#AEA9F2"/>
				<stop  offset="0.37" style="stop-color:#D0CDF7"/>
				<stop  offset="0.75" style="stop-color:#F2F1FD"/>
				<stop  offset="0.96" style="stop-color:#FFFFFF"/>
			</linearGradient>
			<path class="st39" d="M742.62,349.55h-85.24c1.45,6.47,3,12.66,4.53,18.53h76.17C739.65,362.21,741.18,356.06,742.62,349.55z"/>
			<path class="st40" d="M742.62,349.55h-31.67c-0.95,6.25-2.29,12.44-4,18.53h31.13C739.65,362.21,741.18,356.06,742.62,349.55z"/>
		</g>
		<g class="st41">
			
				<linearGradient id="SVGID_19_" gradientUnits="userSpaceOnUse" x1="1992.0845" y1="1032.0099" x2="2077.3245" y2="1032.0099" gradientTransform="matrix(1 0 0 -1 -1334.7001 1383.5599)">
				<stop  offset="0.04" style="stop-color:#C6BFEC"/>
				<stop  offset="0.2" style="stop-color:#BCB4E7"/>
				<stop  offset="0.47" style="stop-color:#A197DB"/>
				<stop  offset="0.82" style="stop-color:#7568C8"/>
				<stop  offset="0.96" style="stop-color:#6254BF"/>
			</linearGradient>
			<path class="st42" d="M742.62,349.55h-85.24c0.3,1.36,0.62,2.66,0.93,4h83.37C741.99,352.21,742.31,350.91,742.62,349.55z"/>
		</g>
	</g>
	<g>
		
			<linearGradient id="SVGID_20_" gradientUnits="userSpaceOnUse" x1="1940.8928" y1="762.3184" x2="1978.9734" y2="724.2377" gradientTransform="matrix(0 -1 -1 0 1443.2031 2181.21)">
			<stop  offset="0" style="stop-color:#6D56CE"/>
			<stop  offset="1" style="stop-color:#7A59DC"/>
		</linearGradient>
		<circle class="st43" cx="700.01" cy="221.19" r="26.92"/>
		<path class="st44" d="M706.35,241.75c-14.85,0.02-26.9-12.01-26.92-26.86c-0.01-5.6,1.74-11.07,4.99-15.63
			c-12.12,8.59-14.99,25.38-6.4,37.5s25.38,14.99,37.5,6.4c2.48-1.76,4.64-3.92,6.4-6.4C717.38,240.01,711.94,241.75,706.35,241.75z
			"/>
		
			<linearGradient id="SVGID_21_" gradientUnits="userSpaceOnUse" x1="1906.0665" y1="-113.8493" x2="1906.0665" y2="-172.8893" gradientTransform="matrix(0.71 -0.71 -0.71 -0.71 -753.21 1474.59)">
			<stop  offset="0" style="stop-color:#EDEBFF"/>
			<stop  offset="1" style="stop-color:#FAF7FF"/>
		</linearGradient>
		<path class="st45" d="M700,250.72c-16.31,0.01-29.54-13.22-29.55-29.53c-0.01-16.31,13.22-29.54,29.53-29.55
			s29.54,13.22,29.55,29.53c0,0.01,0,0.01,0,0.02C729.51,237.49,716.3,250.7,700,250.72z M700,196.88
			c-13.43-0.01-24.31,10.87-24.32,24.3c-0.01,13.43,10.87,24.31,24.3,24.32c13.43,0.01,24.31-10.87,24.32-24.3c0,0,0-0.01,0-0.01
			C724.29,207.77,713.42,196.9,700,196.88z"/>
		
			<linearGradient id="SVGID_22_" gradientUnits="userSpaceOnUse" x1="1882.5981" y1="-140.7074" x2="1941.6382" y2="-140.7074" gradientTransform="matrix(0.71 -0.71 -0.71 -0.71 -753.21 1474.59)">
			<stop  offset="0" style="stop-color:#9B93DB"/>
			<stop  offset="1" style="stop-color:#ECE3FF"/>
		</linearGradient>
		<path class="st46" d="M700,250.72c16.31,0,29.54-13.23,29.54-29.54s-13.23-29.54-29.54-29.54c-16.31,0-29.54,13.23-29.54,29.54
			c0,0,0,0.01,0,0.01C670.49,237.49,683.7,250.7,700,250.72z M700,192.72c15.75,0,28.51,12.76,28.51,28.51s-12.76,28.51-28.51,28.51
			c-15.75,0-28.51-12.76-28.51-28.51c-0.01-15.76,12.75-28.54,28.51-28.55c0,0,0,0,0,0V192.72z"/>
		<path class="st47" d="M710.78,233.75c2.65,0,4.8-2.15,4.8-4.8s-2.15-4.8-4.8-4.8c-2.65,0-4.8,2.15-4.8,4.8
			S708.13,233.75,710.78,233.75L710.78,233.75z"/>
		<path class="st47" d="M701.65,235.71c1.1,0,2-0.9,2-2s-0.9-2-2-2s-2,0.9-2,2S700.55,235.71,701.65,235.71z"/>
	</g>
</g>
</svg>
