<svg xmlns="http://www.w3.org/2000/svg" xmlns:xlink="http://www.w3.org/1999/xlink" width="30.76" height="21.5" viewBox="0 0 30.76 21.5">
  <defs>
    <style>
      .cls-1 {
        isolation: isolate;
      }

      .cls-2 {
        fill: #b1b1b1;
      }

      .cls-3 {
        fill: url(#linear-gradient);
      }

      .cls-4 {
        fill: url(#linear-gradient-2);
      }

      .cls-5 {
        fill: url(#linear-gradient-3);
      }

      .cls-6 {
        fill: url(#linear-gradient-4);
      }

      .cls-7 {
        fill: url(#linear-gradient-5);
      }

      .cls-8 {
        fill: #878787;
        opacity: 0.29;
        mix-blend-mode: multiply;
      }
    </style>
    <linearGradient id="linear-gradient" x1="6.94" y1="16.74" x2="28.19" y2="16.74" gradientUnits="userSpaceOnUse">
      <stop offset="0" stop-color="#8c8c8c"/>
      <stop offset="1" stop-color="#919191"/>
    </linearGradient>
    <linearGradient id="linear-gradient-2" x1="0" y1="6.01" x2="13.32" y2="6.01" xlink:href="#linear-gradient"/>
    <linearGradient id="linear-gradient-3" x1="15.81" y1="6.09" x2="24.27" y2="6.09" xlink:href="#linear-gradient"/>
    <linearGradient id="linear-gradient-4" x1="25.64" y1="7.11" x2="28.73" y2="7.11" xlink:href="#linear-gradient"/>
    <linearGradient id="linear-gradient-5" x1="5.23" y1="14.63" x2="11.08" y2="14.63" xlink:href="#linear-gradient"/>
  </defs>
  <title>Asset 15</title>
  <g class="cls-1">
    <g id="Layer_2" data-name="Layer 2">
      <g id="Layer_1-2" data-name="Layer 1">
        <g>
          <path class="cls-2" d="M30.76,6.72c0,7.15-8.31,14.78-16.29,14.78S0,15.7,0,8.55C0-2.86,6.71.44,14.7.44S30.76-.43,30.76,6.72Z"/>
          <path class="cls-3" d="M28.19,13.9c-3.08,4.3-8.47,7.6-13.72,7.6a15.72,15.72,0,0,1-7.53-1.89,5.78,5.78,0,0,1,4.64-3.11,7.94,7.94,0,0,1,3.22.67c2.21.69,2.26.22,3.29-1.59C20.26,11.78,25.46,10.59,28.19,13.9Z"/>
          <path class="cls-4" d="M13.31,5.48c.18,1.95-1.35,3.06-3.17,3S7.08,8,5.35,9.51c-.38.34-.7.68-1,1a4.37,4.37,0,0,1-1.65,1.07,5.2,5.2,0,0,1-2.18.29A11.77,11.77,0,0,1,0,8.55C0,8.27,0,8,0,7.74.17,2.39,2,.61,4.74.14A9.23,9.23,0,0,1,8.63.79C10.64,1.55,13.1,3.09,13.31,5.48Z"/>
          <path class="cls-5" d="M24,3.72c-1.62-3.57-6.2-1.61-7.24,1.36a4.32,4.32,0,0,0-1,3,2.56,2.56,0,0,0,3.61,2.09,4,4,0,0,0,1.93-1.5,3.07,3.07,0,0,0,.46-1.16c.12-.6-.06-.58.46-.76.67-.24,1.19-.14,1.66-.84A2.32,2.32,0,0,0,24,3.72Z"/>
          <path class="cls-6" d="M27.49,5.56a1.64,1.64,0,0,0-1.81,2A.75.75,0,0,0,26,8a1.5,1.5,0,0,0,2.54-.07A1.56,1.56,0,0,0,27.49,5.56Z"/>
          <path class="cls-7" d="M8.26,12.68c-1.28.09-3.31,1.06-3,2.64a1.28,1.28,0,0,0,1.48,1.07c1.33.42,3.51.24,4.17-1.18C11.68,13.56,9.58,12.6,8.26,12.68Z"/>
          <path class="cls-8" d="M30.75,7.15c-.32,7-8.46,14.35-16.28,14.35-6.71,0-12.36-4.09-14-9.64A11.77,11.77,0,0,1,0,8.55C0,8.27,0,8,0,7.74a23.58,23.58,0,0,0,4.3,2.76A23.73,23.73,0,0,0,26.7,10,30,30,0,0,0,30.75,7.15Z"/>
        </g>
      </g>
    </g>
  </g>
</svg>
