<svg xmlns="http://www.w3.org/2000/svg" width="73.46" height="60" viewBox="0 0 73.46 60">
  <defs>
    <style>
      .cls-1 {
        fill: #4d5874;
      }

      .cls-2 {
        fill: #8ba9c2;
      }

      .cls-3 {
        fill: #fdffff;
      }
    </style>
  </defs>
  <title>Asset 11</title>
  <g id="Layer_2" data-name="Layer 2">
    <g id="Layer_1-2" data-name="Layer 1">
      <g>
        <path class="cls-1" d="M28.15,56.07c-8.07,6.11-19.22,5-24.9-2.53S-.48,35,7.59,28.9C13.91,24.12,63,1.77,71.26,0a1.78,1.78,0,0,1,2,2.61C69.33,10.1,34.47,51.29,28.15,56.07Z"/>
        <path class="cls-2" d="M23,54.94A13,13,0,1,1,7.27,34.18c4.49-3.4,34.43-16,42-17.4a1.77,1.77,0,0,1,1.9,2.51C47.79,26.17,27.47,51.55,23,54.94Z"/>
        <circle class="cls-3" cx="15.12" cy="44.56" r="13.02" transform="translate(-25.55 20.9) rotate(-41.07)"/>
      </g>
    </g>
  </g>
</svg>
