<svg xmlns="http://www.w3.org/2000/svg" width="67.95" height="66.26" viewBox="0 0 67.95 66.26">
  <defs>
    <style>
      .cls-1 {
        isolation: isolate;
      }

      .cls-2 {
        fill: #ef6964;
      }

      .cls-3 {
        fill: #fbb040;
      }

      .cls-4 {
        fill: #5c5c5c;
      }

      .cls-5 {
        fill: #4a4a4a;
        opacity: 0.18;
        mix-blend-mode: multiply;
      }

      .cls-6 {
        fill: #fff;
        opacity: 0.17;
      }
    </style>
  </defs>
  <title>Asset 12</title>
  <g class="cls-1">
    <g id="Layer_2" data-name="Layer 2">
      <g id="Layer_1-2" data-name="Layer 1">
        <g>
          <g>
            <path class="cls-2" d="M42.26,58.74c-9.53,9.69-25.58,10.17-35.16.52A24.42,24.42,0,0,1,7.44,24.5C12,20.14,23.2,15.16,34.22,9.91a1,1,0,0,1,1.34,1.23L32.24,16.2a.79.79,0,0,0,1.13,1L66.67.11a.86.86,0,0,1,1.17,1.17L50.07,36.65a1.26,1.26,0,0,0,1.36,1.85l1.78-1.16a1.13,1.13,0,0,1,1.25,1.56C52.74,42.67,49.1,51.79,42.26,58.74Z"/>
            <path class="cls-3" d="M8.55,57.39A18.1,18.1,0,0,1,9,31.82c2.61-2.53,16.67-10.24,18-8.88s-.43,1.93-.45,3c0,.48.27.88.71.68l21.47-9.5a1.47,1.47,0,0,1,2,2L40.6,40.78a.71.71,0,0,0,.81,1c.7-.15,1.3-1.18,2.39-.06s-5.57,11.95-9,15.39A19,19,0,0,1,21.4,62.71,17.63,17.63,0,0,1,8.73,57.57Z"/>
            <g>
              <path class="cls-4" d="M32.45,57.78a16.9,16.9,0,1,1,.4-23.9A16.9,16.9,0,0,1,32.45,57.78Z"/>
              <g>
                <path class="cls-3" d="M24.24,37.11a3.15,3.15,0,1,1,.07-4.45A3.14,3.14,0,0,1,24.24,37.11Z"/>
                <path class="cls-3" d="M37.6,45.43a2.55,2.55,0,0,1-3.14-4,2.52,2.52,0,0,1,2.45-.62A16.39,16.39,0,0,1,37.6,45.43Z"/>
                <path class="cls-3" d="M16.43,60a2.15,2.15,0,1,1,.05-3A2.16,2.16,0,0,1,16.43,60Z"/>
                <path class="cls-3" d="M30.49,55.76a4.25,4.25,0,1,1,.1-6A4.24,4.24,0,0,1,30.49,55.76Z"/>
                <path class="cls-3" d="M13.78,50.51a4.12,4.12,0,1,1,.1-5.82A4.12,4.12,0,0,1,13.78,50.51Z"/>
              </g>
              <path class="cls-5" d="M32.45,57.78A16.9,16.9,0,0,1,4.54,40.67,16.91,16.91,0,0,0,37,41.18,16.9,16.9,0,0,1,32.45,57.78Z"/>
              <path class="cls-6" d="M10.58,37.86a1.86,1.86,0,0,1,0-2.65,14.51,14.51,0,0,1,20.5.34,1.88,1.88,0,1,1-2.7,2.61,10.75,10.75,0,0,0-15.19-.25A1.87,1.87,0,0,1,10.58,37.86Z"/>
              <path class="cls-6" d="M7.37,43a1.9,1.9,0,0,1-.44-1.9c.07-.2.14-.4.22-.59a1.88,1.88,0,0,1,3.51,1.33c-.06.15-.11.29-.16.44A1.87,1.87,0,0,1,7.37,43Z"/>
            </g>
          </g>
          <g>
            <path class="cls-2" d="M61.49,28.88c.82.84-1.34,5.87-2.29,6.79a3.29,3.29,0,1,1-4.58-4.73C55.58,30,60.68,28,61.49,28.88Z"/>
            <path class="cls-3" d="M55.05,32.54c.7-.67,3.08-1.49,3.62-.93s-.36,2.91-1.06,3.58a1.84,1.84,0,0,1-2.56-2.65Z"/>
          </g>
        </g>
      </g>
    </g>
  </g>
</svg>
