<svg xmlns="http://www.w3.org/2000/svg" width="75.13" height="66.41" viewBox="0 0 75.13 66.41">
  <defs>
    <style>
      .cls-1 {
        isolation: isolate;
      }

      .cls-2 {
        fill: #77d1dc;
      }

      .cls-3 {
        fill: #55b3c3;
      }

      .cls-4 {
        fill: #dce569;
      }

      .cls-5 {
        fill: #9c9c9c;
        opacity: 0.53;
        mix-blend-mode: color-burn;
      }

      .cls-6 {
        opacity: 0.38;
      }

      .cls-7 {
        fill: #696969;
      }

      .cls-8 {
        fill: #fff;
      }
    </style>
  </defs>
  <title>Asset 3</title>
  <g class="cls-1">
    <g id="Layer_2" data-name="Layer 2">
      <g id="Layer_1-2" data-name="Layer 1">
        <g>
          <circle class="cls-2" cx="36.25" cy="33.96" r="32.45" transform="translate(-12.36 44.21) rotate(-55.04)"/>
          <g>
            <g>
              <path class="cls-3" d="M58.74,56.05a1.78,1.78,0,0,1,.72-1.16c.28-.2.29.22,1.06-.63a2.75,2.75,0,0,0,.9-1.86c0-.49.62-.75.11-1.44s-.3-.86-.35-1.66a2.59,2.59,0,0,1,.6-1.93c.51-.75,1-1.81,1.93-2.12s1.2-.47,1.86-1.71,1.26-1.23,1.27-2.33-.11-1.42-.77-1.09-.49.42-1.3.35-1,.08-1.2-.55-.41-1.32-1-1.59-.9-.46-.79-.86a1.43,1.43,0,0,0-.31-1.36c-.41-.48.35.3-.39-1.2a13,13,0,0,1-1.25-2.61c0-.41.29-2.25-1.07-2.77,0,0-.25-.33-.82.31s-.92-.64-1.42-.49-.87-.29-1.05-.31-.69-.73-1-.41-.61-.28-.65.25.57.84,0,.8a2.31,2.31,0,0,1-1.14-.39c0-.08-.34-.18-.5-.11s-.17-.62-.17-.62l-.76-.29s-.28.21-.42.12-.59-.5-.59-.5l0-.42.23-.59v-.72l-.22,0-.58-.23-1.12.14-.23.06s.19-.06-.33-.1a2.38,2.38,0,0,0-1,.15,1.91,1.91,0,0,1-.47-.07c-.11,0-.45,0-.45,0l-.55.41-.76.17-.55,0-.33-.1-.32-.18a4.77,4.77,0,0,0-.71.55c-.08.15-.11.52-.57.64s-.65.7-.74,1a3.73,3.73,0,0,1-.67.85l-.55.42-.51,0-.34.57,0,.53a3.72,3.72,0,0,0-.55.41,2.14,2.14,0,0,0-.68,1.15c0,.34-.39.28-.42.65a3,3,0,0,0,.21,1l.07.57a4.63,4.63,0,0,1-.18.82,1.84,1.84,0,0,1-.34.61,1.3,1.3,0,0,0-.13,1.62c.42.79.86.82.86.82l.24.63.11.53.15.43.58.69.56.35.38.37.55.53.86-.15.64,0a.81.81,0,0,1,.27-.13,3.27,3.27,0,0,1,1,.31A1.53,1.53,0,0,0,44.1,42a7.47,7.47,0,0,0,.67-.44,2.26,2.26,0,0,1,.83-.16c.22,0,.6,0,.7.1a5.53,5.53,0,0,1,.33.55l.21.51.36.22.65-.18s.18,0,.42.27.43.26.32.7,0-.11-.29.78-.37,1.4.69,2.51l.26.93a1.23,1.23,0,0,1,.24.78c0,.57-.21.25-.06.75s.4.64.36,1.13-.31.62-.53,1a2.11,2.11,0,0,0-.45,1c-.17.75-.47.8-.24,1.54a15.17,15.17,0,0,0,1,2.08c.13.24-.29.85-.1,1.28s0,1.67.43,2.09,0,2.27.79,2.72a2.56,2.56,0,0,0,1.27.25,32.56,32.56,0,0,0,5.53-3.85.31.31,0,0,1,.16-.14q.51-.45,1-.93v-.05C58.76,56.66,58.61,56.68,58.74,56.05Z"/>
              <path class="cls-3" d="M19.65,61.57a.69.69,0,0,0,.44.09l.35-.53s-.07-.69.07-.84a4.93,4.93,0,0,1,.61-.48l.54-.61s.39-.65.51-.81.44-.7.44-.7a2.77,2.77,0,0,0,.05-.67c-.05-.06.41-.25.41-.25s.39-.08.31-.43-.2-1-.2-1,0-.73.36-.79.68.21.91.08.81-.36.81-.36a3.16,3.16,0,0,0,.84-.22c.29-.14.7-.39.7-.39l.05-.62a.44.44,0,0,1,0-.68c.41-.3.53-.4.55-.57a3.42,3.42,0,0,0-.07-.57s-.57-.45-.33-.71-.37-.2.05-.67a3,3,0,0,1,.83-.67s0,.11.25-.32A10.43,10.43,0,0,1,28.8,48a2,2,0,0,0,.39-.76c0-.17-.09-.24,0-.57a1,1,0,0,0,.05-.61l0-.45-.42-.27a.83.83,0,0,1-.55,0c-.21-.13-.34.14-.48-.21a4.29,4.29,0,0,0-.49-.77,1.75,1.75,0,0,0-.63-.45.92.92,0,0,0-.51.13l-.23.15s-.19.27-.34.09-.27-.14-.52-.44-.36-.26-.57-.44-.45-.55-.62-.51l-.4.14-.32-.14a.45.45,0,0,1-.19-.41l0-.45A1.64,1.64,0,0,1,23,41.5a1.58,1.58,0,0,0-.27-.7l-.41-.48-.71-.74-1-.35a.5.5,0,0,1-.66-.06c-.36-.31-.64-.27-.78-.62s-.48-.22-.45-.61.32-.53.29-.76a.68.68,0,0,0-.4-.54,2.39,2.39,0,0,0-.93-.08s-.26.44-.53.36a5.12,5.12,0,0,0-.81-.12l-.73-.51-.73-.51a2.47,2.47,0,0,0-.81-.23c-.17,0-.73.28-.73.28s-.37.47-.6.51a8.57,8.57,0,0,0-.84.27s.14.35,0,.4-.85.32-.85.32-.48.47-.32.54,0,.56.23.58.3.36.3.36.17.64-.06.79-.08.5-.37.53a1.41,1.41,0,0,0-.69.34,1,1,0,0,0-.45.75,1.9,1.9,0,0,1-.28.88c-.14.27-.36.31-.22.66a5.73,5.73,0,0,1,.21.75L9,43.82l0,.39-.05.62.37.31.27,0,.24.64,0,.34,0,.33.31,0,.13.4.07.52.34.36.2.47.24.36,0,.33.4.49.32,0a1.43,1.43,0,0,0,.4.6,1.92,1.92,0,0,0,.47.26l.38,0,.31.3.17.63.13.36.14.4v.62l-.13,1v.51l-.05.71.26.88-.32.49-.31.48,0,.11a32.34,32.34,0,0,0,6.14,4.84C19.48,61.58,19.56,61.51,19.65,61.57Z"/>
              <path class="cls-3" d="M59.16,11.35l-.66-.16-1.31-.38a.4.4,0,0,0-.32-.19c-.22,0-.73,0-.73,0l-.55,0-.51,0-.14.39s0-.18-.32-.2a4.6,4.6,0,0,0-1,.16l-.2.33-.52.3a4.67,4.67,0,0,0-.37.37,1.11,1.11,0,0,1-.53.41c-.23.1-.45.08-.58.3l0,.07h0l-.08.14c-.2.33-.27.6-.5.64s.22,0-.23,0a2.89,2.89,0,0,0-.79.17l-.4.14-.2.44L49.1,15s-.11.61.06.62l.16,0,.31.3L50,16l.53-.35.52-.25.41.49s0,.34.25.36.26.3.26.3l-.3.26-.35.2s-.2.33,0,.29.84,0,.84,0a.69.69,0,0,1,.28,0c.17,0,.49.15.62-.07a3.27,3.27,0,0,0,.26-.43.63.63,0,0,0,0-.4s0-.17.19-.33.37-.25.37-.25.38-.09.34-.26a1.14,1.14,0,0,0-.28-.53,1.64,1.64,0,0,1-.25-.53.35.35,0,0,1,.09-.45c.24-.21-.21-.13.24-.21s.15.24.46-.08.42-.42.43-.59-.38,0,0-.17,0-.34.4-.14a4.44,4.44,0,0,0,.65.27s.08.35-.2.44-.62.07-.75.23-.35.2-.36.37a1.15,1.15,0,0,0,0,.45l0,.18s-.1.61.19.52l.28-.09.36.37.33.08-.14.33,0,.34a.91.91,0,0,1-.4.14c-.17,0-.36.2-.36.2l-.2.49-.15.45-.36.26-.49,0-.33-.14-.48.3-.62.13-.32-.25a1.65,1.65,0,0,0-.72,0L51,18l-.35-.53s-.12.05,0-.29a2.12,2.12,0,0,0,.16-.61s.15-.5-.19-.35a2.56,2.56,0,0,0-.71.51s-.26.49-.17.67a1.53,1.53,0,0,1,.14.35l-.62.13a1,1,0,0,0-.76.39l-.19.39s-.27.49-.43.47h-.17s-.39,0-.52.25l-.13.27-.4.14a1.1,1.1,0,0,0-.38-.14c-.17,0,.18-.16-.17,0a.75.75,0,0,0-.42.43,1.83,1.83,0,0,0-.56-.05c-.17.05-.42-.31-.44,0s-.09.44.12.57.3.42.53.33.43.2.43.2.26.25.24.42a1.25,1.25,0,0,1-.14.44l-.21.49-.29.15-.39,0-.5,0-.56.08-.37-.2s-.25-.36-.37-.2-.71.17-.69.4-.33.09,0,.39a.85.85,0,0,1,.27.59c-.58.35-.49-.15-.58.35s-.36,0-.1.51l.26.53c0,.14-.12.5.12.66s.74-.26,1,.07.48.58.85.46.38.15.81-.07a8.64,8.64,0,0,0,.79-.47s-.31-.29,0-.38.42-.31.32-.46.22-.75.44-.7,1,.27,1-.43.43-.85.92-.64a.66.66,0,0,0,.82-.14c0-.08.09-.47.46-.28s.06.35.66.88A6.45,6.45,0,0,0,52,24.55c.22,0,.55.1.47.52s.16.72-.37.68-1-.4-1.08,0,.9.64,1,.84.35.46.38.12l.05-.56s.27.07.42-.34,0-.57,0-.57l0-.38s.14-.1.23,0,.17.5.38.38a.45.45,0,0,0,0-.68c-.2-.27-1.09-1-1.46-.91s-.18-.15-.27-.44a1.33,1.33,0,0,0-.35-.53s-.11-.33.06-.43a.59.59,0,0,1,.43-.11c.08,0,.27.47.27.47s.06.26.23.27.23.19.31.31.09.21.29.2.3.05.48.29.31.28.32.5.11.81.12.95-.15.13.19.44.56.35.58.74.16.89.47.77.32-.5.45-.7a.77.77,0,0,0,.19-.65c-.06-.29-.27-.48-.06-.6s.07-.51.3-.32.65,0,.66.48-.17.5-.06.87,0,.69.35.8,1.08.12,1.12.37a.47.47,0,0,0,.25.36l.32-.2,0-.34a1,1,0,0,1,.38.2.63.63,0,0,0,.32.16l.43-.16s.25-.32.46-.11.23.25.25.39a.74.74,0,0,1,0,.57c-.13.24-.16.27-.23.43a3.29,3.29,0,0,0-.37.8c0,.25,0,.48,0,.68a2.5,2.5,0,0,0,.15.87,3.16,3.16,0,0,0,.37,1,2.13,2.13,0,0,1,.34.68c0,.09.33.37.31.63s0,.45,0,.45l.32.22s.06-.08.16,0a.81.81,0,0,1,.17.35l.15,1.26s-.14,0,.23.28.45.06.53.44.27.45.43.86,0,.57.13.89.15.64.36.77-.09.36.23.65.43.26.89.07,1.24-.36,1.53-.54.34-.34.64-.26.18.21.58-.24.36-.57.87-.64l.16,0c.05-.4.1-.8.13-1.21.08-1,.11-2.06.1-3.07a1.74,1.74,0,0,0-.33.39c-.71,1.12-.74.09-.74.09s.15-.16-.18-.3-.27-.42-.31-.62.07-.54-.29-.62a1.64,1.64,0,0,1-.66-.43,1.17,1.17,0,0,1-.3-.82c0-.19.61-.29.61-.29l.42.74.24.45a6.65,6.65,0,0,0,1.52.71A32.36,32.36,0,0,0,60.1,12l-.25-.11A6.19,6.19,0,0,1,59.16,11.35Z"/>
              <path class="cls-3" d="M44.94,16.09l.15.19s.16.18.09.34l-.07.17a.6.6,0,0,1,.38.13c.15.13.38.09.42.27a1.23,1.23,0,0,1,0,.45.2.2,0,0,0-.34,0c-.18.22-.08.05-.23.38a5.24,5.24,0,0,1-.64.86s-.28.09,0,.34a2.23,2.23,0,0,0,.54.38c.53-.53.25-.49.53-.53a1,1,0,0,1,.44,0l.44,0,.35-.14c.23-.1,0,.28.23-.1l.25-.38s.47-.3.31-.37-.55,0-.64-.28-.4.09-.25-.36L47,17l-.41-.37s-.59.07-.24-.36l.35-.43s0-.34-.28-.41a2,2,0,0,0-1.2.13C45.08,15.76,44.79,15.91,44.94,16.09Z"/>
              <path class="cls-3" d="M44.86,17.78c0-.27-.22,0,0-.27l.25-.32-.42-.33s-.53-.34-.66-.05l-.13.28-.41.25-.28,0,0,.29a.74.74,0,0,0,0,.39l0,.18-.12.44s.32.2.54,0,.6-.07.56-.3l0-.23.44-.08S44.84,18.06,44.86,17.78Z"/>
              <path class="cls-3" d="M40.51,10.29l.18-.12.67-.12,0-.34,0-.56,0-.45.73-.12.53-.3s.46-.08.5-.36-.2-.47.06-.68,0,.29.26-.21.22-.55.52-.58.21-.21.44-.31-.07-.12.55-.07A3.3,3.3,0,0,0,46,6s-.05-.17-.43-.25-1.45-.17-1.45-.17-.69.07-.72,0a1.49,1.49,0,0,0-.72-.45L41.76,5a1.89,1.89,0,0,0-.89,0,2.05,2.05,0,0,1-.63.24,1.21,1.21,0,0,1-1.1-.14,2,2,0,0,0-1-.41.6.6,0,0,0-.72-.06,2.38,2.38,0,0,1-.87.52c-.17,0-.19.21-.56.07s-.55-.15-.82-.23a3.54,3.54,0,0,0-.92-.18,2.61,2.61,0,0,0-1.44,0c-.58.24-.42.31-1,.32s-.81-.28-1.05,0-.14.33-.48.42a2.66,2.66,0,0,1-.94,0,1,1,0,0,0-.68.21l.25,1,.39,0s.32.13.49,0a5.14,5.14,0,0,1,.75-.43c.12,0-.32-.1.12,0a3.1,3.1,0,0,1,1.05.63l-.06.8-.6.52.5.77.24.43-.3.3a.57.57,0,0,0-.85.16,2.23,2.23,0,0,0-.33.71v.74l.22.64.3.5-.09.42.33,0,.44,0s.41-.3.49,0a.9.9,0,0,0,.24.47.69.69,0,0,0,.57-.13,5.41,5.41,0,0,0,.55-.66l0-.48.83-.56.44-.08,0-.4h.61l.66.05.35-.2L37,11l.35-.26.52-.19.46-.22a.39.39,0,0,1,.5,0,.37.37,0,0,0,.49,0l.5,0A2.53,2.53,0,0,0,40.51,10.29Z"/>
              <path class="cls-3" d="M13.89,31.64l-.36-.31-.3-.42-.18-.41-.79-.45L11.6,30a3,3,0,0,0-.71-.06l-.78.17c-.23,0-.58.4-.75.5l.32.13.71.05s.84-.2,1-.25.58.37.58.37.31.27.24.43.23.53.23.53l.38,0,.71.05.33,0Z"/>
              <path class="cls-3" d="M16.56,32.64s-1.33-.56-1.5-.57l-.71,0a.25.25,0,0,0-.14.38.47.47,0,0,1,0,.5l-.6,0s-.17.15,0,.28a4.42,4.42,0,0,0,.63.33s.49.15.66.05.07-.22.4-.25a1.35,1.35,0,0,1,.82.06,2.09,2.09,0,0,0,.93.08C17.13,33.14,16.56,32.64,16.56,32.64Z"/>
              <path class="cls-3" d="M4.39,33.15c.24-.27.48.15.48.15a2.61,2.61,0,0,1,.44.59,2.69,2.69,0,0,1,.23.59c.08.34.22,0,.48.15s.43.09.63.32.34-.08.49,0a.62.62,0,0,0,.44,0l0,.63c0,.28.09.29.33.7a1.19,1.19,0,0,1,.29.42c0,.17.41.36.41.36l.25.31a3.19,3.19,0,0,0,.69.33c.16,0,.31.31.31.31l.29-.26.27,0,.06-.73A.43.43,0,0,0,10,37a.53.53,0,0,1-.44,0l-.24-.36-.42-.26,0-.5L9,34.92l.37-.42a1.58,1.58,0,0,0,.14-.44c0-.17-.39-.55-.39-.55l-.38-.08s-.66.06-.82-.06a.21.21,0,0,0-.27,0l0-.35a1.09,1.09,0,0,1,.16-.64.61.61,0,0,0,.15-.45l.48-.53.55-.7-.48-.19-.28.13c-.29.13-.27-.12-.49,0l-.85.29c-.39.13,0,.33,0,.55s-.13.16-.43.48,0,0-.12.24-.33,0-.55,0a.65.65,0,0,1-.38,0c-.16,0-.37-.17-.52,0s-.36-.56-.39-.78S4,30.76,4,30.76s.25-.32.15-.46a2.92,2.92,0,0,1,0-.91l.19-.3.74-.39a2.75,2.75,0,0,1,0-.67,2.89,2.89,0,0,0,.06-.73l.2-.13.22,0,.65-.37c.23-.13.4-.08.56-.14s.28.13.42.18.37,0,.5.12.3,0,.43.07a.24.24,0,0,0,.26,0,.69.69,0,0,0,.38-.12l.31-.24.33-.09.24,0,.48.23.2.2c.2.2,0,0,.26-.09s.15,0,.32.21,0,0,0,.11,0,.12,0,.38.06.15,0,.3,0,.22,0,.41a.52.52,0,0,0,.16.35l.18.43.17.2.36-.16a2.09,2.09,0,0,0,.23-.32,3.91,3.91,0,0,0,.12-.56,1.68,1.68,0,0,0,0-.44,3.45,3.45,0,0,0-.07-.54l.05-.14a.48.48,0,0,0-.16-.5c-.15-.13.23-.29.23-.29l.17-.32a3.51,3.51,0,0,1,.47-.45c.2-.14.15,0,.29.06s.34-.09.45-.16a6.13,6.13,0,0,0,.53-.41c.37-.27.21-.09.4-.23s0,0,.45-.11,0,0,0-.11.1-.41.1-.41l.34-.54,1.11-1.09.35-.64.59-.06s.48-.08.71-.14a2.32,2.32,0,0,0,.45-.19l-.09-.27c-.08-.27,0-.26,0-.26l.47-.42.47.07a.56.56,0,0,0,.18-.36c0-.22.37-.05.37-.05l.32.14a1.08,1.08,0,0,1,0,.49c-.06.23.33-.05.48-.07s.15,0,.35-.24.11-.18.09-.18a3,3,0,0,1,.7-.06.65.65,0,0,0,.33,0,3.72,3.72,0,0,0,.56-.15c.16-.06.12-.1,0-.33s0,0-.14-.05a5.69,5.69,0,0,0-.58-.12c-.25-.06-.14-.13-.25-.1s0-.26-.15-.46.13-.18.13-.18a1.81,1.81,0,0,1,.36-.38c.15-.11,0-.42,0-.42a3.4,3.4,0,0,1,.25-.35c.12-.15.33,0,.44-.05a1.56,1.56,0,0,1,.47.12l.33,0a.6.6,0,0,0,.35-.2c.16-.18.22,0,.22,0l.23.28a2.13,2.13,0,0,1-.24.32,2.06,2.06,0,0,0-.3.54.6.6,0,0,0-.17.29c-.05.18.43.07.43.07a2,2,0,0,0,.6-.11.44.44,0,0,1,.43.11l.17.24.38.33.44,0,.31-.2a2,2,0,0,0-.18-.54c-.13-.24,0-.15.06-.33s.16-.14.25-.32,0,0-.17-.21-.15,0-.43-.1,0-.27,0-.46a1.29,1.29,0,0,1,.36-.87l.14-.3L26.47,16a1.09,1.09,0,0,0-.44-.48c-.29-.14,0,0-.11-.1a1,1,0,0,1-.15-.41s0-.41.22-.44-.31-.77-.31-.77a1.2,1.2,0,0,0-.06-.64c-.12-.23-.06-.16-.24-.21s-.19.1-.56.15-.45.53-.45.53a1.75,1.75,0,0,1-.45.19c-.19,0-.11,0-.42-.3a.32.32,0,0,1,0-.52s.09-.15.18-.33-.17-.24-.31-.36a1.15,1.15,0,0,1-.22-.39l-.83-.22a3,3,0,0,0-.8-.13c-.29,0-.23.1-.21.39s-.09.23-.36.28,0,.19,0,.38,0,.18-.08.18-.17.21-.36.27-.43,0-.56.15,0,0,.34.4-.05.15-.18.4a1.67,1.67,0,0,1-.38.57c-.32.39-.39.34-.39.34a4.47,4.47,0,0,0-.62-.05c-.4,0-.23.11-.35.25s-.1.26-.08.56,0,.19-.3.54-.27.17-.56.11,0,0-.28-.14,0-.3,0-.3a1.65,1.65,0,0,1,.34-.54,1.35,1.35,0,0,0,.37-.55c.05-.12-.06-.1-.25,0s-.1-.19-.24-.23-.14-.58-.5-.19-.24.21-.47.33-.08-.3-.24-.61-.31-.21-.5-.23-.31-.24-.56-.26-.08-.38-.08-.38l-.16-.32s.07-.37.12-.55.2-.21.28-.36.31-.2.61-.29a2.46,2.46,0,0,1,.93-.09c.18,0,.34-.15.57-.32A5.69,5.69,0,0,1,18,11c.23-.13.62.12.72.16s.25.14.53.31,0,0,.19-.1a3.72,3.72,0,0,1,.46-.19l.61.15c.21.06.26,0,.26,0a.26.26,0,0,0,.16-.18c.05-.15-.14-.16-.3-.36s0-.15,0-.46,0-.1.23-.13.32.1.44,0,.24-.24.39-.34a2.17,2.17,0,0,0,.63-.48c.24-.29.23-.14.44-.42s.19-.14.31-.21a2.31,2.31,0,0,1,.48-.11,1.36,1.36,0,0,1,.56.42c.13.23.07.08.13.19s.32.1.5.19.14.09.13.24-.09.18-.2.25a2.07,2.07,0,0,1-.57.14c-.18,0-.15.1-.28.36s-.2.13-.38.16-.22-.06-.5-.19-.41.05-.56.07-.2.18-.3.54.25.06.44,0,.58.08.84.06.24.13.24.24a3.38,3.38,0,0,0,.21.58c0,.12.27.24.27.24l.42.23.33.13.42-.27.54-.29.55-.38a.42.42,0,0,0,0-.3,4.44,4.44,0,0,0-.21-.62c-.16-.27.09-.18.17-.28s.25.13.25.13a3.25,3.25,0,0,1,.21.62c0,.19.22,0,.22,0l.42-.19a3.92,3.92,0,0,0,.44-.42c.16-.18.15-.14.17-.29s0-.3-.16-.39a2,2,0,0,0-.62-.23c-.26-.06-.09-.12,0-.34s0-.42,0-.53-.26-.43-.26-.43a1.77,1.77,0,0,0-.54-.15c-.11,0-.46-.19-.46-.19a.65.65,0,0,1-.15-.5.26.26,0,0,0-.27-.32l-1.35-.06-.74,0L22.66,7l-.52,0-.71.25-.37.46-.18.36.1.61-.16.14c-.15.14-.32-.06-.62-.05s-.15-.35-.13-.57a1.42,1.42,0,0,0-.15-.54l-.41-.29-.73.44a2.1,2.1,0,0,0-.31.2l.06.64,0,.19L18,8.63,17.25,9l-.47,0-.46.19h-.47L15.51,9A32.32,32.32,0,0,0,3.91,31.3c-.06.7-.09,1.39-.1,2.09h0C4.1,33.29,4.15,33.41,4.39,33.15Z"/>
              <path class="cls-3" d="M43.42,12c0-.1-.18-.2-.18-.2a.32.32,0,0,1-.14-.12c0-.08-.14,0-.16-.13a.4.4,0,0,0-.07-.16s-.26.1-.31.07-.14,0-.24,0l-.21.11-.12,0a.34.34,0,0,1-.17,0l-.24-.09a.48.48,0,0,0-.26,0c-.14,0-.2.09-.3,0l-.34-.17a.86.86,0,0,0-.32-.07l-.41.49.29.93.3.11.15-.1.19-.07.22,0s.13,0,.14.08a.26.26,0,0,0,.08.12s.08.16.12.15l.26,0,.16-.09L42,12.8s.05-.15.12-.16a.62.62,0,0,1,.23,0l.16,0a1.56,1.56,0,0,0,.22,0,1.18,1.18,0,0,1,.22-.14c.08,0,.14-.08.23-.06s.16,0,.18,0l.1-.22a.13.13,0,0,0,0-.14C43.42,12,43.44,12.1,43.42,12Z"/>
            </g>
            <g>
              <path class="cls-4" d="M58.74,56.05a1.78,1.78,0,0,1,.72-1.16c.28-.2.29.22,1.06-.63a2.75,2.75,0,0,0,.9-1.86c0-.49.62-.75.11-1.44s-.3-.86-.35-1.66a2.59,2.59,0,0,1,.6-1.93c.51-.75,1-1.81,1.93-2.12s1.2-.47,1.86-1.71,1.26-1.23,1.27-2.33-.11-1.42-.77-1.09-.49.42-1.3.35-1,.08-1.2-.55-.41-1.32-1-1.59-.9-.46-.79-.86a1.43,1.43,0,0,0-.31-1.36c-.41-.48.35.3-.39-1.2a13,13,0,0,1-1.25-2.61c0-.41.29-2.25-1.07-2.77,0,0-.25-.33-.82.31s-.92-.64-1.42-.49-.87-.29-1.05-.31-.69-.73-1-.41-.61-.28-.65.25.57.84,0,.8a2.31,2.31,0,0,1-1.14-.39c0-.08-.34-.18-.5-.11s-.17-.62-.17-.62l-.76-.29s-.28.21-.42.12-.59-.5-.59-.5l0-.42.23-.59v-.72l-.22,0-.58-.23-1.12.14-.23.06s.19-.06-.33-.1a2.38,2.38,0,0,0-1,.15,1.91,1.91,0,0,1-.47-.07c-.11,0-.45,0-.45,0l-.55.41-.76.17-.55,0-.33-.1-.32-.18a4.77,4.77,0,0,0-.71.55c-.08.15-.11.52-.57.64s-.65.7-.74,1a3.73,3.73,0,0,1-.67.85l-.55.42-.51,0-.34.57,0,.53a3.72,3.72,0,0,0-.55.41,2.14,2.14,0,0,0-.68,1.15c0,.34-.39.28-.42.65a3,3,0,0,0,.21,1l.07.57a4.63,4.63,0,0,1-.18.82,1.84,1.84,0,0,1-.34.61,1.3,1.3,0,0,0-.13,1.62c.42.79.86.82.86.82l.24.63.11.53.15.43.58.69.56.35.38.37.55.53.86-.15.64,0a.81.81,0,0,1,.27-.13,3.27,3.27,0,0,1,1,.31A1.53,1.53,0,0,0,44.1,42a7.47,7.47,0,0,0,.67-.44,2.26,2.26,0,0,1,.83-.16c.22,0,.6,0,.7.1a5.53,5.53,0,0,1,.33.55l.21.51.36.22.65-.18s.18,0,.42.27.43.26.32.7,0-.11-.29.78-.37,1.4.69,2.51l.26.93a1.23,1.23,0,0,1,.24.78c0,.57-.21.25-.06.75s.4.64.36,1.13-.31.62-.53,1a2.11,2.11,0,0,0-.45,1c-.17.75-.47.8-.24,1.54a15.17,15.17,0,0,0,1,2.08c.13.24-.29.85-.1,1.28s0,1.67.43,2.09,0,2.27.79,2.72a2.56,2.56,0,0,0,1.27.25,32.56,32.56,0,0,0,5.53-3.85.31.31,0,0,1,.16-.14q.51-.45,1-.93v-.05C58.76,56.66,58.61,56.68,58.74,56.05Z"/>
              <path class="cls-4" d="M19.65,61.57a.69.69,0,0,0,.44.09l.35-.53s-.07-.69.07-.84a4.93,4.93,0,0,1,.61-.48l.54-.61s.39-.65.51-.81.44-.7.44-.7a2.77,2.77,0,0,0,.05-.67c-.05-.06.41-.25.41-.25s.39-.08.31-.43-.2-1-.2-1,0-.73.36-.79.68.21.91.08.81-.36.81-.36a3.16,3.16,0,0,0,.84-.22c.29-.14.7-.39.7-.39l.05-.62a.44.44,0,0,1,0-.68c.41-.3.53-.4.55-.57a3.42,3.42,0,0,0-.07-.57s-.57-.45-.33-.71-.37-.2.05-.67a3,3,0,0,1,.83-.67s0,.11.25-.32A10.43,10.43,0,0,1,28.8,48a2,2,0,0,0,.39-.76c0-.17-.09-.24,0-.57a1,1,0,0,0,.05-.61l0-.45-.42-.27a.83.83,0,0,1-.55,0c-.21-.13-.34.14-.48-.21a4.29,4.29,0,0,0-.49-.77,1.75,1.75,0,0,0-.63-.45.92.92,0,0,0-.51.13l-.23.15s-.19.27-.34.09-.27-.14-.52-.44-.36-.26-.57-.44-.45-.55-.62-.51l-.4.14-.32-.14a.45.45,0,0,1-.19-.41l0-.45A1.64,1.64,0,0,1,23,41.5a1.58,1.58,0,0,0-.27-.7l-.41-.48-.71-.74-1-.35a.5.5,0,0,1-.66-.06c-.36-.31-.64-.27-.78-.62s-.48-.22-.45-.61.32-.53.29-.76a.68.68,0,0,0-.4-.54,2.39,2.39,0,0,0-.93-.08s-.26.44-.53.36a5.12,5.12,0,0,0-.81-.12l-.73-.51-.73-.51a2.47,2.47,0,0,0-.81-.23c-.17,0-.73.28-.73.28s-.37.47-.6.51a8.57,8.57,0,0,0-.84.27s.14.35,0,.4-.85.32-.85.32-.48.47-.32.54,0,.56.23.58.3.36.3.36.17.64-.06.79-.08.5-.37.53a1.41,1.41,0,0,0-.69.34,1,1,0,0,0-.45.75,1.9,1.9,0,0,1-.28.88c-.14.27-.36.31-.22.66a5.73,5.73,0,0,1,.21.75L9,43.82l0,.39-.05.62.37.31.27,0,.24.64,0,.34,0,.33.31,0,.13.4.07.52.34.36.2.47.24.36,0,.33.4.49.32,0a1.43,1.43,0,0,0,.4.6,1.92,1.92,0,0,0,.47.26l.38,0,.31.3.17.63.13.36.14.4v.62l-.13,1v.51l-.05.71.26.88-.32.49-.31.48,0,.11a32.34,32.34,0,0,0,6.14,4.84C19.48,61.58,19.56,61.51,19.65,61.57Z"/>
              <path class="cls-4" d="M59.16,11.35l-.66-.16-1.31-.38a.4.4,0,0,0-.32-.19c-.22,0-.73,0-.73,0l-.55,0-.51,0-.14.39s0-.18-.32-.2a4.6,4.6,0,0,0-1,.16l-.2.33-.52.3a4.67,4.67,0,0,0-.37.37,1.11,1.11,0,0,1-.53.41c-.23.1-.45.08-.58.3l0,.07h0l-.08.14c-.2.33-.27.6-.5.64s.22,0-.23,0a2.89,2.89,0,0,0-.79.17l-.4.14-.2.44L49.1,15s-.11.61.06.62l.16,0,.31.3L50,16l.53-.35.52-.25.41.49s0,.34.25.36.26.3.26.3l-.3.26-.35.2s-.2.33,0,.29.84,0,.84,0a.69.69,0,0,1,.28,0c.17,0,.49.15.62-.07a3.27,3.27,0,0,0,.26-.43.63.63,0,0,0,0-.4s0-.17.19-.33.37-.25.37-.25.38-.09.34-.26a1.14,1.14,0,0,0-.28-.53,1.64,1.64,0,0,1-.25-.53.35.35,0,0,1,.09-.45c.24-.21-.21-.13.24-.21s.15.24.46-.08.42-.42.43-.59-.38,0,0-.17,0-.34.4-.14a4.44,4.44,0,0,0,.65.27s.08.35-.2.44-.62.07-.75.23-.35.2-.36.37a1.15,1.15,0,0,0,0,.45l0,.18s-.1.61.19.52l.28-.09.36.37.33.08-.14.33,0,.34a.91.91,0,0,1-.4.14c-.17,0-.36.2-.36.2l-.2.49-.15.45-.36.26-.49,0-.33-.14-.48.3-.62.13-.32-.25a1.65,1.65,0,0,0-.72,0L51,18l-.35-.53s-.12.05,0-.29a2.12,2.12,0,0,0,.16-.61s.15-.5-.19-.35a2.56,2.56,0,0,0-.71.51s-.26.49-.17.67a1.53,1.53,0,0,1,.14.35l-.62.13a1,1,0,0,0-.76.39l-.19.39s-.27.49-.43.47h-.17s-.39,0-.52.25l-.13.27-.4.14a1.1,1.1,0,0,0-.38-.14c-.17,0,.18-.16-.17,0a.75.75,0,0,0-.42.43,1.83,1.83,0,0,0-.56-.05c-.17.05-.42-.31-.44,0s-.09.44.12.57.3.42.53.33.43.2.43.2.26.25.24.42a1.25,1.25,0,0,1-.14.44l-.21.49-.29.15-.39,0-.5,0-.56.08-.37-.2s-.25-.36-.37-.2-.71.17-.69.4-.33.09,0,.39a.85.85,0,0,1,.27.59c-.58.35-.49-.15-.58.35s-.36,0-.1.51l.26.53c0,.14-.12.5.12.66s.74-.26,1,.07.48.58.85.46.38.15.81-.07a8.64,8.64,0,0,0,.79-.47s-.31-.29,0-.38.42-.31.32-.46.22-.75.44-.7,1,.27,1-.43.43-.85.92-.64a.66.66,0,0,0,.82-.14c0-.08.09-.47.46-.28s.06.35.66.88A6.45,6.45,0,0,0,52,24.55c.22,0,.55.1.47.52s.16.72-.37.68-1-.4-1.08,0,.9.64,1,.84.35.46.38.12l.05-.56s.27.07.42-.34,0-.57,0-.57l0-.38s.14-.1.23,0,.17.5.38.38a.45.45,0,0,0,0-.68c-.2-.27-1.09-1-1.46-.91s-.18-.15-.27-.44a1.33,1.33,0,0,0-.35-.53s-.11-.33.06-.43a.59.59,0,0,1,.43-.11c.08,0,.27.47.27.47s.06.26.23.27.23.19.31.31.09.21.29.2.3.05.48.29.31.28.32.5.11.81.12.95-.15.13.19.44.56.35.58.74.16.89.47.77.32-.5.45-.7a.77.77,0,0,0,.19-.65c-.06-.29-.27-.48-.06-.6s.07-.51.3-.32.65,0,.66.48-.17.5-.06.87,0,.69.35.8,1.08.12,1.12.37a.47.47,0,0,0,.25.36l.32-.2,0-.34a1,1,0,0,1,.38.2.63.63,0,0,0,.32.16l.43-.16s.25-.32.46-.11.23.25.25.39a.74.74,0,0,1,0,.57c-.13.24-.16.27-.23.43a3.29,3.29,0,0,0-.37.8c0,.25,0,.48,0,.68a2.5,2.5,0,0,0,.15.87,3.16,3.16,0,0,0,.37,1,2.13,2.13,0,0,1,.34.68c0,.09.33.37.31.63s0,.45,0,.45l.32.22s.06-.08.16,0a.81.81,0,0,1,.17.35l.15,1.26s-.14,0,.23.28.45.06.53.44.27.45.43.86,0,.57.13.89.15.64.36.77-.09.36.23.65.43.26.89.07,1.24-.36,1.53-.54.34-.34.64-.26.18.21.58-.24.36-.57.87-.64l.16,0c.05-.4.1-.8.13-1.21.08-1,.11-2.06.1-3.07a1.74,1.74,0,0,0-.33.39c-.71,1.12-.74.09-.74.09s.15-.16-.18-.3-.27-.42-.31-.62.07-.54-.29-.62a1.64,1.64,0,0,1-.66-.43,1.17,1.17,0,0,1-.3-.82c0-.19.61-.29.61-.29l.42.74.24.45a6.65,6.65,0,0,0,1.52.71A32.36,32.36,0,0,0,60.1,12l-.25-.11A6.19,6.19,0,0,1,59.16,11.35Z"/>
              <path class="cls-4" d="M44.94,16.09l.15.19s.16.18.09.34l-.07.17a.6.6,0,0,1,.38.13c.15.13.38.09.42.27a1.23,1.23,0,0,1,0,.45.2.2,0,0,0-.34,0c-.18.22-.08.05-.23.38a5.24,5.24,0,0,1-.64.86s-.28.09,0,.34a2.23,2.23,0,0,0,.54.38c.53-.53.25-.49.53-.53a1,1,0,0,1,.44,0l.44,0,.35-.14c.23-.1,0,.28.23-.1l.25-.38s.47-.3.31-.37-.55,0-.64-.28-.4.09-.25-.36L47,17l-.41-.37s-.59.07-.24-.36l.35-.43s0-.34-.28-.41a2,2,0,0,0-1.2.13C45.08,15.76,44.79,15.91,44.94,16.09Z"/>
              <path class="cls-4" d="M44.86,17.78c0-.27-.22,0,0-.27l.25-.32-.42-.33s-.53-.34-.66-.05l-.13.28-.41.25-.28,0,0,.29a.74.74,0,0,0,0,.39l0,.18-.12.44s.32.2.54,0,.6-.07.56-.3l0-.23.44-.08S44.84,18.06,44.86,17.78Z"/>
              <path class="cls-4" d="M40.51,10.29l.18-.12.67-.12,0-.34,0-.56,0-.45.73-.12.53-.3s.46-.08.5-.36-.2-.47.06-.68,0,.29.26-.21.22-.55.52-.58.21-.21.44-.31-.07-.12.55-.07A3.3,3.3,0,0,0,46,6s-.05-.17-.43-.25-1.45-.17-1.45-.17-.69.07-.72,0a1.49,1.49,0,0,0-.72-.45L41.76,5a1.89,1.89,0,0,0-.89,0,2.05,2.05,0,0,1-.63.24,1.21,1.21,0,0,1-1.1-.14,2,2,0,0,0-1-.41.6.6,0,0,0-.72-.06,2.38,2.38,0,0,1-.87.52c-.17,0-.19.21-.56.07s-.55-.15-.82-.23a3.54,3.54,0,0,0-.92-.18,2.61,2.61,0,0,0-1.44,0c-.58.24-.42.31-1,.32s-.81-.28-1.05,0-.14.33-.48.42a2.66,2.66,0,0,1-.94,0,1,1,0,0,0-.68.21l.25,1,.39,0s.32.13.49,0a5.14,5.14,0,0,1,.75-.43c.12,0-.32-.1.12,0a3.1,3.1,0,0,1,1.05.63l-.06.8-.6.52.5.77.24.43-.3.3a.57.57,0,0,0-.85.16,2.23,2.23,0,0,0-.33.71v.74l.22.64.3.5-.09.42.33,0,.44,0s.41-.3.49,0a.9.9,0,0,0,.24.47.69.69,0,0,0,.57-.13,5.41,5.41,0,0,0,.55-.66l0-.48.83-.56.44-.08,0-.4h.61l.66.05.35-.2L37,11l.35-.26.52-.19.46-.22a.39.39,0,0,1,.5,0,.37.37,0,0,0,.49,0l.5,0A2.53,2.53,0,0,0,40.51,10.29Z"/>
              <path class="cls-4" d="M13.89,31.64l-.36-.31-.3-.42-.18-.41-.79-.45L11.6,30a3,3,0,0,0-.71-.06l-.78.17c-.23,0-.58.4-.75.5l.32.13.71.05s.84-.2,1-.25.58.37.58.37.31.27.24.43.23.53.23.53l.38,0,.71.05.33,0Z"/>
              <path class="cls-4" d="M16.56,32.64s-1.33-.56-1.5-.57l-.71,0a.25.25,0,0,0-.14.38.47.47,0,0,1,0,.5l-.6,0s-.17.15,0,.28a4.42,4.42,0,0,0,.63.33s.49.15.66.05.07-.22.4-.25a1.35,1.35,0,0,1,.82.06,2.09,2.09,0,0,0,.93.08C17.13,33.14,16.56,32.64,16.56,32.64Z"/>
              <path class="cls-4" d="M4.39,33.15c.24-.27.48.15.48.15a2.61,2.61,0,0,1,.44.59,2.69,2.69,0,0,1,.23.59c.08.34.22,0,.48.15s.43.09.63.32.34-.08.49,0a.62.62,0,0,0,.44,0l0,.63c0,.28.09.29.33.7a1.19,1.19,0,0,1,.29.42c0,.17.41.36.41.36l.25.31a3.19,3.19,0,0,0,.69.33c.16,0,.31.31.31.31l.29-.26.27,0,.06-.73A.43.43,0,0,0,10,37a.53.53,0,0,1-.44,0l-.24-.36-.42-.26,0-.5L9,34.92l.37-.42a1.58,1.58,0,0,0,.14-.44c0-.17-.39-.55-.39-.55l-.38-.08s-.66.06-.82-.06a.21.21,0,0,0-.27,0l0-.35a1.09,1.09,0,0,1,.16-.64.61.61,0,0,0,.15-.45l.48-.53.55-.7-.48-.19-.28.13c-.29.13-.27-.12-.49,0l-.85.29c-.39.13,0,.33,0,.55s-.13.16-.43.48,0,0-.12.24-.33,0-.55,0a.65.65,0,0,1-.38,0c-.16,0-.37-.17-.52,0s-.36-.56-.39-.78S4,30.76,4,30.76s.25-.32.15-.46a2.92,2.92,0,0,1,0-.91l.19-.3.74-.39a2.75,2.75,0,0,1,0-.67,2.89,2.89,0,0,0,.06-.73l.2-.13.22,0,.65-.37c.23-.13.4-.08.56-.14s.28.13.42.18.37,0,.5.12.3,0,.43.07a.24.24,0,0,0,.26,0,.69.69,0,0,0,.38-.12l.31-.24.33-.09.24,0,.48.23.2.2c.2.2,0,0,.26-.09s.15,0,.32.21,0,0,0,.11,0,.12,0,.38.06.15,0,.3,0,.22,0,.41a.52.52,0,0,0,.16.35l.18.43.17.2.36-.16a2.09,2.09,0,0,0,.23-.32,3.91,3.91,0,0,0,.12-.56,1.68,1.68,0,0,0,0-.44,3.45,3.45,0,0,0-.07-.54l.05-.14a.48.48,0,0,0-.16-.5c-.15-.13.23-.29.23-.29l.17-.32a3.51,3.51,0,0,1,.47-.45c.2-.14.15,0,.29.06s.34-.09.45-.16a6.13,6.13,0,0,0,.53-.41c.37-.27.21-.09.4-.23s0,0,.45-.11,0,0,0-.11.1-.41.1-.41l.34-.54,1.11-1.09.35-.64.59-.06s.48-.08.71-.14a2.32,2.32,0,0,0,.45-.19l-.09-.27c-.08-.27,0-.26,0-.26l.47-.42.47.07a.56.56,0,0,0,.18-.36c0-.22.37-.05.37-.05l.32.14a1.08,1.08,0,0,1,0,.49c-.06.23.33-.05.48-.07s.15,0,.35-.24.11-.18.09-.18a3,3,0,0,1,.7-.06.65.65,0,0,0,.33,0,3.72,3.72,0,0,0,.56-.15c.16-.06.12-.1,0-.33s0,0-.14-.05a5.69,5.69,0,0,0-.58-.12c-.25-.06-.14-.13-.25-.1s0-.26-.15-.46.13-.18.13-.18a1.81,1.81,0,0,1,.36-.38c.15-.11,0-.42,0-.42a3.4,3.4,0,0,1,.25-.35c.12-.15.33,0,.44-.05a1.56,1.56,0,0,1,.47.12l.33,0a.6.6,0,0,0,.35-.2c.16-.18.22,0,.22,0l.23.28a2.13,2.13,0,0,1-.24.32,2.06,2.06,0,0,0-.3.54.6.6,0,0,0-.17.29c-.05.18.43.07.43.07a2,2,0,0,0,.6-.11.44.44,0,0,1,.43.11l.17.24.38.33.44,0,.31-.2a2,2,0,0,0-.18-.54c-.13-.24,0-.15.06-.33s.16-.14.25-.32,0,0-.17-.21-.15,0-.43-.1,0-.27,0-.46a1.29,1.29,0,0,1,.36-.87l.14-.3L26.47,16a1.09,1.09,0,0,0-.44-.48c-.29-.14,0,0-.11-.1a1,1,0,0,1-.15-.41s0-.41.22-.44-.31-.77-.31-.77a1.2,1.2,0,0,0-.06-.64c-.12-.23-.06-.16-.24-.21s-.19.1-.56.15-.45.53-.45.53a1.75,1.75,0,0,1-.45.19c-.19,0-.11,0-.42-.3a.32.32,0,0,1,0-.52s.09-.15.18-.33-.17-.24-.31-.36a1.15,1.15,0,0,1-.22-.39l-.83-.22a3,3,0,0,0-.8-.13c-.29,0-.23.1-.21.39s-.09.23-.36.28,0,.19,0,.38,0,.18-.08.18-.17.21-.36.27-.43,0-.56.15,0,0,.34.4-.05.15-.18.4a1.67,1.67,0,0,1-.38.57c-.32.39-.39.34-.39.34a4.47,4.47,0,0,0-.62-.05c-.4,0-.23.11-.35.25s-.1.26-.08.56,0,.19-.3.54-.27.17-.56.11,0,0-.28-.14,0-.3,0-.3a1.65,1.65,0,0,1,.34-.54,1.35,1.35,0,0,0,.37-.55c.05-.12-.06-.1-.25,0s-.1-.19-.24-.23-.14-.58-.5-.19-.24.21-.47.33-.08-.3-.24-.61-.31-.21-.5-.23-.31-.24-.56-.26-.08-.38-.08-.38l-.16-.32s.07-.37.12-.55.2-.21.28-.36.31-.2.61-.29a2.46,2.46,0,0,1,.93-.09c.18,0,.34-.15.57-.32A5.69,5.69,0,0,1,18,11c.23-.13.62.12.72.16s.25.14.53.31,0,0,.19-.1a3.72,3.72,0,0,1,.46-.19l.61.15c.21.06.26,0,.26,0a.26.26,0,0,0,.16-.18c.05-.15-.14-.16-.3-.36s0-.15,0-.46,0-.1.23-.13.32.1.44,0,.24-.24.39-.34a2.17,2.17,0,0,0,.63-.48c.24-.29.23-.14.44-.42s.19-.14.31-.21a2.31,2.31,0,0,1,.48-.11,1.36,1.36,0,0,1,.56.42c.13.23.07.08.13.19s.32.1.5.19.14.09.13.24-.09.18-.2.25a2.07,2.07,0,0,1-.57.14c-.18,0-.15.1-.28.36s-.2.13-.38.16-.22-.06-.5-.19-.41.05-.56.07-.2.18-.3.54.25.06.44,0,.58.08.84.06.24.13.24.24a3.38,3.38,0,0,0,.21.58c0,.12.27.24.27.24l.42.23.33.13.42-.27.54-.29.55-.38a.42.42,0,0,0,0-.3,4.44,4.44,0,0,0-.21-.62c-.16-.27.09-.18.17-.28s.25.13.25.13a3.25,3.25,0,0,1,.21.62c0,.19.22,0,.22,0l.42-.19a3.92,3.92,0,0,0,.44-.42c.16-.18.15-.14.17-.29s0-.3-.16-.39a2,2,0,0,0-.62-.23c-.26-.06-.09-.12,0-.34s0-.42,0-.53-.26-.43-.26-.43a1.77,1.77,0,0,0-.54-.15c-.11,0-.46-.19-.46-.19a.65.65,0,0,1-.15-.5.26.26,0,0,0-.27-.32l-1.35-.06-.74,0L22.66,7l-.52,0-.71.25-.37.46-.18.36.1.61-.16.14c-.15.14-.32-.06-.62-.05s-.15-.35-.13-.57a1.42,1.42,0,0,0-.15-.54l-.41-.29-.73.44a2.1,2.1,0,0,0-.31.2l.06.64,0,.19L18,8.63,17.25,9l-.47,0-.46.19h-.47L15.51,9A32.32,32.32,0,0,0,3.91,31.3c-.06.7-.09,1.39-.1,2.09h0C4.1,33.29,4.15,33.41,4.39,33.15Z"/>
              <path class="cls-4" d="M43.42,12c0-.1-.18-.2-.18-.2a.32.32,0,0,1-.14-.12c0-.08-.14,0-.16-.13a.4.4,0,0,0-.07-.16s-.26.1-.31.07-.14,0-.24,0l-.21.11-.12,0a.34.34,0,0,1-.17,0l-.24-.09a.48.48,0,0,0-.26,0c-.14,0-.2.09-.3,0l-.34-.17a.86.86,0,0,0-.32-.07l-.41.49.29.93.3.11.15-.1.19-.07.22,0s.13,0,.14.08a.26.26,0,0,0,.08.12s.08.16.12.15l.26,0,.16-.09L42,12.8s.05-.15.12-.16a.62.62,0,0,1,.23,0l.16,0a1.56,1.56,0,0,0,.22,0,1.18,1.18,0,0,1,.22-.14c.08,0,.14-.08.23-.06s.16,0,.18,0l.1-.22a.13.13,0,0,0,0-.14C43.42,12,43.44,12.1,43.42,12Z"/>
            </g>
          </g>
          <path class="cls-5" d="M64.44,17.89A53.32,53.32,0,0,1,51.67,40.4c-9.39,9.91-22.12,16.2-35.88,18.74A32.45,32.45,0,0,0,64.44,17.89Z"/>
          <g class="cls-6">
            <path class="cls-7" d="M68.49,22.92c-4.38-.17-9.47.3-13.62-1.27a.51.51,0,0,0-.35,1c4.29,1.61,9.37,1.15,13.89,1.32C69.05,23.94,69.14,22.94,68.49,22.92Z"/>
            <path class="cls-7" d="M17.09,48.23a1.23,1.23,0,0,1-.78-.07.57.57,0,0,0-.61.08A79.54,79.54,0,0,1,5.46,48a.69.69,0,0,0-.11,1.37,79,79,0,0,0,10.77.22l.08,0a2.58,2.58,0,0,0,1.14,0C18.2,49.39,18,48,17.09,48.23Z"/>
            <path class="cls-7" d="M58.61,46.13h0C58.46,46.11,58.57,46.12,58.61,46.13Z"/>
            <path class="cls-7" d="M58.61,46.13h0Z"/>
            <path class="cls-7" d="M58.62,46.13h0a.48.48,0,0,0-.44.18,37.55,37.55,0,0,1-6-.22q-3.39-.2-6.77-.44a.57.57,0,0,0-.1,1.13c2.61.19,5.21.36,7.82.5a20,20,0,0,0,5.57,0A.57.57,0,0,0,58.62,46.13Z"/>
            <path class="cls-7" d="M50.82,59.84l-1.57,1.33a.79.79,0,0,0-.42.16c-4.42.45-14.77-1.35-15.72-1.6s-1.33,1.06-.47,1.29c2.77.73,21.19,5,19.5-1.07C52,59.36,51,59.13,50.82,59.84Z"/>
            <path class="cls-7" d="M21.25,15.74a.57.57,0,0,0-.78.09H20a110,110,0,0,1-16.53-.61.58.58,0,0,0-.09,1.16A110.77,110.77,0,0,0,20,17a3,3,0,0,0,1.29-.11A.58.58,0,0,0,21.25,15.74Z"/>
            <path class="cls-7" d="M58.26,8.46A.69.69,0,0,0,58,7.11c-2.53.5-7.49,1.68-9.21-1-.47-.74-1.71-.15-1.24.59C49.73,10.11,54.93,9.12,58.26,8.46Z"/>
          </g>
          <path class="cls-8" d="M49.46,57.88c.17-2.36-.82-4.71-3.3-5.48a4,4,0,0,0-5.1,2.25,3.92,3.92,0,0,0-6.5,2.77c-3.2-.94-4,3.26.2,3.45a.69.69,0,0,0,.25,0,19.83,19.83,0,0,0,3.44.46,9.61,9.61,0,0,0,2.89.23c1.48.09,3,.17,4.45.21,1.29,0,3,.34,4.22-.16C52.52,60.59,51.42,57.51,49.46,57.88Z"/>
          <path class="cls-8" d="M20.52,15.19c-1.22-.11-1.65-1-2.34-.95.08-1.08.22-2.45-1.1-2.9a1.48,1.48,0,0,0-1.24.07c-.1-2.59-.63-5.82-3.94-6.18-4-.42-5.39,3.23-5.86,6A1.85,1.85,0,0,0,3.39,12.3,4.74,4.74,0,0,0,3,14.11a1.85,1.85,0,0,0-.92.25c-.36.2-.15.66.17.78a2.72,2.72,0,0,0,1.37.18,144,144,0,0,0,16.86.78C21.11,16.09,21.22,15.25,20.52,15.19Z"/>
          <path class="cls-8" d="M74.76,22.51a3.86,3.86,0,0,1-1.16-.39.45.45,0,0,0-.35-.24l-.3-.25c-.17-.39-.28-1.12-.42-1.3a1.32,1.32,0,0,0-.88-.49.86.86,0,0,0-.32.05c0-1.2-.19-2.5-1.32-3a1.59,1.59,0,0,0-1.7.11,2.31,2.31,0,0,0-.91,1.18c-.62-3.1-2.11-6.9-5.47-7-4.45-.2-5.4,5.3-5.43,8.49-1.13,0-2.37.31-2.23,1.56a1.26,1.26,0,0,0,1,1.09.54.54,0,0,0,.79.15l.26,0a14,14,0,0,0,3.46.21l4.76.27,10,.58C75.13,23.52,75.4,22.64,74.76,22.51Z"/>
          <path class="cls-8" d="M60.83,5.94C59.18,5.53,59.37,3.25,57.71,3a1.41,1.41,0,0,0-1,.23C56.1,1.62,55.13,0,53.19,0s-2.58,1.72-2.51,3.39c-1.72-.33-3.77.18-3,2.48.86,2.54,4.63,2.29,7.25,2a.53.53,0,0,0,.22,0l4.66-.39a.48.48,0,0,0,.44-.36l.48,0A.62.62,0,0,0,60.83,5.94Z"/>
          <path class="cls-8" d="M58.58,45.81a16.13,16.13,0,0,1-1.68-.76c-.3-.22-.41-.61-.7-.85a1,1,0,0,0-.8-.69,1,1,0,0,0-1,.32l-.14,0c-.19-1.35-.6-2.81-1.93-3.41-1.75-.78-3.27.44-4.19,1.83-1.56-.69-2.6.79-2.81,2.35-.16.12-.32.24-.51.4a.5.5,0,0,0,.28.88q6.57.63,13.16.8C58.7,46.73,59,46.07,58.58,45.81Z"/>
          <path class="cls-8" d="M16.89,47.82c-.63-.36-1.46-.52-2-.93-.36-.26-.49-.74-.85-1a1.22,1.22,0,0,0-1-.84,1.23,1.23,0,0,0-1.23.39l-.17.05c-.22-1.64-.73-3.41-2.34-4.13-2.12-.94-4,.54-5.07,2.22-1.9-.84-3.16,1-3.41,2.85-.19.14-.39.29-.62.48a.61.61,0,0,0,.34,1.06q8,.78,16,1C17,48.93,17.46,48.13,16.89,47.82Z"/>
        </g>
      </g>
    </g>
  </g>
</svg>
