<svg xmlns="http://www.w3.org/2000/svg" width="54.5" height="54.5" viewBox="0 0 54.5 54.5">
  <defs>
    <style>
      .cls-1 {
        isolation: isolate;
      }

      .cls-2 {
        fill: #d6995a;
      }

      .cls-3 {
        opacity: 0.74;
      }

      .cls-4 {
        fill: #dfbf99;
      }

      .cls-5 {
        fill: #f8dd9a;
      }

      .cls-6 {
        fill: #a4693d;
      }

      .cls-7 {
        fill: #decfbc;
      }

      .cls-8 {
        fill: #a67645;
        opacity: 0.28;
        mix-blend-mode: multiply;
      }
    </style>
  </defs>
  <title>Asset 4</title>
  <g class="cls-1">
    <g id="Layer_2" data-name="Layer 2">
      <g id="Layer_1-2" data-name="Layer 1">
        <g>
          <circle class="cls-2" cx="27.25" cy="27.25" r="27.25" transform="translate(-10.72 20.68) rotate(-35.19)"/>
          <g class="cls-3">
            <path class="cls-2" d="M2.75,15.32c-.12.24-.24.5-.35.75q8,1,16.1,1.6Q10.6,16.8,2.75,15.32Z"/>
            <path class="cls-2" d="M48.7,10.46A124,124,0,0,1,9.76,6.35,27.59,27.59,0,0,0,5.29,11.1a203.23,203.23,0,0,0,45.81,3A27.36,27.36,0,0,0,48.7,10.46Z"/>
            <path class="cls-2" d="M15.86,2.5h0l.07,0Z"/>
            <path class="cls-2" d="M46.48,8s0,0,0,0A96.8,96.8,0,0,1,13.34,3.83c-.17.1-.34.19-.5.3q3.77,1,7.59,1.89A116.33,116.33,0,0,0,46.48,8Z"/>
            <path class="cls-2" d="M44.32,6c-.39-.32-.8-.62-1.2-.91a134.68,134.68,0,0,1-26.5-2.38A95.26,95.26,0,0,0,44.32,6Z"/>
            <path class="cls-2" d="M32.28.47A27,27,0,0,0,24.75.12l9.13.71C33.35.69,32.82.57,32.28.47Z"/>
            <path class="cls-2" d="M16.59,46.37l.62.14-.47-.11Z"/>
            <path class="cls-2" d="M35,50.78l5.6.22.09,0c-2.25-.09-4.5-.18-6.75-.31Z"/>
            <path class="cls-2" d="M.05,28.85a26.68,26.68,0,0,0,.43,3.48q24.48,2.49,48.83,6C32.94,35,16.75,30.14.05,28.85Z"/>
            <path class="cls-2" d="M10,40.42a60,60,0,0,1,8.25,2.17c3.82,1.07,7.64,2.15,11.51,2.93,2.36.32,4.73.61,7.09.88l.56.05q4.37.27,8.74.42A26,26,0,0,0,49,43.64Q25.64,40.22,2.12,37.78c.19.45.39.89.6,1.33A71.91,71.91,0,0,1,10,40.42Z"/>
            <path class="cls-2" d="M29.65,27q12.42-.33,24.85-.24a29.2,29.2,0,0,0-.38-4.1c-15.84.38-31.65-.83-47.43-2.32L1,19.94c-.21.75-.4,1.5-.54,2.28,0,.23-.08.46-.11.7A239.15,239.15,0,0,1,29.65,27Z"/>
            <path class="cls-2" d="M38.94,3.1l1,0c-.2-.11-.4-.2-.6-.3A.74.74,0,0,1,38.94,3.1Z"/>
            <path class="cls-2" d="M29.18,54,21,53.54l-1.15-.07c.77.22,1.55.41,2.35.56a27.06,27.06,0,0,0,8.92.18Z"/>
            <path class="cls-4" d="M54.11,31.74a27.82,27.82,0,0,0,.39-4.95Q42.07,26.7,29.65,27C37.81,28.59,45.94,30.3,54.11,31.74Z"/>
            <path class="cls-5" d="M53,18.23a26.63,26.63,0,0,0-1.85-4.15,203.23,203.23,0,0,1-45.81-3,28,28,0,0,0-2.54,4.22q7.83,1.47,15.75,2.35A306.91,306.91,0,0,0,53,18.23Z"/>
            <path class="cls-5" d="M51.89,38.89l-2.58-.52Q25,34.82.48,32.33a27.43,27.43,0,0,0,1.64,5.45Q25.62,40.21,49,43.64A26.83,26.83,0,0,0,51.89,38.89Z"/>
            <path class="cls-5" d="M16.62,2.72A134.68,134.68,0,0,0,43.12,5.1a26.35,26.35,0,0,0-3.21-2l-1,0a.75.75,0,0,1-.31.06Q30.92,2.88,23.27,2L20,1.72a.9.9,0,0,1-.55-.23l-.76-.11A27.92,27.92,0,0,0,15.86,2.5l.05,0Z"/>
            <path class="cls-5" d="M33.93,50.64c2.25.13,4.5.22,6.75.31a26.06,26.06,0,0,0,2.59-1.68c-1.62,0-3.25-.1-4.87-.22L24,49a1.05,1.05,0,0,1-1-1.31q-2.88-.49-5.73-1.16l-.62-.14q-5.26-1-10.48-2.34L5.75,44a27.22,27.22,0,0,0,2,2.3C16.44,48,25.16,49.53,33.93,50.64Z"/>
            <path class="cls-6" d="M46.43,7.9A26.87,26.87,0,0,0,44.32,6a95.26,95.26,0,0,1-27.7-3.29l-.71-.19-.07,0c-.86.4-1.69.84-2.5,1.32A96.8,96.8,0,0,0,46.43,7.9Z"/>
            <path class="cls-6" d="M16.93,19.08q9,.54,17.91.87c6.23.19,12.46.24,18.69.09-.17-.61-.36-1.21-.58-1.81a306.91,306.91,0,0,1-34.45-.56q-8.07-.59-16.1-1.6c-.27.6-.52,1.21-.75,1.84l4.12.4Q11.35,18.71,16.93,19.08Z"/>
            <path class="cls-6" d="M53.08,35.89a28.55,28.55,0,0,0,1-3.61c0-.18,0-.36.08-.54C45.94,30.3,37.81,28.59,29.65,27A239.15,239.15,0,0,0,.36,22.92a24.51,24.51,0,0,0-.3,2.67C18,27,35.42,32.49,53.08,35.89Z"/>
            <path class="cls-6" d="M29.18,54l2,.19A27.08,27.08,0,0,0,40.59,51L35,50.78l-1.06-.14C25.16,49.53,16.44,48,7.75,46.28a27.15,27.15,0,0,0,12.12,7.19l1.15.07Z"/>
            <path class="cls-7" d="M54.12,22.69c-.16-.9-.35-1.78-.59-2.65-6.23.15-12.46.1-18.69-.09q-9-.33-17.91-.87-5.58-.36-11.16-.77l-4.12-.4c-.24.66-.45,1.34-.64,2l5.68.43C22.47,21.86,38.28,23.07,54.12,22.69Z"/>
            <path class="cls-7" d="M49.31,38.37l2.58.52a27.94,27.94,0,0,0,1.19-3c-17.66-3.4-35-8.87-53-10.3a25.35,25.35,0,0,0,0,3.26C16.75,30.14,32.94,35,49.31,38.37Z"/>
            <path class="cls-7" d="M16.59,46.37l.15,0,.47.11q2.85.66,5.73,1.16A1.05,1.05,0,0,0,24,49l14.45.07c1.62.12,3.25.19,4.87.22a26.25,26.25,0,0,0,2.87-2.4q-4.38-.15-8.74-.42l-.56-.05c-2.36-.27-4.73-.56-7.09-.88a54.29,54.29,0,0,0,9.63,1.18c1.26,0,1.43,2,.16,2-7-.18-13.7-2-20.39-3.9a.89.89,0,0,1-.49,0L4.38,42c.43.67.88,1.31,1.37,1.94l.36.05Q11.32,45.35,16.59,46.37Z"/>
            <path class="cls-4" d="M20,1.72,23.27,2q7.65.9,15.36,1.19a.75.75,0,0,0,.31-.06.74.74,0,0,0,.37-.28,26.86,26.86,0,0,0-5.43-2L24.75.12A26.67,26.67,0,0,0,18.7,1.38l.76.11A.9.9,0,0,0,20,1.72Z"/>
            <path class="cls-4" d="M19.15,44.77c6.69,1.87,13.39,3.72,20.39,3.9,1.27,0,1.1-1.94-.16-2a54.29,54.29,0,0,1-9.63-1.18c-3.87-.78-7.69-1.86-11.51-2.93A60,60,0,0,0,10,40.42a71.91,71.91,0,0,0-7.27-1.31A27.24,27.24,0,0,0,4.38,42l14.28,2.77A.89.89,0,0,0,19.15,44.77Z"/>
            <path class="cls-7" d="M48.7,10.46A27.85,27.85,0,0,0,46.48,8,116.33,116.33,0,0,1,20.43,6q-3.83-.84-7.59-1.89A28.94,28.94,0,0,0,9.76,6.35,124,124,0,0,0,48.7,10.46Z"/>
          </g>
          <path class="cls-8" d="M47.5,9a47.2,47.2,0,0,1-13,28.32,47.14,47.14,0,0,1-21.8,13A27.24,27.24,0,0,0,47.5,9Z"/>
        </g>
      </g>
    </g>
  </g>
</svg>
