<svg xmlns="http://www.w3.org/2000/svg" width="129.27" height="129.27" viewBox="0 0 129.27 129.27">
  <defs>
    <style>
      .cls-1 {
        isolation: isolate;
      }

      .cls-2 {
        fill: #e67153;
      }

      .cls-3 {
        opacity: 0.74;
      }

      .cls-4 {
        fill: #df7658;
      }

      .cls-5 {
        fill: #b76045;
      }

      .cls-6 {
        fill: #f4cb8a;
      }

      .cls-7 {
        fill: #fe8661;
      }

      .cls-8 {
        fill: #de9a6d;
      }

      .cls-9 {
        fill: #ff8560;
      }

      .cls-10 {
        fill: #c2c2c2;
        opacity: 0.57;
        mix-blend-mode: multiply;
      }
    </style>
  </defs>
  <title>Asset 10</title>
  <g class="cls-1">
    <g id="Layer_2" data-name="Layer 2">
      <g id="Layer_1-2" data-name="Layer 1">
        <g>
          <circle class="cls-2" cx="64.63" cy="64.63" r="64.63"/>
          <g class="cls-3">
            <path class="cls-4" d="M1.41,78a1.74,1.74,0,0,0,.05.22l2.25-.35Z"/>
            <path class="cls-4" d="M69,52.76q3-.55,6-1-3.25.33-6.51.7A1,1,0,0,1,69,52.76Z"/>
            <path class="cls-5" d="M52.25,82.62a1.12,1.12,0,0,0-.77.69,1.39,1.39,0,0,0,1,2.48l2.57-.32a1.33,1.33,0,0,0,.84.1l5.32-.87Q95,80.42,128.48,74.76a64.25,64.25,0,0,0,.78-11.4q-17.47,3.72-34.67,8.53Q73.26,76.62,52.25,82.62Z"/>
            <path class="cls-6" d="M46.14,106.76l4-.51a1.32,1.32,0,0,0,1.07-.75q6.75-1.71,13.48-3.58c1.63-.45.79-2.85-.73-2.75-16.47,1.07-32.72,3.91-48.92,6.93A65.47,65.47,0,0,0,21,112.29q12.65-2.48,25.15-5.53Z"/>
            <path class="cls-7" d="M74.78,110.38a1.18,1.18,0,0,0-.83.27c-1.66.45-1.29,3.14.49,2.82l1.25-.24c11.07.08,22.35.08,33.31-1.6a64.84,64.84,0,0,0,11.35-14.25,244.54,244.54,0,0,1-45,13Z"/>
            <path class="cls-8" d="M59.21,122.3l.25-.14a1.24,1.24,0,0,0,.48-1.54,3.34,3.34,0,0,0-2.43-3.87c-2.08-.7-4.62-.61-6.79-.65a59.8,59.8,0,0,0-7.69.32,60.6,60.6,0,0,0-12.9,2.86A64.28,64.28,0,0,0,51,127.82,37.27,37.27,0,0,0,56.24,125,10.18,10.18,0,0,0,59.21,122.3Z"/>
            <path class="cls-9" d="M61.69,70.73c15.63-3.4,31-8.07,46.28-12.77a40.48,40.48,0,0,0,7.45-2.83,51.5,51.5,0,0,0,5.07-1.89q2.31-.93,4.55-2c1.14-.57,1.18-2.67-.35-2.75s-2.81-.11-4.21-.12a1.17,1.17,0,0,0-1-.58c-2,0-3.91,0-5.85,0,0-.12-.05-.24-.09-.36a1.47,1.47,0,0,0-1.51-.87A480.1,480.1,0,0,0,32.76,55Q23,56.56,13.37,59.09,6.68,60.67,0,62.43A64.13,64.13,0,0,0,.52,72.75c.22,1.79.52,3.54.89,5.28l2.3-.13-2.25.35c.24,1.13.51,2.24.8,3.34A421.92,421.92,0,0,0,61.69,70.73ZM75,51.71q-3,.49-6,1a1,1,0,0,0-.48-.35Q71.78,52,75,51.71Z"/>
            <path class="cls-8" d="M72.35,36.12c9.75-.67,19.52-.69,29.29-.92a171.8,171.8,0,0,0,19.79-1.43,64.3,64.3,0,0,0-6.79-10.09c-22.54,2.71-45.08,5.65-67.4,9.79a1.33,1.33,0,0,0-.93-.16A301.22,301.22,0,0,0,3.7,43.07a62.86,62.86,0,0,0-1.83,6.09,315.4,315.4,0,0,1,41.6-9.71Q57.83,37.13,72.35,36.12Z"/>
            <path class="cls-5" d="M60.1,19.24c-16.53.86-32.67,4.43-48.63,8.64a65.53,65.53,0,0,0-4.34,7.25Q34.21,29.55,60.83,22C62.48,21.53,61.61,19.17,60.1,19.24Z"/>
            <path class="cls-7" d="M23.66,16.85a367.54,367.54,0,0,1,47.6-7.11q13-.75,25.95-.21l1.3.07a64.42,64.42,0,0,0-22-8.51A189,189,0,0,0,34.58,9c-1.47.31-2.94.63-4.41,1a64.48,64.48,0,0,0-10.26,8l2.42-.79Z"/>
          </g>
          <path class="cls-10" d="M102.49,12.24a75.78,75.78,0,0,1-88,93.13,64.63,64.63,0,1,0,88-93.13Z"/>
        </g>
      </g>
    </g>
  </g>
</svg>
