<svg xmlns="http://www.w3.org/2000/svg" xmlns:xlink="http://www.w3.org/1999/xlink" width="55.43" height="47.78" viewBox="0 0 55.43 47.78">
  <defs>
    <style>
      .cls-1 {
        fill: none;
      }

      .cls-2 {
        isolation: isolate;
      }

      .cls-3 {
        clip-path: url(#clip-path);
      }

      .cls-4 {
        fill: #7f7d6e;
      }

      .cls-5 {
        fill: #9c9986;
      }

      .cls-6 {
        fill: #b0b0b0;
        opacity: 0.51;
        mix-blend-mode: multiply;
      }
    </style>
    <clipPath id="clip-path" transform="translate(5.52 3.39)">
      <circle class="cls-1" cx="22.19" cy="22.19" r="22.19"/>
    </clipPath>
  </defs>
  <title>Asset 9</title>
  <g class="cls-2">
    <g id="Layer_2" data-name="Layer 2">
      <g id="Layer_1-2" data-name="Layer 1">
        <g class="cls-3">
          <circle class="cls-4" cx="27.71" cy="25.58" r="22.19"/>
          <path class="cls-5" d="M48.49,18.41A2.12,2.12,0,0,0,47.8,17l.12-.29c2.31-.38,2.11-4.31-.59-4.53C39.16,11.53,30.89,14,22.81,15a234.26,234.26,0,0,1-24.26,1.7l-.37,0a2.88,2.88,0,0,0-.6,0h-.1a2.14,2.14,0,0,0-1.56.65c-2.13.83-1.91,4.53.75,4.38,1.54-.09,3.08-.11,4.62-.1,2.18.12,4.37.21,6.56.29,13.52,1,27,4.12,40.44.79C50.59,22.14,50.23,19.14,48.49,18.41Z" transform="translate(5.52 3.39)"/>
          <path class="cls-5" d="M42.11,6.56C27.61,5.23,13.54,11.4-.95,9.38c-.95-.13-1.36,1.33-.4,1.46,14.65,2,28.82-4.1,43.46-2.76C43.09,8.17,43.08,6.65,42.11,6.56Z" transform="translate(5.52 3.39)"/>
          <path class="cls-5" d="M35.17-2.37c-.9.28-1.79.53-2.69.78a1.7,1.7,0,0,0-2.29-1.68A85.44,85.44,0,0,1,7.56,1.44C5.48,1.37,3.4,1.24,1.31,1c-2.43-.25-2.41,3.55,0,3.79l.52.05a1.7,1.7,0,0,0,1.37.57c1.48,0,3-.1,4.43-.2A86.23,86.23,0,0,0,36.17,1.28C38.5.56,37.5-3.11,35.17-2.37Z" transform="translate(5.52 3.39)"/>
          <path class="cls-5" d="M48.91,29.39l-1.67.11c.28-.48.1-1.21-.58-1.12-16.06,1.94-32.14-1.12-48.23-.11-1,.06-1,1.58,0,1.52,10.89-.69,21.78.49,32.66.72q-16.3.91-32.63,1.38a.76.76,0,0,0,0,1.52q25.24-.69,50.45-2.5C49.88,30.84,49.88,29.32,48.91,29.39Z" transform="translate(5.52 3.39)"/>
          <path class="cls-5" d="M47,35.24A238.89,238.89,0,0,0,2.17,38c-2.4.38-1.38,4,1,3.66A234,234,0,0,1,47,39C49.47,39.11,49.47,35.32,47,35.24Z" transform="translate(5.52 3.39)"/>
          <path class="cls-5" d="M30.64,41.39a5.18,5.18,0,0,0-4.5,0,.93.93,0,0,0-.56.63l-.11.12a1.15,1.15,0,0,0,.5,1.9,5.34,5.34,0,0,0,4.67-.72C31.26,42.92,31.49,41.77,30.64,41.39Z" transform="translate(5.52 3.39)"/>
          <path class="cls-6" d="M36.21,5A56.42,56.42,0,0,1,23.66,23.23,55.92,55.92,0,0,1,4.83,36,22.19,22.19,0,1,0,36.21,5Z" transform="translate(5.52 3.39)"/>
        </g>
      </g>
    </g>
  </g>
</svg>
