<svg xmlns="http://www.w3.org/2000/svg" xmlns:xlink="http://www.w3.org/1999/xlink" width="102.06" height="95.02" viewBox="0 0 102.06 95.02">
  <defs>
    <style>
      .cls-1 {
        fill: none;
      }

      .cls-2 {
        isolation: isolate;
      }

      .cls-3 {
        clip-path: url(#clip-path);
      }

      .cls-4 {
        fill: #5593cc;
      }

      .cls-5, .cls-6 {
        fill: #b0dcff;
      }

      .cls-6 {
        opacity: 0.75;
      }

      .cls-7 {
        fill: #e6f4ff;
      }

      .cls-8 {
        fill: #def0ff;
      }

      .cls-9 {
        fill: #ccc;
        mix-blend-mode: multiply;
      }
    </style>
    <clipPath id="clip-path">
      <circle class="cls-1" cx="47.51" cy="47.51" r="47.51" transform="translate(-11.65 79.35) rotate(-73.29)"/>
    </clipPath>
  </defs>
  <title>Asset 8</title>
  <g class="cls-2">
    <g id="Layer_2" data-name="Layer 2">
      <g id="Layer_1-2" data-name="Layer 1">
        <g class="cls-3">
          <circle class="cls-4" cx="47.51" cy="47.51" r="47.51" transform="translate(-11.65 79.35) rotate(-73.29)"/>
          <path class="cls-5" d="M33.37,19.72c0,1.86-4.34,3.36-9.71,3.36S14,21.58,14,19.72s4.35-3.36,9.71-3.36S33.37,17.86,33.37,19.72Z"/>
          <path class="cls-6" d="M102.06,31c0,3.76-13.34,6.81-29.8,6.81S42.46,34.76,42.46,31s13.34-6.82,29.8-6.82S102.06,27.23,102.06,31Z"/>
          <ellipse class="cls-5" cx="30.09" cy="80.8" rx="18.68" ry="7.3"/>
          <path class="cls-7" d="M72.67,80.53a2.55,2.55,0,0,0-.24-.39.76.76,0,0,0-.13-.23,4.23,4.23,0,0,0-.56-.56A4.62,4.62,0,0,0,65,80,4.13,4.13,0,0,0,67.9,86.5a3.11,3.11,0,0,0,.61,0c.11,0,.2,0,.31,0A4.17,4.17,0,0,0,72.67,80.53Z"/>
          <path class="cls-5" d="M77.37,76.54a1.06,1.06,0,0,0-1.13.26s0,0-.07,0a1.36,1.36,0,0,0-.33,2.1c.62.67,1.65.3,2.2-.27A1.31,1.31,0,0,0,77.37,76.54Z"/>
          <path class="cls-8" d="M21.91,63.78c-1.1-3.53-5.9-3.78-8.85-2.94A6.84,6.84,0,0,0,10.84,62,4.69,4.69,0,0,0,8.14,65c-.71,2.93,1.57,4.6,4.07,5.23a7.3,7.3,0,0,0,5.73-.36C20.56,68.93,22.87,66.86,21.91,63.78Zm-2.66-.72a2.21,2.21,0,0,1,1,1.87A4.46,4.46,0,0,0,19.25,63.06Z"/>
          <path class="cls-5" d="M89.33,62.37c.91-1.29.77-2.92-1.47-4.54-2.56-1.86-6-2.34-9.55-2.14a29.49,29.49,0,0,0-10,.25,20.29,20.29,0,0,0-3.09.81l-.48.15c-2,.7-5.85,2.41-6.16,4.76A1.8,1.8,0,0,0,59.51,64h0c2.59,2.92,16.89,4.73,23.84,2.1,2-.29,3.9-1,4.83-2.27A2.94,2.94,0,0,0,89.33,62.37Z"/>
          <path class="cls-8" d="M57.78,5.7l-1.72-.23a1.12,1.12,0,0,0-.39-.13,31.28,31.28,0,0,0-5.2-.16,45.37,45.37,0,0,0-6.65.53.9.9,0,0,0,0,1.73l.16,0a.77.77,0,0,0,.46.3,26.79,26.79,0,0,0,13.34-.33C58.57,7.21,58.7,5.84,57.78,5.7Z"/>
          <path class="cls-5" d="M43.9,62.39h-.07a.77.77,0,0,0-.45-.26A21.36,21.36,0,0,0,41,61.81a18.37,18.37,0,0,0-9,1.11c-.88.34-.84,1.79.24,1.76l2.6-.07a18.16,18.16,0,0,0,9.1-.48A.91.91,0,0,0,43.9,62.39Z"/>
          <path class="cls-9" d="M43.64,68C25.83,66.55,10.3,60.43.22,52a47.5,47.5,0,0,0,94.05,3.9C83.08,64.8,64.36,69.76,43.64,68Z"/>
        </g>
      </g>
    </g>
  </g>
</svg>
