<svg xmlns="http://www.w3.org/2000/svg" xmlns:xlink="http://www.w3.org/1999/xlink" width="133.09" height="103.2" viewBox="0 0 133.09 103.2">
  <defs>
    <style>
      .cls-1 {
        fill: none;
      }

      .cls-2 {
        isolation: isolate;
      }

      .cls-3 {
        clip-path: url(#clip-path);
      }

      .cls-4 {
        fill: #fef5c5;
      }

      .cls-5 {
        fill: #f4c16d;
      }

      .cls-5, .cls-6, .cls-7 {
        opacity: 0.78;
      }

      .cls-6 {
        fill: #b1a97e;
      }

      .cls-7 {
        fill: #bb9263;
      }

      .cls-8 {
        fill: #bdbdbd;
        opacity: 0.75;
      }

      .cls-8, .cls-9 {
        mix-blend-mode: multiply;
      }

      .cls-9 {
        fill: #182527;
        opacity: 0.24;
      }

      .cls-10 {
        fill: #f8c23a;
      }

      .cls-11 {
        fill: #fbdd85;
      }
    </style>
    <clipPath id="clip-path" transform="translate(0 1.02)">
      <circle class="cls-1" cx="68.4" cy="50.68" r="50.67" transform="translate(-1.31 99.54) rotate(-71.56)"/>
    </clipPath>
  </defs>
  <title>Asset 6</title>
  <g class="cls-2">
    <g id="Layer_2" data-name="Layer 2">
      <g id="Layer_1-2" data-name="Layer 1">
        <g>
          <g class="cls-3">
            <circle class="cls-4" cx="68.4" cy="50.68" r="50.67" transform="translate(-1.31 100.56) rotate(-71.56)"/>
            <g>
              <path class="cls-4" d="M17.1,54.78l0-.46q4.28,7.34,9.22,14.25Q21.4,61.88,17.1,54.78Z" transform="translate(0 1.02)"/>
              <path class="cls-4" d="M19.33,35.06A51.28,51.28,0,0,1,26,21.47,274.31,274.31,0,0,0,58.54,66.28,265.47,265.47,0,0,0,82.89,90.19c2.68,2.31,5.4,4.56,8.21,6.7A51.66,51.66,0,0,1,77,101.43,199.27,199.27,0,0,1,19.33,35.06Z" transform="translate(0 1.02)"/>
              <path class="cls-4" d="M46.9,3.81A51.43,51.43,0,0,1,58.65,0a285.18,285.18,0,0,0,59.26,65,51.5,51.5,0,0,1-4.77,11.21A240.1,240.1,0,0,1,46.9,3.81Z" transform="translate(0 1.02)"/>
              <path class="cls-4" d="M78.93.19A50.85,50.85,0,0,1,91.5,4.56a124.93,124.93,0,0,0,25.28,28.26,51.23,51.23,0,0,1,2.91,12.63A260,260,0,0,1,78.93.19Z" transform="translate(0 1.02)"/>
              <path class="cls-5" d="M68.69-.89A51.24,51.24,0,0,1,78.93.19a260,260,0,0,0,40.76,45.26,51.23,51.23,0,0,1,.06,9.75A274.13,274.13,0,0,1,68.69-.89Z" transform="translate(0 1.02)"/>
              <path class="cls-5" d="M34.17,12.16a50.62,50.62,0,0,1,5-3.94,249.52,249.52,0,0,0,68.9,75.29q-1.56,1.88-3.31,3.63c-.78.77-1.58,1.5-2.39,2.22A231.29,231.29,0,0,1,34.17,12.16Z" transform="translate(0 1.02)"/>
              <path class="cls-5" d="M26.29,68.57q-4.93-6.9-9.22-14.25A51.86,51.86,0,0,1,17.49,43a205.18,205.18,0,0,0,51.42,59.15,51.66,51.66,0,0,1-13-1.54A190.27,190.27,0,0,1,26.29,68.57Z" transform="translate(0 1.02)"/>
              <path class="cls-6" d="M58.65,0a51.26,51.26,0,0,1,10-.93A274.13,274.13,0,0,0,119.75,55.2,51.61,51.61,0,0,1,117.91,65,285.18,285.18,0,0,1,58.65,0Z" transform="translate(0 1.02)"/>
              <path class="cls-6" d="M58.54,66.28A274.31,274.31,0,0,1,26,21.47a51,51,0,0,1,6.12-7.35c.68-.68,1.38-1.33,2.08-2a231.29,231.29,0,0,0,68.23,77.2,51.28,51.28,0,0,1-11.3,7.53c-2.81-2.14-5.53-4.39-8.21-6.7A265.47,265.47,0,0,1,58.54,66.28Z" transform="translate(0 1.02)"/>
              <path class="cls-6" d="M17.1,54.78q4.3,7.09,9.19,13.79a190.27,190.27,0,0,0,29.59,32A51.47,51.47,0,0,1,17.1,54.78Z" transform="translate(0 1.02)"/>
              <path class="cls-7" d="M39.2,8.22a51,51,0,0,1,7.7-4.41,240.1,240.1,0,0,0,66.24,72.43,51.33,51.33,0,0,1-5,7.27A249.52,249.52,0,0,1,39.2,8.22Z" transform="translate(0 1.02)"/>
              <path class="cls-7" d="M17.49,43a51.94,51.94,0,0,1,1.84-7.92A199.27,199.27,0,0,0,77,101.43a51.67,51.67,0,0,1-8,.7A205.18,205.18,0,0,1,17.49,43Z" transform="translate(0 1.02)"/>
              <path class="cls-7" d="M91.5,4.56a51.49,51.49,0,0,1,25.28,28.26A124.93,124.93,0,0,1,91.5,4.56Z" transform="translate(0 1.02)"/>
            </g>
            <path class="cls-8" d="M72.69-.85a58.37,58.37,0,0,0-5.45,4.79A59,59,0,0,0,84.65,99.62,51.61,51.61,0,1,1,72.69-.85Z" transform="translate(0 1.02)"/>
            <path class="cls-9" d="M15.11,56.1A140.32,140.32,0,0,0,91,96.57c3.4.61,2,5.8-1.38,5.19A145.3,145.3,0,0,1,11.31,59.89C8.91,57.41,12.71,53.61,15.11,56.1Z" transform="translate(0 1.02)"/>
          </g>
          <path class="cls-10" d="M1.11,36.3C1,36,1,35.76.88,35.49s-.07-.24-.1-.36c-.08-.31-.15-.61-.22-.91A1.42,1.42,0,0,0,.51,34c-.08-.37-.14-.74-.2-1.11,0-.09,0-.18,0-.28,0-.27-.08-.55-.11-.82,0-.12,0-.24,0-.36l-.06-.77c0-.1,0-.21,0-.32q0-.53,0-1.05v-.07c0-.32,0-.65,0-1l0-.31c0-.25,0-.49.07-.73s0-.22,0-.33.07-.52.12-.78c0-.07,0-.15,0-.22.06-.33.14-.65.22-1,0-.08,0-.16.07-.23.07-.25.14-.49.22-.73s.07-.21.11-.31.16-.44.25-.66.07-.19.11-.28q.19-.46.42-.9c.17-.32.34-.64.53-.94,0-.08.09-.15.14-.23.15-.24.3-.47.47-.7a2.43,2.43,0,0,1,.14-.2c.18-.25.37-.49.56-.73l.1-.11c5.82-7,18-9.53,33.16-7.84a50.79,50.79,0,0,0-6,5.64c-6.58.7-11.38,3-13.45,7.12-.12.23-.23.47-.33.7h0C12.21,36.24,30.34,56.85,58.27,71.07c19.13,9.75,38,14,50.09,12.27l.38-.07c.39-.06.76-.12,1.13-.2l.36-.07a23.42,23.42,0,0,0,2.75-.74l.12,0a12.86,12.86,0,0,0,7.05-5.17h0c.13-.22.26-.45.38-.68,2.14-4.2,1.08-9.68-2.49-15.63a51.41,51.41,0,0,0,1-8c10.13,11,15.37,22,13.78,30.8h0v0c-.06.35-.13.69-.22,1,0,.06,0,.11,0,.17-.08.29-.16.58-.26.86,0,.08-.05.16-.07.24-.09.27-.19.53-.3.79a2.6,2.6,0,0,1-.1.25c-.14.33-.28.66-.45,1s-.32.59-.49.88c-.05.08-.1.17-.16.25s-.25.41-.39.61l-.18.26c-.16.22-.32.43-.49.64l-.12.16c-.22.26-.44.51-.67.76l-.17.17c-.18.19-.36.38-.55.56l-.24.22-.58.51-.21.17c-.27.22-.55.44-.84.65l-.08,0c-.26.19-.53.38-.8.55l-.26.16c-.23.15-.47.29-.71.43l-.26.15q-.47.27-1,.51h0c-.35.18-.71.34-1.07.5l-.22.09-.89.37-.27.11-1,.36-.14,0c-.41.14-.82.27-1.24.39l-.06,0c-.39.11-.78.22-1.19.32l-.24.06-1.13.25-.18,0q-1.35.28-2.79.48l-.15,0-1.32.17-.17,0c-1.5.16-3.06.25-4.66.29h-.13c-1.64,0-3.32,0-5.06-.07h0c-2.34-.12-4.78-.35-7.28-.69h0c-12.84-1.76-27.63-6.45-42.42-14A141.7,141.7,0,0,1,19,61.89h0c-.45-.41-.88-.83-1.32-1.25l-.32-.32-1-.94L16,59c-.32-.33-.64-.65-.95-1l-.26-.27q-.6-.63-1.17-1.26l-.16-.18-1-1.07-.31-.36L11.44,54l-.3-.35-.94-1.15a.86.86,0,0,1-.07-.1c-.34-.41-.66-.83-1-1.25l-.24-.31-.69-.94-.28-.38-.66-.94-.21-.31c-.28-.41-.56-.82-.82-1.23l-.1-.16-.67-1.07-.22-.36-.52-.89-.21-.36-.56-1L3.87,43c-.21-.41-.41-.81-.6-1.21l-.15-.3c-.14-.3-.28-.6-.41-.9-.06-.12-.12-.25-.17-.37-.13-.29-.25-.58-.37-.87L2,39c-.15-.39-.3-.78-.44-1.16l0-.12c-.12-.35-.24-.69-.34-1C1.18,36.54,1.14,36.42,1.11,36.3Z" transform="translate(0 1.02)"/>
          <path class="cls-11" d="M17.53,58.49l.82.81.32.31L20,60.86A140.73,140.73,0,0,0,52.19,83.05c14.17,7.22,28.64,12,41.85,13.84l.15,0c2.46.34,4.87.57,7.17.68,1.73.09,3.39.12,5,.08h.1c1.59,0,3.13-.14,4.57-.29l.18,0,1.28-.16.14,0c.93-.13,1.84-.28,2.71-.46l.18,0,1.08-.25.24-.06c.38-.09.77-.2,1.14-.3l1.25-.39.13,0,1-.35.26-.1.85-.35.2-.09c.35-.15.69-.31,1-.47l.93-.49.24-.14.67-.4.24-.15c.26-.17.51-.34.75-.52l.07,0,.79-.61.18-.16c.19-.16.37-.31.55-.48l.21-.2a6.14,6.14,0,0,0,.51-.51l.16-.16c.21-.22.41-.46.61-.69l.11-.15c.16-.19.3-.39.45-.59l.16-.23c.13-.19.25-.37.36-.55l.15-.24c.16-.26.31-.53.45-.8s.28-.6.41-.9l.09-.22q.15-.36.27-.72l.06-.18c.09-.3.17-.57.24-.83l0-.15c.08-.31.15-.63.2-.94l0-.06C132.9,75.59,128.88,66,120.2,55.9c-.15,1.53-.37,3-.66,4.55,3.72,6.4,4.5,12.09,2.27,16.48-.14.26-.29.52-.44.77l-.66,1.08-.08,0a14.77,14.77,0,0,1-7,4.68l-.13,0a23.88,23.88,0,0,1-2.9.78l-.38.08c-.38.08-.78.14-1.18.21l-.4.06c-12.76,1.85-32.26-2.9-50.89-12.39-12-6.13-22.5-13.51-30.3-21.34h0c-9.62-9.66-13.9-18.95-11.95-25.75l-.06,0,.45-1.14c.12-.27.24-.54.37-.8,2.17-4.25,7-6.94,14-7.78q1.61-1.74,3.37-3.33c-13.49-1-23.9,1.75-28.83,7.66l-.07.07-.54.7L4,20.64l-.42.64-.13.21c-.17.28-.33.56-.48.85s-.26.55-.38.83l-.11.26c-.08.19-.16.39-.23.6l-.1.28c-.07.22-.14.44-.2.66l-.06.22c-.08.29-.14.59-.2.89l0,.21c0,.23-.08.47-.11.71l0,.27c0,.26-.05.48-.06.71l0,.28,0,.91v.08c0,.31,0,.63,0,1l0,.29c0,.24,0,.49.06.73l0,.34c0,.25.07.51.11.77l0,.26c.06.35.12.7.2,1l0,.2.21.87.09.34c.07.26.15.52.22.79l.11.33c.1.33.21.66.32,1l0,.07c.15.42.29.79.44,1.17l.12.31.36.84.16.37c.13.28.26.57.4.86l.14.3.59,1.16.09.17.55,1,.21.35c.16.29.33.58.5.86l.22.36c.21.35.42.69.65,1l.1.16c.25.4.52.8.8,1.2l.21.3c.21.31.42.62.64.92l.27.38.69.92.23.3c.31.42.63.83,1,1.24l.08.1.91,1.12.3.35.77.9.32.37.94,1,.15.17c.38.41.76.83,1.15,1.24l.26.27c.31.33.62.65.94,1Z" transform="translate(0 1.02)"/>
        </g>
      </g>
    </g>
  </g>
</svg>
