<svg xmlns="http://www.w3.org/2000/svg" xmlns:xlink="http://www.w3.org/1999/xlink" width="130.61" height="102.76" viewBox="0 0 130.61 102.76">
  <defs>
    <style>
      .cls-1 {
        fill: none;
      }

      .cls-2 {
        isolation: isolate;
      }

      .cls-3 {
        clip-path: url(#clip-path);
      }

      .cls-4 {
        fill: #52c2cd;
      }

      .cls-5 {
        fill: #82dadb;
      }

      .cls-6 {
        fill: #bff2f1;
      }

      .cls-7 {
        fill: #9ce6e5;
      }

      .cls-8 {
        fill: #a6a6a6;
        opacity: 0.35;
        mix-blend-mode: multiply;
      }

      .cls-9 {
        fill: #d6d7d9;
      }
    </style>
    <clipPath id="clip-path" transform="translate(19.98 14.39)">
      <circle class="cls-1" cx="54.65" cy="43.55" r="43.54" transform="translate(-3.22 82.73) rotate(-72.65)"/>
    </clipPath>
  </defs>
  <title>Asset 7</title>
  <g class="cls-2">
    <g id="Layer_2" data-name="Layer 2">
      <g id="Layer_1-2" data-name="Layer 1">
        <g>
          <g class="cls-3">
            <circle class="cls-4" cx="54.65" cy="43.55" r="43.54" transform="matrix(0.17, -0.98, 0.98, 0.17, 22.24, 104.19)"/>
            <path class="cls-5" d="M104.39,50h-3.32a2.57,2.57,0,0,1,0-5.13h2a3.93,3.93,0,0,0,0-7.86H94.72a2.61,2.61,0,0,1-1.93-2.41A2.77,2.77,0,0,1,95.71,32H96a3.93,3.93,0,1,0,0-7.86H50.06a3.93,3.93,0,0,0,0,7.86H73a2.76,2.76,0,0,1,2.92,2.56A2.61,2.61,0,0,1,74,37h-2.2a3.93,3.93,0,0,0,0,7.86h10a2.57,2.57,0,0,1,0,5.13H58.48a3.93,3.93,0,0,0,0,7.86h7.68a2.66,2.66,0,0,1,2.08,2.41c0,1.41-1.42,2.56-3.16,2.56h-1a3.94,3.94,0,0,0-3.93,3.93h0a3.94,3.94,0,0,0,3.93,3.93H74.72a2.53,2.53,0,0,1,2.49,2.57,2.57,2.57,0,0,1-1.66,2.41H54.92a6.38,6.38,0,1,0,0,12.75H94.63a6.38,6.38,0,1,0,0-12.75H93.19a2.57,2.57,0,0,1-1.67-2.41A2.53,2.53,0,0,1,94,70.64h1.36a3.94,3.94,0,0,0,3.93-3.93h0a3.94,3.94,0,0,0-3.93-3.93H89.61c-1.74,0-3.16-1.15-3.16-2.56a2.67,2.67,0,0,1,2.09-2.41h15.85a3.93,3.93,0,0,0,0-7.86Z" transform="translate(19.98 14.39)"/>
            <path class="cls-6" d="M34.89,47.11a6.61,6.61,0,0,0-6.38-6.78H27.07a2.72,2.72,0,0,1-1.66-2.56A2.63,2.63,0,0,1,27.89,35h1.37a4.07,4.07,0,0,0,3.93-4.17h0a4.07,4.07,0,0,0-3.93-4.18H23.5A3,3,0,0,1,20.34,24a2.8,2.8,0,0,1,2.08-2.57H38.28a4.06,4.06,0,0,0,3.92-4.17,4.06,4.06,0,0,0-3.92-4.18H35a2.62,2.62,0,0,1-2.49-2.72A2.63,2.63,0,0,1,35,7.6h2a4.07,4.07,0,0,0,3.93-4.18A4.07,4.07,0,0,0,37-.75H28.61a2.74,2.74,0,0,1-1.93-2.56A2.84,2.84,0,0,1,29.6-6h.26a4.07,4.07,0,0,0,3.93-4.18,4.07,4.07,0,0,0-3.93-4.17H-16A4.07,4.07,0,0,0-20-10.22,4.07,4.07,0,0,0-16-6h23A2.85,2.85,0,0,1,9.83-3.31,2.76,2.76,0,0,1,7.9-.75H5.7A4.07,4.07,0,0,0,1.77,3.42,4.07,4.07,0,0,0,5.7,7.6h10a2.63,2.63,0,0,1,2.49,2.73,2.62,2.62,0,0,1-2.49,2.72H-7.64a4.06,4.06,0,0,0-3.92,4.18A4.06,4.06,0,0,0-7.64,21.4H0A2.81,2.81,0,0,1,2.13,24,3,3,0,0,1-1,26.69H-2A4.06,4.06,0,0,0-6,30.87h0A4.06,4.06,0,0,0-2,35H8.61a2.62,2.62,0,0,1,2.48,2.73,2.71,2.71,0,0,1-1.66,2.56H-11.19a6.61,6.61,0,0,0-6.38,6.78,6.61,6.61,0,0,0,6.38,6.78h39.7A6.61,6.61,0,0,0,34.89,47.11Z" transform="translate(19.98 14.39)"/>
            <path class="cls-6" d="M58,18a3.3,3.3,0,1,0,3.3-3.31A3.3,3.3,0,0,0,58,18Z" transform="translate(19.98 14.39)"/>
            <path class="cls-7" d="M35.32,76.07a2.54,2.54,0,1,0,2.54,2.54A2.54,2.54,0,0,0,35.32,76.07Z" transform="translate(19.98 14.39)"/>
            <path class="cls-6" d="M51.48,10.38h5.87a3.69,3.69,0,0,0,0-7.38H51.48a3.69,3.69,0,1,0,0,7.38Z" transform="translate(19.98 14.39)"/>
            <path class="cls-7" d="M51.57,65.23A4.55,4.55,0,0,0,47,60.7H30.61a4.53,4.53,0,1,0,0,9H47A4.54,4.54,0,0,0,51.57,65.23Z" transform="translate(19.98 14.39)"/>
            <path class="cls-8" d="M68.16,58.35c-14,11.9-30.16,17.89-43,17.19A43.54,43.54,0,0,0,91.85,20.91C89.75,33.21,81.39,47.13,68.16,58.35Z" transform="translate(19.98 14.39)"/>
          </g>
          <path class="cls-9" d="M95.84,29.44c.16.47.31.94.45,1.42,5.63.23,9.11,1.25,9.54,3.11C107,39,85.25,48.37,57.25,54.83S5.61,62.41,4.44,57.34C4,55.48,6.7,53,11.66,50.36c-.08-.49-.16-1-.22-1.47C3.75,52.73-.58,56.4.06,59.17,1.5,65.4,27.4,64.74,57.92,57.71s54.09-17.78,52.65-24C109.93,30.93,104.43,29.53,95.84,29.44Z" transform="translate(19.98 14.39)"/>
        </g>
      </g>
    </g>
  </g>
</svg>
