<svg xmlns="http://www.w3.org/2000/svg" xmlns:xlink="http://www.w3.org/1999/xlink" width="57.29" height="57.29" viewBox="0 0 57.29 57.29">
  <defs>
    <style>
      .cls-1 {
        isolation: isolate;
      }

      .cls-2 {
        fill: #e66160;
      }

      .cls-10, .cls-11, .cls-12, .cls-13, .cls-3, .cls-4, .cls-5, .cls-6, .cls-7, .cls-8, .cls-9 {
        opacity: 0.69;
      }

      .cls-3 {
        fill: url(#linear-gradient);
      }

      .cls-4 {
        fill: url(#linear-gradient-2);
      }

      .cls-5 {
        fill: url(#linear-gradient-3);
      }

      .cls-6 {
        fill: url(#linear-gradient-4);
      }

      .cls-7 {
        fill: url(#linear-gradient-5);
      }

      .cls-8 {
        fill: url(#linear-gradient-6);
      }

      .cls-9 {
        fill: url(#linear-gradient-7);
      }

      .cls-10 {
        fill: url(#linear-gradient-8);
      }

      .cls-11 {
        fill: url(#linear-gradient-9);
      }

      .cls-12 {
        fill: url(#linear-gradient-10);
      }

      .cls-13 {
        fill: url(#linear-gradient-11);
      }

      .cls-14 {
        fill: #919191;
        opacity: 0.38;
        mix-blend-mode: multiply;
      }
    </style>
    <linearGradient id="linear-gradient" x1="-242.63" y1="1072.11" x2="-233.83" y2="1072.11" gradientTransform="matrix(-1, 0, 0, 1, -199.04, -1063.38)" gradientUnits="userSpaceOnUse">
      <stop offset="0.01" stop-color="#c93e3d"/>
      <stop offset="1" stop-color="#d04746"/>
    </linearGradient>
    <linearGradient id="linear-gradient-2" x1="-233.3" y1="1088.17" x2="-217.66" y2="1088.17" xlink:href="#linear-gradient"/>
    <linearGradient id="linear-gradient-3" x1="-217.99" y1="1071.53" x2="-213.93" y2="1071.53" xlink:href="#linear-gradient"/>
    <linearGradient id="linear-gradient-4" x1="-244.06" y1="1110.66" x2="-238.11" y2="1110.66" xlink:href="#linear-gradient"/>
    <linearGradient id="linear-gradient-5" x1="-221.02" y1="1110.71" x2="-211.71" y2="1110.71" xlink:href="#linear-gradient"/>
    <linearGradient id="linear-gradient-6" x1="-235.92" y1="1105.57" x2="-228.98" y2="1105.57" xlink:href="#linear-gradient"/>
    <linearGradient id="linear-gradient-7" x1="-253.92" y1="1089.04" x2="-245.4" y2="1089.04" xlink:href="#linear-gradient"/>
    <linearGradient id="linear-gradient-8" x1="-250.82" y1="1099.71" x2="-248.52" y2="1099.71" xlink:href="#linear-gradient"/>
    <linearGradient id="linear-gradient-9" x1="-207.59" y1="1082.43" x2="-202.62" y2="1082.43" xlink:href="#linear-gradient"/>
    <linearGradient id="linear-gradient-10" x1="-233.3" y1="1116.85" x2="-226.8" y2="1116.85" xlink:href="#linear-gradient"/>
    <linearGradient id="linear-gradient-11" x1="-210.48" y1="1094.71" x2="-203.02" y2="1094.71" xlink:href="#linear-gradient"/>
  </defs>
  <title>Asset 5</title>
  <g class="cls-1">
    <g id="Layer_2" data-name="Layer 2">
      <g id="Layer_1-2" data-name="Layer 1">
        <g>
          <circle class="cls-2" cx="28.65" cy="28.65" r="28.65"/>
          <path class="cls-3" d="M37.5,4.67a3.76,3.76,0,0,1,1.7,0c3.2.1,6.11,5.11,3.19,7.36s-7.33,0-7.59-3.41A3.73,3.73,0,0,1,37.5,4.67Z"/>
          <path class="cls-4" d="M23.53,14.63a1.77,1.77,0,0,1,1.5-.27c3.42-.81,6.53,1.47,7.92,4.48,2.74,5.92,1.65,18.56-7.58,16.27C16.49,32.9,16.89,19,23.53,14.63Z"/>
          <path class="cls-5" d="M17.38,6.2a1.52,1.52,0,0,1,1.06.48,1.41,1.41,0,0,1,.47,1.45,2.68,2.68,0,0,1-2.6,2,1.45,1.45,0,0,1-1.42-1.43A2.45,2.45,0,0,1,17.38,6.2Z"/>
          <path class="cls-6" d="M39.12,46.64A3,3,0,1,1,43.36,50a2.75,2.75,0,0,1-3.25-.58h0A3,3,0,0,1,39.12,46.64Z"/>
          <path class="cls-7" d="M13.84,44.33A4.66,4.66,0,0,1,15,43.54a4.29,4.29,0,0,1,2.16-.73,4.58,4.58,0,0,1,2.93.89A3.93,3.93,0,0,1,22,46.6a3.46,3.46,0,0,1,0,1.07,3.68,3.68,0,0,1-.19,1.23,4.47,4.47,0,0,1-5.31,2.81,4.75,4.75,0,0,1-1-.43,4.82,4.82,0,0,1-1.34-.89A4.25,4.25,0,0,1,13.84,44.33Z"/>
          <path class="cls-8" d="M30,42.29s0-.09,0-.14a3.55,3.55,0,0,1,2.39-3.25,3.5,3.5,0,1,1-1.49,5.7A3.38,3.38,0,0,1,30,42.66h0C30,42.53,30,42.41,30,42.29Z"/>
          <path class="cls-9" d="M49.72,21.65a4.36,4.36,0,0,1,4.43,2A4,4,0,0,1,54.6,25a3.23,3.23,0,0,1-.94,3.82,4.37,4.37,0,0,1-4.73.4,4.49,4.49,0,0,1-2.54-3.51A3.69,3.69,0,0,1,49.72,21.65Z"/>
          <path class="cls-10" d="M50.54,35.11a.92.92,0,0,1,.62.1h0a1.25,1.25,0,0,1,.24,1.94,1.1,1.1,0,0,1-1.9-.38A1.34,1.34,0,0,1,50.54,35.11Z"/>
          <path class="cls-11" d="M3.58,19A2.51,2.51,0,0,1,7,16.75a2.59,2.59,0,0,1,1.18,3.7,2.3,2.3,0,0,1-2.45,1,2.14,2.14,0,0,1-.44-.18A2.47,2.47,0,0,1,3.58,19Z"/>
          <path class="cls-12" d="M28.11,53a6.18,6.18,0,0,1,5.61-.68.77.77,0,0,1,.51.91.59.59,0,0,1-.24.59,5.29,5.29,0,0,1-1.69.89l-.21.07a5,5,0,0,1-4-.55A.72.72,0,0,1,28.11,53Z"/>
          <path class="cls-13" d="M4.06,30.45A3.73,3.73,0,1,1,8.33,35a3.58,3.58,0,0,1-4-2.28A3.33,3.33,0,0,1,4.06,30.45Z"/>
          <path class="cls-14" d="M28.65,42c11.61,0,21.93-4.29,28.54-11A28.64,28.64,0,0,1,.1,31C6.71,37.67,17,42,28.65,42Z"/>
        </g>
      </g>
    </g>
  </g>
</svg>
